<svg xmlns="http://www.w3.org/2000/svg" xmlns:xlink="http://www.w3.org/1999/xlink" width="500" zoomAndPan="magnify" viewBox="0 0 375 374.999991" height="500" preserveAspectRatio="xMidYMid meet" version="1.0"><defs><g/><clipPath id="id1"><path d="M 69 99 L 200 99 L 200 280 L 69 280 Z M 69 99 " clip-rule="nonzero"/></clipPath><clipPath id="id2"><path d="M 167.707031 297.222656 L 35.371094 238.632812 L 104.167969 83.238281 L 236.503906 141.824219 Z M 167.707031 297.222656 " clip-rule="nonzero"/></clipPath><clipPath id="id3"><path d="M 167.707031 297.222656 L 35.371094 238.632812 L 104.167969 83.238281 L 236.503906 141.824219 Z M 167.707031 297.222656 " clip-rule="nonzero"/></clipPath><clipPath id="id4"><path d="M 148 95 L 289 95 L 289 286 L 148 286 Z M 148 95 " clip-rule="nonzero"/></clipPath><clipPath id="id5"><path d="M 294.105469 77.777344 L 314.933594 280.644531 L 154.601562 297.101562 L 133.773438 94.234375 Z M 294.105469 77.777344 " clip-rule="nonzero"/></clipPath><clipPath id="id6"><path d="M 294.105469 77.777344 L 314.933594 280.644531 L 154.601562 297.101562 L 133.773438 94.234375 Z M 294.105469 77.777344 " clip-rule="nonzero"/></clipPath><clipPath id="id7"><path d="M 74 199 L 179 199 L 179 274 L 74 274 Z M 74 199 " clip-rule="nonzero"/></clipPath><clipPath id="id8"><path d="M 169.796875 132.800781 L 271.902344 227.851562 L 176.851562 329.957031 L 74.746094 234.910156 Z M 169.796875 132.800781 " clip-rule="nonzero"/></clipPath><clipPath id="id9"><path d="M 169.796875 132.800781 L 271.902344 227.851562 L 176.851562 329.957031 L 74.746094 234.910156 Z M 169.796875 132.800781 " clip-rule="nonzero"/></clipPath><clipPath id="id10"><path d="M 125.390625 180.503906 L 188.148438 238.925781 L 137.496094 293.335938 L 74.738281 234.917969 Z M 125.390625 180.503906 " clip-rule="nonzero"/></clipPath><clipPath id="id11"><path d="M 125.390625 180.503906 L 188.148438 238.925781 L 137.503906 293.328125 L 74.75 234.90625 Z M 125.390625 180.503906 " clip-rule="nonzero"/></clipPath><clipPath id="id12"><path d="M 168 185 L 272 185 L 272 262 L 168 262 Z M 168 185 " clip-rule="nonzero"/></clipPath><clipPath id="id13"><path d="M 169.796875 132.800781 L 271.902344 227.851562 L 176.851562 329.957031 L 74.746094 234.910156 Z M 169.796875 132.800781 " clip-rule="nonzero"/></clipPath><clipPath id="id14"><path d="M 169.796875 132.800781 L 271.902344 227.851562 L 176.851562 329.957031 L 74.746094 234.910156 Z M 169.796875 132.800781 " clip-rule="nonzero"/></clipPath><clipPath id="id15"><path d="M 212.058594 172.144531 L 271.914062 227.859375 L 218.558594 285.175781 L 158.703125 229.457031 Z M 212.058594 172.144531 " clip-rule="nonzero"/></clipPath><clipPath id="id16"><path d="M 212.058594 172.144531 L 271.902344 227.851562 L 218.546875 285.167969 L 158.703125 229.457031 Z M 212.058594 172.144531 " clip-rule="nonzero"/></clipPath></defs><g clip-path="url(#id1)"><g clip-path="url(#id2)"><g clip-path="url(#id3)"><path fill="rgb(49.409485%, 85.099792%, 34.118652%)" d="M 118.199219 275.304688 C 135.59375 283.648438 168.238281 280.335938 181.722656 261.855469 C 198.484375 238.898438 181.125 240.996094 187.0625 218.527344 C 198.082031 176.683594 215.054688 151.503906 172.898438 117.269531 C 79.5 41.554688 23.441406 230.132812 118.199219 275.304688 Z M 118.199219 275.304688 " fill-opacity="1" fill-rule="nonzero"/></g></g></g><g clip-path="url(#id4)"><g clip-path="url(#id5)"><g clip-path="url(#id6)"><path fill="rgb(100%, 87.059021%, 34.899902%)" d="M 251.9375 107.617188 C 226.71875 91.484375 185.96875 88.898438 162.460938 116.804688 C 138.957031 144.707031 153.503906 185.523438 151.882812 215.558594 C 150.261719 245.59375 154.003906 282.039062 195.773438 285.285156 C 237.542969 288.566406 245.96875 269.742188 269.699219 216.285156 C 293.425781 162.828125 300.347656 138.566406 251.9375 107.617188 Z M 251.9375 107.617188 " fill-opacity="1" fill-rule="nonzero"/></g></g></g><g clip-path="url(#id7)"><g clip-path="url(#id8)"><g clip-path="url(#id9)"><g clip-path="url(#id10)"><g clip-path="url(#id11)"><path fill="rgb(100%, 8.628845%, 8.628845%)" d="M 155.503906 273.519531 C 151.496094 273.980469 141.996094 266.347656 133.386719 265.945312 C 130.449219 265.808594 122.117188 269.152344 105.25 260.382812 C 102.949219 259.1875 100.992188 258.308594 99.203125 257.671875 L 74.75 234.90625 L 75.132812 234.492188 C 79.523438 234.753906 83.925781 234.878906 88.324219 234.859375 C 91.589844 234.84375 96.867188 233.949219 99.941406 232.847656 C 105.046875 231.019531 107.789062 225.3125 111.679688 219.960938 C 114.324219 216.328125 117.628906 213.195312 120.113281 209.453125 C 121.835938 206.855469 124.105469 201.890625 126.003906 199.402344 C 126.5 198.753906 130.078125 198.957031 131.09375 207.796875 C 131.808594 214.046875 126.230469 218.476562 124.375 224.277344 C 124.144531 224.996094 124.050781 225.757812 124.136719 226.507812 C 124.703125 231.382812 131.367188 231.164062 134.832031 230.347656 C 140.03125 229.125 145.367188 227.792969 150.039062 225.316406 C 155.242188 222.558594 160.667969 219.3125 166.109375 219.261719 C 167.800781 219.246094 172.761719 223.507812 162.6875 227.976562 C 159.273438 229.492188 155.992188 231.296875 152.644531 232.957031 C 150.921875 233.808594 149.199219 234.660156 147.476562 235.515625 C 145.921875 236.289062 139.507812 238.859375 144.734375 240.347656 C 145.597656 240.59375 167.382812 235.996094 176.789062 239.453125 C 178.890625 240.222656 178.570312 243.800781 176.554688 244.222656 C 159.488281 247.820312 147.027344 245.925781 146.761719 247.984375 C 146.164062 252.613281 157.695312 253.78125 167.753906 256.179688 C 168.960938 256.46875 169.824219 258.113281 168.945312 259.226562 C 166.617188 262.167969 152.398438 259.253906 145.414062 258.933594 C 143.746094 258.855469 142.824219 260.847656 143.960938 262.066406 C 146.855469 265.164062 151.496094 267.886719 155.304688 269.679688 C 158.175781 271.03125 156.65625 273.386719 155.503906 273.519531 " fill-opacity="1" fill-rule="nonzero"/></g></g></g></g></g><g clip-path="url(#id12)"><g clip-path="url(#id13)"><g clip-path="url(#id14)"><g clip-path="url(#id15)"><g clip-path="url(#id16)"><path fill="rgb(21.958923%, 44.309998%, 75.689697%)" d="M 271.902344 227.851562 L 261.214844 239.332031 C 254.363281 239.582031 250.527344 240.195312 242.921875 244.871094 C 226.722656 254.824219 218.175781 252.085938 215.253906 252.433594 C 206.695312 253.449219 197.765625 261.742188 193.734375 261.566406 C 192.574219 261.515625 190.894531 259.277344 193.660156 257.722656 C 197.332031 255.664062 201.765625 252.613281 204.429688 249.320312 C 205.476562 248.019531 204.414062 246.101562 202.753906 246.296875 C 195.8125 247.117188 181.839844 251.039062 179.308594 248.273438 C 178.347656 247.226562 179.089844 245.523438 180.277344 245.148438 C 190.136719 242.035156 201.554688 240.046875 200.628906 235.472656 C 200.21875 233.4375 187.921875 236.222656 170.644531 233.851562 C 168.601562 233.574219 168.03125 230.03125 170.070312 229.109375 C 179.207031 224.988281 201.261719 228.019531 202.105469 227.710938 C 207.214844 225.851562 200.632812 223.746094 199.027344 223.089844 C 197.246094 222.359375 195.46875 221.632812 193.6875 220.902344 C 190.230469 219.488281 186.828125 217.921875 183.3125 216.65625 C 172.945312 212.917969 177.589844 208.3125 179.28125 208.207031 C 184.707031 207.871094 190.355469 210.71875 195.738281 213.097656 C 200.578125 215.234375 205.996094 216.179688 211.269531 217.03125 C 214.78125 217.59375 221.445312 217.339844 221.660156 212.433594 C 221.695312 211.679688 221.542969 210.925781 221.265625 210.226562 C 219 204.570312 213.117188 200.554688 213.386719 194.265625 C 213.765625 185.378906 217.320312 184.921875 217.859375 185.53125 C 219.933594 187.878906 222.550781 192.667969 224.457031 195.136719 C 227.203125 198.691406 230.722656 201.578125 233.617188 205.011719 C 237.882812 210.074219 241.027344 215.570312 246.25 217.03125 C 249.394531 217.910156 254.722656 218.421875 257.980469 218.203125 C 259.078125 218.128906 260.175781 218.046875 261.273438 217.957031 L 271.902344 227.851562 " fill-opacity="1" fill-rule="nonzero"/></g></g></g></g></g><g fill="rgb(0%, 0%, 0%)" fill-opacity="1"><g transform="translate(65.709996, 149.577768)"><g><path d="M 8.703125 1.925781 C 12.125 1.925781 15.851562 0.0898438 18.203125 -3.390625 C 18.90625 -4.457031 18.507812 -5.710938 17.4375 -6.261719 C 16.460938 -6.78125 15.453125 -6.414062 14.8125 -5.496094 C 13.222656 -3.175781 10.660156 -2.046875 8.734375 -2.046875 C 6.230469 -2.046875 4.582031 -4.214844 4.582031 -7.328125 C 4.582031 -14.292969 10.324219 -18.84375 15.453125 -18.84375 C 16.21875 -18.84375 17.011719 -18.660156 17.773438 -18.324219 C 18.875 -17.867188 19.914062 -18.324219 20.433594 -19.148438 C 21.011719 -20.066406 20.738281 -21.347656 19.578125 -21.867188 C 18.171875 -22.476562 16.765625 -22.785156 15.363281 -22.785156 C 8.03125 -22.785156 0.609375 -16.554688 0.609375 -7.328125 C 0.609375 -2.046875 3.785156 1.925781 8.703125 1.925781 Z M 8.703125 1.925781 "/></g></g></g><g fill="rgb(0%, 0%, 0%)" fill-opacity="1"><g transform="translate(86.75192, 149.577768)"><g><path d="M 10.660156 2.167969 C 15.726562 2.167969 19.578125 -2.289062 19.363281 -7.757812 C 19.179688 -12.613281 15.757812 -16.339844 11.359375 -16.339844 C 11.238281 -16.339844 11.117188 -16.339844 10.996094 -16.308594 C 10.71875 -17.011719 9.988281 -17.589844 8.949219 -17.589844 C 4.335938 -17.589844 0.917969 -13.558594 0.917969 -8.246094 C 0.917969 -2.351562 5.070312 2.167969 10.660156 2.167969 Z M 4.886719 -8.246094 C 4.886719 -11.421875 6.628906 -13.621094 8.949219 -13.621094 C 9.132812 -13.621094 9.285156 -13.621094 9.4375 -13.652344 C 9.652344 -12.949219 10.292969 -12.367188 11.359375 -12.367188 C 13.558594 -12.367188 15.300781 -10.351562 15.390625 -7.636719 C 15.515625 -4.367188 13.4375 -1.800781 10.660156 -1.800781 C 7.300781 -1.800781 4.886719 -4.519531 4.886719 -8.246094 Z M 4.886719 -8.246094 "/></g></g></g><g fill="rgb(0%, 0%, 0%)" fill-opacity="1"><g transform="translate(107.030354, 149.577768)"><g><path d="M 3.910156 0.246094 C 5.007812 0.121094 5.863281 -0.886719 5.863281 -2.015625 C 5.863281 -9.070312 8.398438 -13.742188 10.445312 -13.742188 C 12.1875 -13.742188 11.574219 -8.886719 11.023438 -2.105469 C 10.964844 -1.222656 11.390625 -0.273438 12.613281 -0.121094 C 13.742188 0.03125 14.8125 -0.671875 14.902344 -1.800781 C 15.332031 -7.269531 17.40625 -13.710938 20.339844 -13.710938 C 21.011719 -13.710938 21.410156 -13.4375 21.441406 -12.492188 C 21.5 -10.351562 20.21875 -5.773438 20.21875 -2.261719 C 20.21875 -0.976562 20.949219 0 22.203125 0 C 23.242188 0 24.1875 -0.734375 24.128906 -1.769531 C 23.945312 -4.765625 25.195312 -9.101562 25.289062 -11.757812 C 25.410156 -15.636719 24.066406 -17.683594 20.707031 -17.683594 C 18.539062 -17.683594 16.796875 -16.429688 15.269531 -14.414062 C 14.597656 -15.789062 13.253906 -17.714844 10.445312 -17.714844 C 7.941406 -17.714844 6.046875 -14.996094 5.128906 -12.582031 C 5.070312 -13.195312 5.101562 -14.996094 5.101562 -15.851562 C 5.101562 -16.707031 4.304688 -17.46875 3.359375 -17.46875 C 2.199219 -17.46875 1.28125 -16.734375 1.253906 -15.484375 C 1.128906 -10.109375 1.558594 -5.007812 1.894531 -1.464844 C 1.953125 -0.824219 2.414062 0.398438 3.910156 0.246094 Z M 3.910156 0.246094 "/></g></g></g><g fill="rgb(0%, 0%, 0%)" fill-opacity="1"><g transform="translate(133.538901, 149.577768)"><g><path d="M 2.777344 6.597656 L 2.808594 6.597656 C 3.941406 6.597656 4.824219 5.863281 4.949219 4.671875 C 5.128906 2.777344 5.375 0.976562 5.648438 -0.640625 C 6.6875 0.855469 8.277344 1.617188 10.507812 1.648438 C 15.148438 1.679688 18.964844 -3.269531 18.964844 -9.007812 C 18.964844 -14.261719 16.371094 -18.507812 12.429688 -18.507812 C 9.652344 -18.507812 7.359375 -16.859375 5.527344 -13.710938 C 5.3125 -14.71875 4.398438 -15.363281 3.359375 -15.238281 C 2.230469 -15.117188 1.527344 -14.230469 1.589844 -13.101562 C 1.832031 -8.550781 1.464844 -2.625 0.917969 4.429688 C 0.824219 5.589844 1.617188 6.597656 2.777344 6.597656 Z M 6.75 -5.894531 C 8.214844 -11.484375 10.230469 -14.539062 12.429688 -14.539062 C 13.742188 -14.539062 14.996094 -12.1875 14.996094 -9.007812 C 14.996094 -5.496094 12.828125 -2.261719 10.566406 -2.320312 C 9.316406 -2.351562 8.703125 -2.71875 8.367188 -4.121094 C 8.125 -5.070312 7.574219 -5.773438 6.75 -5.894531 Z M 6.75 -5.894531 "/></g></g></g><g fill="rgb(0%, 0%, 0%)" fill-opacity="1"><g transform="translate(153.420316, 149.577768)"><g><path d="M 6.628906 2.199219 C 9.652344 2.199219 12.003906 -0.183594 14.324219 -4.792969 C 14.414062 -3.878906 14.539062 -3.023438 14.691406 -2.261719 C 15.027344 -0.886719 16.523438 -0.488281 17.742188 -1.253906 C 18.476562 -1.710938 18.660156 -2.472656 18.507812 -3.296875 C 18.078125 -5.621094 18.171875 -10.015625 18.90625 -14.109375 C 19.210938 -15.820312 18.722656 -17.226562 17.589844 -17.5 C 16.828125 -17.652344 16.0625 -17.40625 15.605469 -16.828125 C 15.453125 -17.070312 15.269531 -17.347656 14.996094 -17.5625 C 13.925781 -18.445312 12.675781 -18.8125 11.300781 -18.8125 C 6.261719 -18.8125 0.917969 -11.238281 0.917969 -4.457031 C 0.917969 -0.640625 3.207031 2.199219 6.628906 2.199219 Z M 4.886719 -4.457031 C 4.886719 -8.917969 8.671875 -14.84375 11.300781 -14.84375 C 11.910156 -14.84375 12.308594 -14.539062 12.796875 -14.261719 C 13.285156 -13.988281 13.925781 -13.835938 14.539062 -14.019531 C 12.0625 -7.175781 8.550781 -1.769531 6.628906 -1.769531 C 5.589844 -1.769531 4.886719 -2.75 4.886719 -4.457031 Z M 4.886719 -4.457031 "/></g></g></g><g fill="rgb(0%, 0%, 0%)" fill-opacity="1"><g transform="translate(173.637671, 149.577768)"><g><path d="M 3.632812 0.183594 C 4.640625 0.03125 5.285156 -0.792969 5.285156 -1.863281 C 5.285156 -9.070312 7.910156 -11.574219 10.660156 -13.011719 C 11.695312 -13.558594 12.03125 -14.539062 11.667969 -15.574219 C 11.300781 -16.644531 10.230469 -16.980469 9.007812 -16.613281 C 7.695312 -16.21875 6.503906 -15.332031 5.464844 -14.078125 L 5.496094 -14.355469 C 5.621094 -15.390625 5.007812 -16.398438 3.785156 -16.582031 C 2.6875 -16.765625 1.679688 -16.035156 1.558594 -14.8125 C 1.191406 -10.8125 1.191406 -4.976562 1.28125 -1.710938 C 1.3125 -0.425781 2.382812 0.367188 3.632812 0.183594 Z M 3.632812 0.183594 "/></g></g></g><g fill="rgb(0%, 0%, 0%)" fill-opacity="1"><g transform="translate(186.067375, 149.577768)"><g><path d="M 7.757812 0.855469 C 8.398438 0.855469 9.164062 0.703125 9.894531 0.425781 C 11.023438 0.03125 11.878906 -1.160156 11.421875 -2.414062 C 11.054688 -3.328125 10.261719 -3.816406 9.164062 -3.390625 C 8.765625 -3.238281 8.519531 -3.113281 8.03125 -3.113281 C 7.175781 -3.113281 6.839844 -4.183594 6.839844 -5.589844 C 6.839844 -7.511719 6.964844 -9.804688 7.238281 -12.367188 C 9.101562 -12.429688 10.996094 -12.460938 12.15625 -12.550781 C 13.316406 -12.644531 14.109375 -13.558594 14.019531 -14.691406 C 13.925781 -15.820312 13.039062 -16.613281 11.878906 -16.523438 C 10.871094 -16.429688 9.34375 -16.398438 7.726562 -16.339844 L 8.03125 -18.445312 C 8.214844 -19.605469 7.542969 -20.585938 6.414062 -20.769531 C 5.285156 -20.949219 4.304688 -20.21875 4.121094 -19.058594 C 3.96875 -18.050781 3.816406 -17.070312 3.695312 -16.125 C 3.207031 -16.09375 2.777344 -16.035156 2.382812 -15.972656 C 1.070312 -15.757812 0.367188 -14.660156 0.671875 -13.46875 C 0.945312 -12.398438 1.894531 -11.878906 2.992188 -12.0625 L 3.207031 -12.09375 C 2.992188 -9.679688 2.871094 -7.484375 2.871094 -5.589844 C 2.871094 -2.015625 4.246094 0.855469 7.757812 0.855469 Z M 7.757812 0.855469 "/></g></g></g><g fill="rgb(0%, 0%, 0%)" fill-opacity="1"><g transform="translate(200.390547, 149.577768)"><g><path d="M 3.726562 1.222656 C 4.855469 1.007812 5.464844 0 5.285156 -1.128906 C 4.613281 -5.34375 4.703125 -8.550781 5.558594 -12.277344 C 5.800781 -13.347656 5.222656 -14.324219 4.152344 -14.628906 C 3.054688 -14.933594 1.984375 -14.324219 1.710938 -13.132812 C 0.734375 -8.949219 0.671875 -5.160156 1.375 -0.457031 C 1.558594 0.761719 2.597656 1.433594 3.726562 1.222656 Z M 3.023438 -19.363281 C 1.800781 -18.691406 2.6875 -16.644531 4.582031 -16.828125 C 6.078125 -16.949219 7.117188 -18.234375 7.328125 -19.421875 C 7.574219 -20.769531 5.863281 -21.652344 4.792969 -20.921875 C 3.941406 -20.339844 3.910156 -19.851562 3.023438 -19.363281 Z M 3.023438 -19.363281 "/></g></g></g><g fill="rgb(0%, 0%, 0%)" fill-opacity="1"><g transform="translate(207.811717, 149.577768)"><g><path d="M 7.878906 1.679688 C 10.382812 1.679688 12.214844 1.039062 14.445312 -0.855469 C 15.390625 -1.648438 15.421875 -2.902344 14.628906 -3.757812 C 13.867188 -4.582031 12.703125 -4.582031 11.789062 -3.816406 C 10.324219 -2.597656 9.34375 -2.289062 7.878906 -2.289062 C 6.261719 -2.289062 4.886719 -3.632812 4.886719 -5.464844 C 4.886719 -5.679688 4.886719 -5.863281 4.917969 -6.078125 L 5.007812 -6.046875 C 11.238281 -4.519531 18.261719 -7.789062 18.261719 -12.765625 C 18.261719 -16.246094 15.484375 -19.027344 11.910156 -19.027344 C 6.167969 -19.027344 0.917969 -12.523438 0.917969 -5.464844 C 0.917969 -1.464844 3.910156 1.679688 7.878906 1.679688 Z M 5.863281 -9.894531 C 7.148438 -12.859375 9.558594 -15.054688 11.910156 -15.054688 C 13.285156 -15.054688 14.292969 -14.046875 14.292969 -12.765625 C 14.292969 -10.660156 9.804688 -9.070312 6.109375 -9.863281 C 6.015625 -9.894531 5.925781 -9.894531 5.863281 -9.894531 Z M 5.863281 -9.894531 "/></g></g></g><g fill="rgb(0%, 0%, 0%)" fill-opacity="1"><g transform="translate(226.685314, 149.577768)"><g><path d="M 3.664062 1.160156 C 4.792969 1.160156 5.679688 0.335938 5.679688 -0.855469 C 5.679688 -7.574219 8.183594 -13.195312 10.628906 -13.195312 C 12.582031 -13.195312 13.652344 -8.398438 12.550781 -2.261719 C 12.339844 -1.097656 12.917969 -0.0898438 14.019531 0.183594 L 14.046875 0.183594 C 15.148438 0.457031 16.1875 -0.246094 16.429688 -1.433594 C 18.109375 -10.476562 15.789062 -17.164062 10.628906 -17.164062 C 8.429688 -17.164062 6.261719 -15.574219 5.285156 -13.5 L 5.160156 -15.179688 C 5.101562 -16.0625 4.214844 -16.675781 3.085938 -16.613281 C 1.953125 -16.554688 1.160156 -15.667969 1.222656 -14.507812 C 1.433594 -11.359375 1.617188 -7.238281 1.648438 -1.648438 C 1.679688 0.609375 2.503906 1.160156 3.664062 1.160156 Z M 3.664062 1.160156 "/></g></g></g><g fill="rgb(0%, 0%, 0%)" fill-opacity="1"><g transform="translate(244.88705, 149.577768)"><g><path d="M 8.613281 2.046875 C 10.597656 2.046875 12.644531 0.917969 14.109375 -0.976562 C 14.445312 -0.582031 14.964844 -0.335938 15.546875 -0.367188 C 16.675781 -0.398438 17.53125 -1.28125 17.46875 -2.472656 L 17.46875 -2.535156 C 17.226562 -10.8125 17.898438 -16.582031 18.628906 -21.988281 C 18.78125 -23.121094 18.078125 -24.066406 16.949219 -24.25 C 15.820312 -24.433594 14.84375 -23.699219 14.691406 -22.539062 C 14.414062 -20.339844 14.171875 -18.050781 13.988281 -15.574219 C 12.734375 -17.195312 11.179688 -18.078125 9.316406 -18.078125 C 4.335938 -18.078125 0.917969 -13.53125 0.917969 -7.117188 C 0.917969 -2.078125 4.09375 2.046875 8.613281 2.046875 Z M 4.886719 -7.117188 C 4.886719 -11.359375 6.71875 -14.109375 9.316406 -14.109375 C 10.996094 -14.109375 12.828125 -11.636719 13.40625 -5.957031 C 12.796875 -5.710938 12.308594 -5.039062 12.03125 -4.367188 C 11.390625 -2.808594 9.988281 -1.925781 8.613281 -1.925781 C 6.445312 -1.925781 4.886719 -4.246094 4.886719 -7.117188 Z M 4.886719 -7.117188 "/></g></g></g><g fill="rgb(0%, 0%, 0%)" fill-opacity="1"><g transform="translate(264.615766, 149.577768)"><g><path d="M 10.660156 2.167969 C 15.726562 2.167969 19.578125 -2.289062 19.363281 -7.757812 C 19.179688 -12.613281 15.757812 -16.339844 11.359375 -16.339844 C 11.238281 -16.339844 11.117188 -16.339844 10.996094 -16.308594 C 10.71875 -17.011719 9.988281 -17.589844 8.949219 -17.589844 C 4.335938 -17.589844 0.917969 -13.558594 0.917969 -8.246094 C 0.917969 -2.351562 5.070312 2.167969 10.660156 2.167969 Z M 4.886719 -8.246094 C 4.886719 -11.421875 6.628906 -13.621094 8.949219 -13.621094 C 9.132812 -13.621094 9.285156 -13.621094 9.4375 -13.652344 C 9.652344 -12.949219 10.292969 -12.367188 11.359375 -12.367188 C 13.558594 -12.367188 15.300781 -10.351562 15.390625 -7.636719 C 15.515625 -4.367188 13.4375 -1.800781 10.660156 -1.800781 C 7.300781 -1.800781 4.886719 -4.519531 4.886719 -8.246094 Z M 4.886719 -8.246094 "/></g></g></g><g fill="rgb(0%, 0%, 0%)" fill-opacity="1"><g transform="translate(105.703053, 192.175293)"><g><path d="M 6.261719 1.253906 C 7.117188 0.703125 7.421875 -0.273438 7.054688 -1.375 C 6.503906 -3.085938 6.136719 -5.160156 5.957031 -7.238281 C 9.773438 -7.847656 14.019531 -8.644531 16.398438 -8.886719 C 17.589844 -9.007812 18.386719 -9.925781 18.355469 -11.085938 C 18.324219 -12.429688 17.316406 -13.285156 15.972656 -13.164062 C 13.589844 -12.886719 9.527344 -12.15625 5.710938 -11.574219 C 5.679688 -12.460938 5.679688 -13.285156 5.710938 -13.988281 C 5.800781 -17.316406 8.03125 -19.578125 14.230469 -19.578125 C 15.605469 -19.578125 17.101562 -19.421875 18.660156 -19.148438 C 19.941406 -18.933594 20.980469 -19.605469 21.257812 -20.796875 C 21.53125 -22.019531 20.796875 -23.089844 19.515625 -23.363281 C 17.683594 -23.761719 15.972656 -23.882812 14.324219 -23.882812 C 6.015625 -23.882812 1.222656 -20.980469 1.222656 -14.660156 C 1.222656 -10.382812 1.589844 -4.246094 3.144531 0.304688 C 3.574219 1.558594 5.070312 2.015625 6.261719 1.253906 Z M 6.261719 1.253906 "/></g></g></g><g fill="rgb(0%, 0%, 0%)" fill-opacity="1"><g transform="translate(127.325236, 192.175293)"><g><path d="M 7.878906 1.679688 C 10.382812 1.679688 12.214844 1.039062 14.445312 -0.855469 C 15.390625 -1.648438 15.421875 -2.902344 14.628906 -3.757812 C 13.867188 -4.582031 12.703125 -4.582031 11.789062 -3.816406 C 10.324219 -2.597656 9.34375 -2.289062 7.878906 -2.289062 C 6.261719 -2.289062 4.886719 -3.632812 4.886719 -5.464844 C 4.886719 -5.679688 4.886719 -5.863281 4.917969 -6.078125 L 5.007812 -6.046875 C 11.238281 -4.519531 18.261719 -7.789062 18.261719 -12.765625 C 18.261719 -16.246094 15.484375 -19.027344 11.910156 -19.027344 C 6.167969 -19.027344 0.917969 -12.523438 0.917969 -5.464844 C 0.917969 -1.464844 3.910156 1.679688 7.878906 1.679688 Z M 5.863281 -9.894531 C 7.148438 -12.859375 9.558594 -15.054688 11.910156 -15.054688 C 13.285156 -15.054688 14.292969 -14.046875 14.292969 -12.765625 C 14.292969 -10.660156 9.804688 -9.070312 6.109375 -9.863281 C 6.015625 -9.894531 5.925781 -9.894531 5.863281 -9.894531 Z M 5.863281 -9.894531 "/></g></g></g><g fill="rgb(0%, 0%, 0%)" fill-opacity="1"><g transform="translate(146.198833, 192.175293)"><g><path d="M 4.277344 1.007812 C 5.375 0.703125 5.894531 -0.214844 5.710938 -1.3125 C 4.824219 -6.445312 5.070312 -14.660156 6.292969 -20.644531 C 6.503906 -21.714844 6.078125 -22.8125 4.824219 -23.148438 C 3.726562 -23.457031 2.65625 -22.8125 2.414062 -21.621094 C 1.097656 -15.085938 0.824219 -6.261719 1.800781 -0.550781 C 2.015625 0.671875 3.144531 1.3125 4.277344 1.007812 Z M 4.277344 1.007812 "/></g></g></g><g fill="rgb(0%, 0%, 0%)" fill-opacity="1"><g transform="translate(153.772703, 192.175293)"><g><path d="M 3.726562 1.222656 C 4.855469 1.007812 5.464844 0 5.285156 -1.128906 C 4.613281 -5.34375 4.703125 -8.550781 5.558594 -12.277344 C 5.800781 -13.347656 5.222656 -14.324219 4.152344 -14.628906 C 3.054688 -14.933594 1.984375 -14.324219 1.710938 -13.132812 C 0.734375 -8.949219 0.671875 -5.160156 1.375 -0.457031 C 1.558594 0.761719 2.597656 1.433594 3.726562 1.222656 Z M 3.023438 -19.363281 C 1.800781 -18.691406 2.6875 -16.644531 4.582031 -16.828125 C 6.078125 -16.949219 7.117188 -18.234375 7.328125 -19.421875 C 7.574219 -20.769531 5.863281 -21.652344 4.792969 -20.921875 C 3.941406 -20.339844 3.910156 -19.851562 3.023438 -19.363281 Z M 3.023438 -19.363281 "/></g></g></g><g fill="rgb(0%, 0%, 0%)" fill-opacity="1"><g transform="translate(161.193874, 192.175293)"><g><path d="M 7.542969 2.167969 C 9.988281 2.167969 11.910156 1.039062 13.5 -1.28125 C 14.230469 -2.351562 13.773438 -3.632812 12.675781 -4.152344 C 11.726562 -4.613281 10.75 -4.246094 10.109375 -3.328125 C 9.34375 -2.230469 8.550781 -1.800781 7.542969 -1.800781 C 6.167969 -1.800781 4.886719 -4.03125 4.886719 -6.78125 C 4.886719 -10.6875 7.726562 -14.171875 10.015625 -14.171875 C 10.75 -14.171875 11.332031 -13.710938 11.726562 -12.828125 C 12.277344 -11.605469 12.859375 -11.269531 14.078125 -11.390625 C 15.179688 -11.515625 16.003906 -12.613281 15.574219 -13.867188 C 14.691406 -16.492188 12.675781 -18.140625 10.015625 -18.140625 C 5.40625 -18.140625 0.917969 -12.828125 0.917969 -6.78125 C 0.917969 -1.925781 3.664062 2.167969 7.542969 2.167969 Z M 7.542969 2.167969 "/></g></g></g><g fill="rgb(0%, 0%, 0%)" fill-opacity="1"><g transform="translate(177.807533, 192.175293)"><g><path d="M 3.726562 1.222656 C 4.855469 1.007812 5.464844 0 5.285156 -1.128906 C 4.613281 -5.34375 4.703125 -8.550781 5.558594 -12.277344 C 5.800781 -13.347656 5.222656 -14.324219 4.152344 -14.628906 C 3.054688 -14.933594 1.984375 -14.324219 1.710938 -13.132812 C 0.734375 -8.949219 0.671875 -5.160156 1.375 -0.457031 C 1.558594 0.761719 2.597656 1.433594 3.726562 1.222656 Z M 3.023438 -19.363281 C 1.800781 -18.691406 2.6875 -16.644531 4.582031 -16.828125 C 6.078125 -16.949219 7.117188 -18.234375 7.328125 -19.421875 C 7.574219 -20.769531 5.863281 -21.652344 4.792969 -20.921875 C 3.941406 -20.339844 3.910156 -19.851562 3.023438 -19.363281 Z M 3.023438 -19.363281 "/></g></g></g><g fill="rgb(0%, 0%, 0%)" fill-opacity="1"><g transform="translate(185.228704, 192.175293)"><g><path d="M 8.613281 2.046875 C 10.597656 2.046875 12.644531 0.917969 14.109375 -0.976562 C 14.445312 -0.582031 14.964844 -0.335938 15.546875 -0.367188 C 16.675781 -0.398438 17.53125 -1.28125 17.46875 -2.472656 L 17.46875 -2.535156 C 17.226562 -10.8125 17.898438 -16.582031 18.628906 -21.988281 C 18.78125 -23.121094 18.078125 -24.066406 16.949219 -24.25 C 15.820312 -24.433594 14.84375 -23.699219 14.691406 -22.539062 C 14.414062 -20.339844 14.171875 -18.050781 13.988281 -15.574219 C 12.734375 -17.195312 11.179688 -18.078125 9.316406 -18.078125 C 4.335938 -18.078125 0.917969 -13.53125 0.917969 -7.117188 C 0.917969 -2.078125 4.09375 2.046875 8.613281 2.046875 Z M 4.886719 -7.117188 C 4.886719 -11.359375 6.71875 -14.109375 9.316406 -14.109375 C 10.996094 -14.109375 12.828125 -11.636719 13.40625 -5.957031 C 12.796875 -5.710938 12.308594 -5.039062 12.03125 -4.367188 C 11.390625 -2.808594 9.988281 -1.925781 8.613281 -1.925781 C 6.445312 -1.925781 4.886719 -4.246094 4.886719 -7.117188 Z M 4.886719 -7.117188 "/></g></g></g><g fill="rgb(0%, 0%, 0%)" fill-opacity="1"><g transform="translate(204.957419, 192.175293)"><g><path d="M 6.628906 2.199219 C 9.652344 2.199219 12.003906 -0.183594 14.324219 -4.792969 C 14.414062 -3.878906 14.539062 -3.023438 14.691406 -2.261719 C 15.027344 -0.886719 16.523438 -0.488281 17.742188 -1.253906 C 18.476562 -1.710938 18.660156 -2.472656 18.507812 -3.296875 C 18.078125 -5.621094 18.171875 -10.015625 18.90625 -14.109375 C 19.210938 -15.820312 18.722656 -17.226562 17.589844 -17.5 C 16.828125 -17.652344 16.0625 -17.40625 15.605469 -16.828125 C 15.453125 -17.070312 15.269531 -17.347656 14.996094 -17.5625 C 13.925781 -18.445312 12.675781 -18.8125 11.300781 -18.8125 C 6.261719 -18.8125 0.917969 -11.238281 0.917969 -4.457031 C 0.917969 -0.640625 3.207031 2.199219 6.628906 2.199219 Z M 4.886719 -4.457031 C 4.886719 -8.917969 8.671875 -14.84375 11.300781 -14.84375 C 11.910156 -14.84375 12.308594 -14.539062 12.796875 -14.261719 C 13.285156 -13.988281 13.925781 -13.835938 14.539062 -14.019531 C 12.0625 -7.175781 8.550781 -1.769531 6.628906 -1.769531 C 5.589844 -1.769531 4.886719 -2.75 4.886719 -4.457031 Z M 4.886719 -4.457031 "/></g></g></g><g fill="rgb(0%, 0%, 0%)" fill-opacity="1"><g transform="translate(225.174774, 192.175293)"><g><path d="M 8.613281 2.046875 C 10.597656 2.046875 12.644531 0.917969 14.109375 -0.976562 C 14.445312 -0.582031 14.964844 -0.335938 15.546875 -0.367188 C 16.675781 -0.398438 17.53125 -1.28125 17.46875 -2.472656 L 17.46875 -2.535156 C 17.226562 -10.8125 17.898438 -16.582031 18.628906 -21.988281 C 18.78125 -23.121094 18.078125 -24.066406 16.949219 -24.25 C 15.820312 -24.433594 14.84375 -23.699219 14.691406 -22.539062 C 14.414062 -20.339844 14.171875 -18.050781 13.988281 -15.574219 C 12.734375 -17.195312 11.179688 -18.078125 9.316406 -18.078125 C 4.335938 -18.078125 0.917969 -13.53125 0.917969 -7.117188 C 0.917969 -2.078125 4.09375 2.046875 8.613281 2.046875 Z M 4.886719 -7.117188 C 4.886719 -11.359375 6.71875 -14.109375 9.316406 -14.109375 C 10.996094 -14.109375 12.828125 -11.636719 13.40625 -5.957031 C 12.796875 -5.710938 12.308594 -5.039062 12.03125 -4.367188 C 11.390625 -2.808594 9.988281 -1.925781 8.613281 -1.925781 C 6.445312 -1.925781 4.886719 -4.246094 4.886719 -7.117188 Z M 4.886719 -7.117188 "/></g></g></g></svg>