<svg xmlns="http://www.w3.org/2000/svg" xmlns:xlink="http://www.w3.org/1999/xlink" width="500" zoomAndPan="magnify" viewBox="0 0 375 374.999991" height="500" preserveAspectRatio="xMidYMid meet" version="1.0"><defs><clipPath id="id1"><path d="M 229.058594 160.039062 L 352.542969 160.039062 L 352.542969 274.917969 L 229.058594 274.917969 Z M 229.058594 160.039062 " clip-rule="nonzero"/></clipPath><clipPath id="id2"><path d="M 167.226562 235.84375 L 281 235.84375 L 281 368.726562 L 167.226562 368.726562 Z M 167.226562 235.84375 " clip-rule="nonzero"/></clipPath><clipPath id="id3"><path d="M 15.070312 115 L 139 115 L 139 230 L 15.070312 230 Z M 15.070312 115 " clip-rule="nonzero"/></clipPath><clipPath id="id4"><path d="M 86 20.207031 L 201 20.207031 L 201 154 L 86 154 Z M 86 20.207031 " clip-rule="nonzero"/></clipPath></defs><g clip-path="url(#id1)"><path fill="rgb(29.40979%, 38.819885%, 71.759033%)" d="M 313.457031 269.105469 C 316.714844 270.410156 321.082031 270.894531 323.160156 268.066406 C 324.605469 266.101562 324.210938 263.242188 322.875 261.195312 C 321.542969 259.152344 319.453125 257.738281 317.425781 256.378906 C 311.085938 252.140625 304.746094 247.90625 298.410156 243.667969 C 296.3125 242.265625 293.8125 240.886719 292.34375 238.769531 C 289.3125 234.398438 294.726562 233.085938 297.964844 234.359375 C 302.945312 236.320312 307.691406 238.859375 312.367188 241.449219 C 321.453125 246.476562 330.777344 251.597656 340.753906 254.367188 C 343.019531 254.996094 345.410156 255.515625 347.710938 255.03125 C 350.011719 254.546875 352.207031 252.8125 352.503906 250.480469 C 352.886719 247.507812 350.273438 245.070312 347.8125 243.355469 C 334.691406 234.226562 318.800781 229.515625 304.460938 222.695312 C 302.898438 221.949219 300.34375 220.136719 301.675781 218.105469 C 302.414062 216.980469 304.144531 217.105469 305.324219 217.296875 C 317.4375 219.246094 328.609375 225.40625 340.78125 226.980469 C 344.214844 227.421875 348.46875 227.066406 350.015625 223.976562 C 351.796875 220.425781 348.503906 216.414062 345.125 214.324219 C 335.53125 208.417969 323.382812 207.234375 312.605469 204.730469 C 305.089844 202.984375 295.164062 200.042969 290.976562 192.9375 C 286.949219 186.097656 294.433594 181.8125 300.242188 180.4375 C 304.160156 179.503906 308.132812 178.722656 311.773438 176.9375 C 317.140625 174.304688 321.722656 169.832031 320.027344 163.390625 C 318.515625 157.65625 315.402344 160.894531 311.558594 162.777344 C 304.945312 166.019531 297.921875 168.460938 290.664062 169.761719 C 283.445312 171.054688 276.089844 170.601562 268.800781 170.9375 C 258.585938 171.410156 248.007812 174.703125 240.5 181.863281 C 224.488281 197.144531 227.5 222.789062 242.5625 237.640625 C 248.101562 243.105469 254.191406 248.0625 260.023438 253.210938 C 267.460938 259.773438 275.507812 265.621094 283.757812 271.117188 C 284.828125 271.828125 285.90625 272.535156 286.980469 273.238281 C 288.621094 274.308594 291.171875 275.195312 292.207031 273.539062 C 292.613281 272.882812 292.574219 272.050781 292.453125 271.289062 C 291.191406 263.21875 283.34375 258.15625 278.414062 251.640625 C 277.761719 250.773438 277.121094 249.648438 277.5625 248.652344 C 278.214844 247.15625 280.433594 247.46875 281.925781 248.140625 C 293.484375 253.324219 301.695312 264.398438 313.457031 269.105469 " fill-opacity="1" fill-rule="nonzero"/></g><g clip-path="url(#id2)"><path fill="rgb(36.468506%, 79.219055%, 91.369629%)" d="M 184.285156 343.941406 C 184.785156 347.410156 186.546875 351.429688 190.035156 351.8125 C 192.46875 352.078125 194.75 350.304688 195.859375 348.128906 C 196.964844 345.953125 197.148438 343.445312 197.308594 341.007812 C 197.816406 333.410156 198.320312 325.808594 198.828125 318.210938 C 198.996094 315.695312 198.941406 312.84375 200.042969 310.519531 C 202.316406 305.707031 206.160156 309.738281 206.675781 313.171875 C 207.46875 318.457031 207.636719 323.832031 207.734375 329.167969 C 207.914062 339.539062 208.128906 350.164062 210.71875 360.175781 C 211.304688 362.449219 212.050781 364.773438 213.621094 366.523438 C 215.191406 368.269531 217.792969 369.296875 219.964844 368.390625 C 222.734375 367.234375 223.542969 363.757812 223.796875 360.773438 C 225.15625 344.863281 221.296875 328.765625 220.046875 312.957031 C 219.910156 311.230469 220.199219 308.117188 222.636719 308.253906 C 223.980469 308.328125 224.734375 309.890625 225.15625 311 C 229.527344 322.453125 229.765625 335.195312 234.488281 346.503906 C 235.820312 349.695312 238.253906 353.195312 241.710938 352.988281 C 245.679688 352.75 247.515625 347.902344 247.632812 343.933594 C 247.964844 332.683594 242.914062 321.585938 239.699219 311.015625 C 237.453125 303.644531 235.042969 293.59375 239.113281 286.417969 C 243.03125 279.511719 250.492188 283.847656 254.589844 288.179688 C 257.355469 291.101562 260.019531 294.148438 263.390625 296.402344 C 268.355469 299.722656 274.527344 301.453125 279.265625 296.761719 C 283.484375 292.589844 279.121094 291.519531 275.5625 289.132812 C 269.445312 285.039062 263.816406 280.183594 259.058594 274.558594 C 254.328125 268.964844 251.042969 262.378906 247.105469 256.246094 C 241.589844 247.644531 233.445312 240.148438 223.480469 237.234375 C 202.21875 231.03125 181.480469 246.457031 176.132812 266.90625 C 174.164062 274.433594 172.90625 282.171875 171.359375 289.789062 C 169.386719 299.503906 168.335938 309.382812 167.691406 319.265625 C 167.609375 320.550781 167.535156 321.832031 167.464844 323.117188 C 167.355469 325.0625 167.859375 327.714844 169.816406 327.78125 C 170.589844 327.804688 171.289062 327.351562 171.890625 326.871094 C 178.257812 321.746094 178.726562 312.425781 181.917969 304.90625 C 182.339844 303.90625 182.996094 302.792969 184.078125 302.671875 C 185.707031 302.492188 186.542969 304.566406 186.707031 306.195312 C 187.988281 318.78125 182.488281 331.417969 184.285156 343.941406 " fill-opacity="1" fill-rule="nonzero"/></g><path fill="rgb(59.609985%, 82.749939%, 12.548828%)" d="M 54.789062 269.667969 C 52.03125 271.832031 49.425781 275.367188 50.839844 278.574219 C 51.820312 280.808594 54.5 281.898438 56.941406 281.769531 C 59.382812 281.636719 61.652344 280.539062 63.84375 279.460938 C 70.691406 276.097656 77.53125 272.738281 84.378906 269.375 C 86.644531 268.261719 89.089844 266.792969 91.660156 266.578125 C 96.96875 266.140625 95.398438 271.480469 92.675781 273.640625 C 88.484375 276.972656 83.90625 279.804688 79.324219 282.554688 C 70.421875 287.898438 61.3125 293.394531 53.925781 300.640625 C 52.246094 302.285156 50.601562 304.089844 49.871094 306.324219 C 49.140625 308.554688 49.550781 311.316406 51.421875 312.742188 C 53.808594 314.558594 57.230469 313.519531 59.945312 312.246094 C 74.425781 305.46875 86.457031 294.082031 99.546875 285.09375 C 100.972656 284.117188 103.820312 282.808594 104.917969 284.984375 C 105.527344 286.183594 104.550781 287.617188 103.800781 288.539062 C 96.046875 298.042969 85.113281 304.621094 77.667969 314.359375 C 75.566406 317.105469 73.746094 320.957031 75.65625 323.84375 C 77.84375 327.15625 82.96875 326.320312 86.472656 324.4375 C 96.394531 319.101562 103.492188 309.1875 111.054688 301.117188 C 116.328125 295.492188 123.835938 288.382812 132.097656 288.3125 C 140.042969 288.246094 140.015625 296.871094 138.3125 302.574219 C 137.160156 306.425781 135.847656 310.253906 135.574219 314.296875 C 135.175781 320.25 136.765625 326.449219 143.199219 328.207031 C 148.929688 329.765625 147.675781 325.457031 147.964844 321.191406 C 148.460938 313.851562 149.859375 306.554688 152.355469 299.628906 C 154.84375 292.742188 158.910156 286.609375 162.265625 280.136719 C 166.964844 271.070312 169.398438 260.277344 166.941406 250.203125 C 161.695312 228.71875 137.945312 218.5 117.53125 224.097656 C 110.019531 226.15625 102.675781 228.941406 95.296875 231.414062 C 85.882812 234.566406 76.789062 238.59375 67.894531 242.984375 C 66.738281 243.550781 65.589844 244.128906 64.441406 244.710938 C 62.699219 245.589844 60.648438 247.351562 61.574219 249.074219 C 61.9375 249.753906 62.675781 250.136719 63.398438 250.414062 C 71.027344 253.355469 79.347656 249.105469 87.460938 248.101562 C 88.542969 247.964844 89.832031 247.980469 90.480469 248.855469 C 91.453125 250.171875 90.070312 251.929688 88.742188 252.886719 C 78.460938 260.289062 64.753906 261.851562 54.789062 269.667969 " fill-opacity="1" fill-rule="nonzero"/><g clip-path="url(#id3)"><path fill="rgb(90.19928%, 80.778503%, 4.708862%)" d="M 54.464844 120.558594 C 51.207031 119.253906 46.839844 118.769531 44.761719 121.597656 C 43.316406 123.5625 43.710938 126.425781 45.046875 128.46875 C 46.378906 130.515625 48.46875 131.929688 50.5 133.285156 C 56.835938 137.523438 63.175781 141.757812 69.511719 145.996094 C 71.609375 147.398438 74.109375 148.78125 75.578125 150.894531 C 78.613281 155.269531 73.195312 156.574219 69.960938 155.304688 C 64.976562 153.347656 60.230469 150.808594 55.554688 148.21875 C 46.46875 143.191406 37.144531 138.066406 27.167969 135.296875 C 24.902344 134.667969 22.515625 134.148438 20.210938 134.632812 C 17.910156 135.117188 15.722656 136.855469 15.417969 139.183594 C 15.035156 142.15625 17.648438 144.59375 20.109375 146.308594 C 33.230469 155.4375 49.121094 160.152344 63.460938 166.972656 C 65.023438 167.71875 67.582031 169.527344 66.246094 171.5625 C 65.507812 172.683594 63.777344 172.558594 62.601562 172.371094 C 50.484375 170.421875 39.3125 164.257812 27.140625 162.683594 C 23.707031 162.242188 19.453125 162.597656 17.90625 165.6875 C 16.128906 169.238281 19.417969 173.253906 22.796875 175.335938 C 32.390625 181.25 44.539062 182.433594 55.316406 184.933594 C 62.835938 186.679688 72.757812 189.621094 76.945312 196.730469 C 80.976562 203.566406 73.484375 207.855469 67.683594 209.230469 C 63.761719 210.160156 59.789062 210.941406 56.148438 212.726562 C 50.785156 215.359375 46.199219 219.832031 47.898438 226.273438 C 49.40625 232.007812 52.519531 228.769531 56.363281 226.886719 C 62.976562 223.648438 70.003906 221.207031 77.261719 219.902344 C 84.476562 218.609375 91.832031 219.0625 99.121094 218.726562 C 109.335938 218.253906 119.914062 214.960938 127.421875 207.800781 C 143.433594 192.519531 140.425781 166.875 125.359375 152.023438 C 119.820312 146.558594 113.734375 141.601562 107.894531 136.457031 C 100.457031 129.894531 92.417969 124.042969 84.164062 118.550781 C 83.09375 117.835938 82.019531 117.125 80.941406 116.425781 C 79.304688 115.359375 76.75 114.46875 75.714844 116.128906 C 75.308594 116.78125 75.351562 117.617188 75.46875 118.375 C 76.730469 126.445312 84.578125 131.507812 89.507812 138.023438 C 90.164062 138.890625 90.800781 140.015625 90.363281 141.015625 C 89.707031 142.511719 87.492188 142.195312 85.996094 141.527344 C 74.4375 136.339844 66.230469 125.265625 54.464844 120.558594 " fill-opacity="1" fill-rule="nonzero"/></g><g clip-path="url(#id4)"><path fill="rgb(90.979004%, 13.729858%, 13.729858%)" d="M 183.636719 45.726562 C 183.140625 42.253906 181.375 38.238281 177.886719 37.851562 C 175.457031 37.585938 173.171875 39.359375 172.066406 41.535156 C 170.957031 43.710938 170.773438 46.222656 170.613281 48.65625 C 170.109375 56.257812 169.605469 63.855469 169.097656 71.453125 C 168.929688 73.96875 168.984375 76.820312 167.878906 79.148438 C 165.605469 83.960938 161.761719 79.925781 161.246094 76.496094 C 160.453125 71.207031 160.285156 65.832031 160.191406 60.492188 C 160.007812 50.125 159.792969 39.5 157.207031 29.492188 C 156.617188 27.214844 155.871094 24.890625 154.300781 23.140625 C 152.730469 21.394531 150.128906 20.371094 147.957031 21.273438 C 145.191406 22.425781 144.378906 25.90625 144.125 28.894531 C 142.765625 44.804688 146.625 60.898438 147.878906 76.710938 C 148.011719 78.433594 147.722656 81.546875 145.289062 81.410156 C 143.941406 81.335938 143.1875 79.773438 142.765625 78.664062 C 138.398438 67.214844 138.160156 54.472656 133.433594 43.160156 C 132.101562 39.96875 129.671875 36.46875 126.214844 36.675781 C 122.246094 36.914062 120.40625 41.761719 120.289062 45.730469 C 119.957031 56.980469 125.007812 68.078125 128.226562 78.652344 C 130.46875 86.019531 132.878906 96.070312 128.808594 103.246094 C 124.890625 110.152344 117.429688 105.816406 113.332031 101.488281 C 110.566406 98.5625 107.90625 95.519531 104.53125 93.265625 C 99.566406 89.941406 93.394531 88.214844 88.660156 92.902344 C 84.4375 97.074219 88.800781 98.148438 92.359375 100.53125 C 98.476562 104.628906 104.105469 109.484375 108.863281 115.105469 C 113.59375 120.699219 116.882812 127.285156 120.816406 133.417969 C 126.332031 142.019531 134.476562 149.519531 144.445312 152.425781 C 165.703125 158.632812 186.441406 143.207031 191.792969 122.757812 C 193.761719 115.234375 195.015625 107.492188 196.5625 99.875 C 198.539062 90.160156 199.589844 80.28125 200.230469 70.398438 C 200.3125 69.113281 200.390625 67.832031 200.460938 66.550781 C 200.566406 64.601562 200.0625 61.945312 198.105469 61.882812 C 197.335938 61.859375 196.632812 62.308594 196.03125 62.792969 C 189.667969 67.917969 189.195312 77.238281 186.007812 84.757812 C 185.582031 85.757812 184.925781 86.867188 183.84375 86.992188 C 182.214844 87.171875 181.382812 85.097656 181.214844 83.472656 C 179.933594 70.882812 185.433594 58.246094 183.636719 45.726562 " fill-opacity="1" fill-rule="nonzero"/></g><path fill="rgb(36.468506%, 30.198669%, 66.668701%)" d="M 313.132812 120 C 315.890625 117.832031 318.496094 114.296875 317.085938 111.089844 C 316.101562 108.855469 313.421875 107.765625 310.980469 107.894531 C 308.542969 108.027344 306.269531 109.125 304.078125 110.203125 C 297.234375 113.5625 290.390625 116.929688 283.542969 120.289062 C 281.277344 121.402344 278.832031 122.875 276.265625 123.085938 C 270.953125 123.523438 272.527344 118.183594 275.246094 116.023438 C 279.4375 112.691406 284.015625 109.863281 288.597656 107.109375 C 297.5 101.769531 306.605469 96.269531 313.996094 89.027344 C 315.675781 87.378906 317.320312 85.574219 318.050781 83.34375 C 318.785156 81.109375 318.371094 78.347656 316.5 76.921875 C 314.117188 75.105469 310.691406 76.148438 307.976562 77.417969 C 293.496094 84.199219 281.460938 95.582031 268.375 104.566406 C 266.949219 105.550781 264.101562 106.855469 263.003906 104.679688 C 262.398438 103.480469 263.375 102.046875 264.125 101.128906 C 271.875 91.625 282.808594 85.046875 290.253906 75.304688 C 292.355469 72.5625 294.175781 68.707031 292.269531 65.820312 C 290.078125 62.503906 284.949219 63.34375 281.449219 65.230469 C 271.527344 70.566406 264.429688 80.476562 256.867188 88.546875 C 251.597656 94.175781 244.085938 101.28125 235.824219 101.351562 C 227.878906 101.417969 227.90625 92.796875 229.613281 87.089844 C 230.765625 83.234375 232.074219 79.410156 232.34375 75.371094 C 232.746094 69.414062 231.160156 63.214844 224.722656 61.460938 C 218.992188 59.898438 220.242188 64.210938 219.957031 68.476562 C 219.457031 75.8125 218.0625 83.109375 215.566406 90.035156 C 213.082031 96.921875 209.011719 103.058594 205.65625 109.527344 C 200.957031 118.59375 198.523438 129.390625 200.984375 139.460938 C 206.230469 160.945312 229.980469 171.164062 250.394531 165.566406 C 257.90625 163.503906 265.246094 160.722656 272.625 158.253906 C 282.039062 155.101562 291.132812 151.070312 300.027344 146.683594 C 301.179688 146.113281 302.332031 145.539062 303.480469 144.957031 C 305.226562 144.074219 307.273438 142.3125 306.351562 140.589844 C 305.984375 139.910156 305.246094 139.53125 304.523438 139.253906 C 296.894531 136.308594 288.578125 140.5625 280.460938 141.5625 C 279.378906 141.699219 278.089844 141.6875 277.441406 140.808594 C 276.46875 139.492188 277.851562 137.734375 279.183594 136.777344 C 289.460938 129.378906 303.171875 127.8125 313.132812 120 " fill-opacity="1" fill-rule="nonzero"/></svg>