<svg xmlns="http://www.w3.org/2000/svg" xmlns:xlink="http://www.w3.org/1999/xlink" width="500" zoomAndPan="magnify" viewBox="0 0 375 374.999991" height="500" preserveAspectRatio="xMidYMid meet" version="1.0"><defs><g/><clipPath id="id1"><path d="M 141 196 L 160 196 L 160 221 L 141 221 Z M 141 196 " clip-rule="nonzero"/></clipPath><clipPath id="id2"><path d="M 136.28125 193.550781 L 175.121094 182.066406 L 183.839844 211.554688 L 145.003906 223.039062 Z M 136.28125 193.550781 " clip-rule="nonzero"/></clipPath><clipPath id="id3"><path d="M 136.28125 193.550781 L 175.121094 182.066406 L 183.839844 211.554688 L 145.003906 223.039062 Z M 136.28125 193.550781 " clip-rule="nonzero"/></clipPath><clipPath id="id4"><path d="M 164 184 L 178 184 L 178 202 L 164 202 Z M 164 184 " clip-rule="nonzero"/></clipPath><clipPath id="id5"><path d="M 136.28125 193.550781 L 175.121094 182.066406 L 183.839844 211.554688 L 145.003906 223.039062 Z M 136.28125 193.550781 " clip-rule="nonzero"/></clipPath><clipPath id="id6"><path d="M 136.28125 193.550781 L 175.121094 182.066406 L 183.839844 211.554688 L 145.003906 223.039062 Z M 136.28125 193.550781 " clip-rule="nonzero"/></clipPath><clipPath id="id7"><path d="M 167 207 L 171 207 L 171 212 L 167 212 Z M 167 207 " clip-rule="nonzero"/></clipPath><clipPath id="id8"><path d="M 136.28125 193.550781 L 175.121094 182.066406 L 183.839844 211.554688 L 145.003906 223.039062 Z M 136.28125 193.550781 " clip-rule="nonzero"/></clipPath><clipPath id="id9"><path d="M 136.28125 193.550781 L 175.121094 182.066406 L 183.839844 211.554688 L 145.003906 223.039062 Z M 136.28125 193.550781 " clip-rule="nonzero"/></clipPath><clipPath id="id10"><path d="M 152 191 L 156 191 L 156 196 L 152 196 Z M 152 191 " clip-rule="nonzero"/></clipPath><clipPath id="id11"><path d="M 136.28125 193.550781 L 175.121094 182.066406 L 183.839844 211.554688 L 145.003906 223.039062 Z M 136.28125 193.550781 " clip-rule="nonzero"/></clipPath><clipPath id="id12"><path d="M 136.28125 193.550781 L 175.121094 182.066406 L 183.839844 211.554688 L 145.003906 223.039062 Z M 136.28125 193.550781 " clip-rule="nonzero"/></clipPath><clipPath id="id13"><path d="M 82.457031 167 L 112 167 L 112 205.433594 L 82.457031 205.433594 Z M 82.457031 167 " clip-rule="nonzero"/></clipPath><clipPath id="id14"><path d="M 122 158.933594 L 143.207031 158.933594 L 143.207031 187 L 122 187 Z M 122 158.933594 " clip-rule="nonzero"/></clipPath><clipPath id="id15"><path d="M 25 176 L 127 176 L 127 284 L 25 284 Z M 25 176 " clip-rule="nonzero"/></clipPath><clipPath id="id16"><path d="M 57.15625 133.335938 L 158.410156 185.714844 L 101.207031 296.292969 L -0.046875 243.914062 Z M 57.15625 133.335938 " clip-rule="nonzero"/></clipPath><clipPath id="id17"><path d="M 57.15625 133.335938 L 158.410156 185.714844 L 101.207031 296.292969 L -0.046875 243.914062 Z M 57.15625 133.335938 " clip-rule="nonzero"/></clipPath><clipPath id="id18"><path d="M 38 152 L 136 152 L 136 200 L 38 200 Z M 38 152 " clip-rule="nonzero"/></clipPath><clipPath id="id19"><path d="M 57.15625 133.335938 L 158.410156 185.714844 L 101.207031 296.292969 L -0.046875 243.914062 Z M 57.15625 133.335938 " clip-rule="nonzero"/></clipPath><clipPath id="id20"><path d="M 57.15625 133.335938 L 158.410156 185.714844 L 101.207031 296.292969 L -0.046875 243.914062 Z M 57.15625 133.335938 " clip-rule="nonzero"/></clipPath><clipPath id="id21"><path d="M 124 202 L 145 202 L 145 221 L 124 221 Z M 124 202 " clip-rule="nonzero"/></clipPath><clipPath id="id22"><path d="M 57.15625 133.335938 L 158.410156 185.714844 L 101.207031 296.292969 L -0.046875 243.914062 Z M 57.15625 133.335938 " clip-rule="nonzero"/></clipPath><clipPath id="id23"><path d="M 57.15625 133.335938 L 158.410156 185.714844 L 101.207031 296.292969 L -0.046875 243.914062 Z M 57.15625 133.335938 " clip-rule="nonzero"/></clipPath><clipPath id="id24"><path d="M 179 157 L 205 157 L 205 191 L 179 191 Z M 179 157 " clip-rule="nonzero"/></clipPath><clipPath id="id25"><path d="M 193.699219 142.703125 L 246.003906 173.601562 L 222.351562 213.636719 L 170.046875 182.742188 Z M 193.699219 142.703125 " clip-rule="nonzero"/></clipPath><clipPath id="id26"><path d="M 193.699219 142.703125 L 246.003906 173.601562 L 222.351562 213.636719 L 170.046875 182.742188 Z M 193.699219 142.703125 " clip-rule="nonzero"/></clipPath><clipPath id="id27"><path d="M 221 168 L 240 168 L 240 193 L 221 193 Z M 221 168 " clip-rule="nonzero"/></clipPath><clipPath id="id28"><path d="M 193.699219 142.703125 L 246.003906 173.601562 L 222.351562 213.636719 L 170.046875 182.742188 Z M 193.699219 142.703125 " clip-rule="nonzero"/></clipPath><clipPath id="id29"><path d="M 193.699219 142.703125 L 246.003906 173.601562 L 222.351562 213.636719 L 170.046875 182.742188 Z M 193.699219 142.703125 " clip-rule="nonzero"/></clipPath><clipPath id="id30"><path d="M 206 192 L 211 192 L 211 198 L 206 198 Z M 206 192 " clip-rule="nonzero"/></clipPath><clipPath id="id31"><path d="M 193.699219 142.703125 L 246.003906 173.601562 L 222.351562 213.636719 L 170.046875 182.742188 Z M 193.699219 142.703125 " clip-rule="nonzero"/></clipPath><clipPath id="id32"><path d="M 193.699219 142.703125 L 246.003906 173.601562 L 222.351562 213.636719 L 170.046875 182.742188 Z M 193.699219 142.703125 " clip-rule="nonzero"/></clipPath><clipPath id="id33"><path d="M 209 159 L 214 159 L 214 166 L 209 166 Z M 209 159 " clip-rule="nonzero"/></clipPath><clipPath id="id34"><path d="M 193.699219 142.703125 L 246.003906 173.601562 L 222.351562 213.636719 L 170.046875 182.742188 Z M 193.699219 142.703125 " clip-rule="nonzero"/></clipPath><clipPath id="id35"><path d="M 193.699219 142.703125 L 246.003906 173.601562 L 222.351562 213.636719 L 170.046875 182.742188 Z M 193.699219 142.703125 " clip-rule="nonzero"/></clipPath><clipPath id="id36"><path d="M 245.964844 165 L 270 165 L 270 197.183594 L 245.964844 197.183594 Z M 245.964844 165 " clip-rule="nonzero"/></clipPath><clipPath id="id37"><path d="M 279 158.933594 L 296.214844 158.933594 L 296.214844 182 L 279 182 Z M 279 158.933594 " clip-rule="nonzero"/></clipPath><clipPath id="id38"><path d="M 215.613281 204 L 230 204 L 230 223.300781 L 215.613281 223.300781 Z M 215.613281 204 " clip-rule="nonzero"/></clipPath><clipPath id="id39"><path d="M 235 200.050781 L 245.613281 200.050781 L 245.613281 214 L 235 214 Z M 235 200.050781 " clip-rule="nonzero"/></clipPath></defs><g clip-path="url(#id1)"><g clip-path="url(#id2)"><g clip-path="url(#id3)"><path fill="rgb(94.119263%, 72.938538%, 100%)" d="M 159.136719 205.089844 C 152.21875 207.085938 150.742188 206.628906 147.683594 196.484375 C 147.609375 196.230469 147.335938 196.082031 147.082031 196.160156 C 146.824219 196.234375 146.675781 196.503906 146.75 196.761719 C 149.703125 206.9375 148.714844 208.121094 141.820312 210.210938 C 141.511719 210.304688 141.332031 210.628906 141.425781 210.9375 C 141.515625 211.242188 141.839844 211.421875 142.152344 211.332031 C 149.070312 209.335938 150.546875 209.789062 153.605469 219.933594 C 153.679688 220.191406 153.953125 220.335938 154.207031 220.261719 C 154.464844 220.1875 154.613281 219.914062 154.539062 219.660156 C 151.585938 209.484375 152.574219 208.296875 159.46875 206.210938 C 159.777344 206.117188 159.957031 205.789062 159.863281 205.484375 C 159.773438 205.175781 159.445312 205 159.136719 205.089844 Z M 159.136719 205.089844 " fill-opacity="1" fill-rule="nonzero"/></g></g></g><g clip-path="url(#id4)"><g clip-path="url(#id5)"><g clip-path="url(#id6)"><path fill="rgb(94.119263%, 72.938538%, 100%)" d="M 177.28125 190.570312 C 172.246094 192.023438 171.066406 191.660156 168.828125 184.242188 C 168.789062 184.101562 168.640625 184.023438 168.5 184.0625 C 168.363281 184.105469 168.28125 184.25 168.324219 184.390625 C 170.480469 191.832031 169.6875 192.777344 164.671875 194.296875 C 164.492188 194.351562 164.390625 194.539062 164.441406 194.714844 C 164.492188 194.894531 164.683594 194.992188 164.859375 194.941406 C 169.898438 193.488281 171.078125 193.851562 173.3125 201.269531 C 173.355469 201.410156 173.503906 201.488281 173.640625 201.449219 C 173.78125 201.40625 173.863281 201.257812 173.820312 201.121094 C 171.660156 193.679688 172.457031 192.734375 177.472656 191.214844 C 177.652344 191.160156 177.753906 190.972656 177.703125 190.796875 C 177.648438 190.617188 177.460938 190.519531 177.28125 190.570312 Z M 177.28125 190.570312 " fill-opacity="1" fill-rule="nonzero"/></g></g></g><g clip-path="url(#id7)"><g clip-path="url(#id8)"><g clip-path="url(#id9)"><path fill="rgb(94.119263%, 72.938538%, 100%)" d="M 168.191406 207.835938 C 168.148438 208.851562 167.8125 209.707031 167.222656 210.289062 C 168.035156 210.457031 168.777344 210.988281 169.367188 211.820312 C 169.410156 210.800781 169.746094 209.949219 170.335938 209.367188 C 169.523438 209.199219 168.78125 208.664062 168.191406 207.835938 Z M 168.191406 207.835938 " fill-opacity="1" fill-rule="nonzero"/></g></g></g><g clip-path="url(#id10)"><g clip-path="url(#id11)"><g clip-path="url(#id12)"><path fill="rgb(94.119263%, 72.938538%, 100%)" d="M 154.625 195.75 C 154.667969 194.730469 155.003906 193.878906 155.59375 193.296875 C 154.78125 193.128906 154.035156 192.597656 153.445312 191.765625 C 153.402344 192.78125 153.066406 193.636719 152.476562 194.21875 C 153.289062 194.386719 154.035156 194.917969 154.625 195.75 Z M 154.625 195.75 " fill-opacity="1" fill-rule="nonzero"/></g></g></g><g clip-path="url(#id13)"><path fill="rgb(100%, 87.059021%, 34.899902%)" d="M 110.421875 185.464844 C 99.621094 185.390625 97.691406 184.097656 97.609375 168.078125 C 97.605469 167.671875 97.277344 167.34375 96.878906 167.34375 C 96.476562 167.34375 96.152344 167.671875 96.148438 168.078125 C 96.066406 184.097656 94.136719 185.394531 83.335938 185.464844 C 82.851562 185.46875 82.457031 185.863281 82.457031 186.347656 C 82.457031 186.832031 82.851562 187.230469 83.335938 187.230469 C 94.136719 187.304688 96.066406 188.597656 96.148438 204.621094 C 96.152344 205.023438 96.476562 205.351562 96.878906 205.351562 C 97.277344 205.351562 97.605469 205.023438 97.609375 204.621094 C 97.691406 188.597656 99.621094 187.304688 110.421875 187.234375 C 110.90625 187.230469 111.300781 186.832031 111.300781 186.347656 C 111.300781 185.867188 110.90625 185.46875 110.421875 185.464844 Z M 110.421875 185.464844 " fill-opacity="1" fill-rule="nonzero"/></g><g clip-path="url(#id14)"><path fill="rgb(100%, 87.059021%, 34.899902%)" d="M 142.699219 172.191406 C 134.835938 172.136719 133.292969 171.105469 133.230469 159.390625 C 133.230469 159.167969 133.054688 158.992188 132.835938 158.992188 C 132.617188 158.992188 132.441406 159.167969 132.4375 159.390625 C 132.378906 171.105469 130.832031 172.136719 122.972656 172.191406 C 122.691406 172.191406 122.464844 172.417969 122.464844 172.699219 C 122.464844 172.976562 122.691406 173.203125 122.972656 173.207031 C 130.835938 173.257812 132.378906 174.289062 132.4375 186.007812 C 132.441406 186.226562 132.617188 186.40625 132.835938 186.40625 C 133.054688 186.40625 133.230469 186.226562 133.230469 186.007812 C 133.292969 174.289062 134.839844 173.257812 142.699219 173.207031 C 142.980469 173.203125 143.207031 172.976562 143.207031 172.699219 C 143.207031 172.417969 142.980469 172.191406 142.699219 172.191406 Z M 142.699219 172.191406 " fill-opacity="1" fill-rule="nonzero"/></g><path fill="rgb(100%, 87.059021%, 34.899902%)" d="M 122.277344 193.328125 C 121.78125 194.785156 120.9375 195.878906 119.839844 196.46875 C 120.9375 197.0625 121.78125 198.152344 122.277344 199.613281 C 122.773438 198.152344 123.617188 197.0625 124.714844 196.46875 C 123.617188 195.878906 122.773438 194.785156 122.277344 193.328125 Z M 122.277344 193.328125 " fill-opacity="1" fill-rule="nonzero"/><path fill="rgb(100%, 87.059021%, 34.899902%)" d="M 107.90625 169.988281 C 108.398438 168.527344 109.242188 167.4375 110.339844 166.84375 C 109.242188 166.253906 108.398438 165.160156 107.90625 163.703125 C 107.410156 165.160156 106.566406 166.253906 105.46875 166.84375 C 106.566406 167.4375 107.410156 168.527344 107.90625 169.988281 Z M 107.90625 169.988281 " fill-opacity="1" fill-rule="nonzero"/><g clip-path="url(#id15)"><g clip-path="url(#id16)"><g clip-path="url(#id17)"><path fill="rgb(30.198669%, 100%, 0%)" d="M 43.519531 266.453125 C 36.832031 262.992188 24.941406 251.203125 25.289062 247.886719 C 25.730469 243.691406 31.808594 236.871094 33.75 232.917969 C 36.691406 226.925781 38.425781 220.171875 38.058594 213.46875 C 37.539062 203.964844 34.535156 194.714844 34.457031 185.164062 C 34.441406 182.96875 34.316406 180.621094 34.875 178.476562 C 35.082031 177.683594 35.40625 176.695312 36.230469 176.332031 C 36.851562 176.058594 37.507812 176.175781 38.089844 176.476562 C 38.503906 176.691406 38.875 176.996094 39.167969 177.324219 C 40.808594 179.152344 41.664062 181.660156 42.496094 183.925781 C 46.0625 193.664062 47.824219 203.648438 54.667969 211.808594 C 61.789062 220.300781 71.5 226.195312 77.304688 229.199219 C 79.214844 230.1875 80.703125 230.863281 81.53125 231.210938 C 83.238281 231.929688 85.011719 232.6875 86.5 233.457031 C 86.878906 233.65625 87.242188 233.851562 87.582031 234.050781 C 88.300781 234.175781 89.046875 234.292969 89.828125 234.40625 C 95.597656 235.242188 108.820312 236.570312 121.128906 229.585938 C 122.265625 228.941406 123.640625 228.835938 124.652344 229.359375 C 125.324219 229.707031 125.835938 230.332031 126.003906 231.265625 C 126.597656 234.453125 123.257812 237.632812 121.15625 239.882812 C 117.277344 244.035156 113.886719 247.054688 109.753906 250.925781 C 101.304688 258.832031 94.726562 280.089844 92.53125 282.6875 C 91.101562 284.378906 75.335938 282.277344 68.617188 278.804688 C 67.417969 278.183594 66.511719 277.523438 66.023438 276.832031 C 65.914062 276.679688 65.824219 276.523438 65.757812 276.363281 C 65.054688 274.683594 69.8125 264.507812 71.027344 259.476562 C 71.363281 258.085938 71.632812 256.648438 71.769531 255.203125 C 71.921875 253.578125 71.910156 251.941406 71.636719 250.351562 C 71.382812 248.886719 70.90625 247.460938 70.140625 246.117188 C 69.546875 245.085938 68.898438 244.117188 68.199219 243.203125 C 67.785156 243.359375 67.375 243.527344 66.964844 243.714844 C 65.953125 244.175781 65.023438 244.753906 64.148438 245.40625 C 62.445312 246.6875 60.96875 248.28125 59.59375 249.949219 C 58.679688 251.050781 57.8125 252.1875 56.953125 253.28125 C 53.167969 258.113281 49.042969 266.148438 47.296875 267.214844 C 47.253906 267.238281 47.214844 267.261719 47.175781 267.277344 C 46.40625 267.621094 45.109375 267.269531 43.519531 266.449219 Z M 66.765625 213.730469 C 62.609375 211.578125 60.988281 206.449219 63.144531 202.285156 C 65.300781 198.117188 70.421875 196.476562 74.578125 198.628906 C 78.734375 200.777344 80.359375 205.90625 78.203125 210.074219 C 76.046875 214.242188 70.921875 215.878906 66.765625 213.730469 Z M 93.726562 227.953125 C 89.570312 225.804688 87.949219 220.675781 90.105469 216.507812 C 92.257812 212.339844 97.382812 210.703125 101.539062 212.851562 C 105.695312 215 107.320312 220.132812 105.164062 224.296875 C 103.007812 228.464844 97.882812 230.105469 93.726562 227.953125 Z M 93.726562 227.953125 " fill-opacity="1" fill-rule="nonzero"/></g></g></g><g clip-path="url(#id18)"><g clip-path="url(#id19)"><g clip-path="url(#id20)"><path fill="rgb(100%, 100%, 100%)" d="M 109.796875 160.757812 C 86.71875 146.496094 57.523438 150.460938 38.917969 168.660156 C 57.277344 155.972656 82.09375 154.519531 102.253906 166.972656 C 113.871094 174.152344 122.046875 184.789062 126.296875 196.746094 C 127.183594 199.234375 130.011719 200.414062 132.421875 199.328125 C 134.503906 198.386719 135.550781 196.046875 134.914062 193.847656 C 131.0625 180.554688 122.484375 168.59375 109.796875 160.757812 Z M 109.796875 160.757812 " fill-opacity="1" fill-rule="nonzero"/></g></g></g><g clip-path="url(#id21)"><g clip-path="url(#id22)"><g clip-path="url(#id23)"><path fill="rgb(100%, 100%, 100%)" d="M 140.035156 203.195312 L 139.542969 208.328125 C 139.515625 208.617188 139.632812 208.902344 139.851562 209.089844 L 143.792969 212.394531 C 144.355469 212.867188 144.132812 213.777344 143.417969 213.9375 L 138.394531 215.066406 C 138.109375 215.132812 137.875 215.328125 137.765625 215.597656 L 135.835938 220.382812 C 135.558594 221.0625 134.625 221.132812 134.253906 220.503906 L 131.644531 216.070312 C 131.496094 215.816406 131.238281 215.65625 130.941406 215.636719 L 125.808594 215.285156 C 125.078125 215.234375 124.722656 214.367188 125.210938 213.820312 L 128.621094 209.949219 C 128.8125 209.730469 128.886719 209.433594 128.816406 209.152344 L 127.574219 204.152344 C 127.398438 203.4375 128.113281 202.832031 128.78125 203.121094 L 133.503906 205.167969 C 133.769531 205.28125 134.078125 205.257812 134.324219 205.105469 L 138.6875 202.367188 C 139.308594 201.976562 140.105469 202.46875 140.035156 203.199219 Z M 140.035156 203.195312 " fill-opacity="1" fill-rule="nonzero"/></g></g></g><g fill="rgb(21.958923%, 44.309998%, 75.689697%)" fill-opacity="1"><g transform="translate(14.293262, 171.724209)"><g><path d="M 14.542969 -1.492188 C 19.871094 -3.257812 24.726562 -8.03125 26.59375 -14.667969 C 27.132812 -16.691406 25.871094 -18.4375 23.921875 -18.742188 C 22.132812 -19.046875 20.753906 -17.957031 20.226562 -16.199219 C 18.953125 -11.765625 15.539062 -8.683594 12.542969 -7.691406 C 8.644531 -6.398438 4.957031 -8.925781 3.351562 -13.773438 C -0.238281 -24.617188 6.351562 -34.664062 14.34375 -37.308594 C 15.53125 -37.703125 16.863281 -37.828125 18.222656 -37.699219 C 20.171875 -37.550781 21.550781 -38.800781 21.933594 -40.351562 C 22.367188 -42.078125 21.277344 -43.933594 19.203125 -44.144531 C 16.699219 -44.371094 14.355469 -44.121094 12.167969 -43.398438 C 0.753906 -39.617188 -7.585938 -26.085938 -2.828125 -11.726562 C -0.105469 -3.5 6.890625 1.042969 14.542969 -1.492188 Z M 14.542969 -1.492188 "/></g></g></g><g fill="rgb(21.958923%, 44.309998%, 75.689697%)" fill-opacity="1"><g transform="translate(46.180108, 161.151459)"><g><path d="M 17.8125 -1.019531 C 25.851562 -3.140625 30.089844 -11.824219 27.460938 -20.402344 C 25.140625 -28.027344 18.15625 -32.507812 11.179688 -30.667969 C 10.988281 -30.617188 10.792969 -30.5625 10.613281 -30.464844 C 9.882812 -31.464844 8.476562 -32.078125 6.832031 -31.644531 C -0.484375 -29.714844 -4.21875 -21.886719 -1.996094 -13.460938 C 0.46875 -4.113281 8.949219 1.316406 17.8125 -1.019531 Z M 4.300781 -15.121094 C 2.96875 -20.160156 4.8125 -24.375 8.492188 -25.347656 C 8.78125 -25.421875 9.023438 -25.488281 9.253906 -25.597656 C 9.886719 -24.574219 11.148438 -23.921875 12.84375 -24.371094 C 16.328125 -25.289062 19.933594 -22.820312 21.214844 -18.550781 C 22.777344 -13.417969 20.558594 -8.480469 16.148438 -7.316406 C 10.820312 -5.910156 5.859375 -9.214844 4.300781 -15.121094 Z M 4.300781 -15.121094 "/></g></g></g><g fill="rgb(21.958923%, 44.309998%, 75.689697%)" fill-opacity="1"><g transform="translate(77.290104, 152.721286)"><g><path d="M 6.375 -0.804688 C 8.109375 -1.335938 9.175781 -3.222656 8.832031 -5.042969 C 6.671875 -16.410156 9.324219 -24.71875 12.621094 -25.34375 C 15.425781 -25.878906 15.929688 -17.867188 17.121094 -6.773438 C 17.292969 -5.328125 18.273438 -3.933594 20.285156 -4.058594 C 22.15625 -4.160156 23.660156 -5.617188 23.464844 -7.46875 C 22.476562 -16.40625 23.851562 -27.425781 28.574219 -28.324219 C 29.65625 -28.53125 30.382812 -28.210938 30.722656 -26.695312 C 31.472656 -23.265625 30.808594 -15.492188 31.886719 -9.832031 C 32.277344 -7.765625 33.757812 -6.417969 35.777344 -6.800781 C 37.449219 -7.117188 38.75 -8.589844 38.335938 -10.242188 C 37.121094 -15.011719 37.8125 -22.382812 37.144531 -26.691406 C 36.15625 -32.976562 33.363281 -35.863281 27.949219 -34.835938 C 24.457031 -34.171875 22.035156 -31.621094 20.191406 -27.90625 C 18.6875 -29.914062 15.933594 -32.601562 11.40625 -31.742188 C 7.371094 -30.972656 5.152344 -26.015625 4.414062 -21.847656 C 4.128906 -22.8125 3.625 -25.726562 3.363281 -27.101562 C 3.101562 -28.480469 1.589844 -29.46875 0.0625 -29.179688 C -1.808594 -28.824219 -3.058594 -27.359375 -2.722656 -25.332031 C -1.273438 -16.636719 0.976562 -8.546875 2.601562 -2.941406 C 2.898438 -1.925781 4.007812 -0.0976562 6.375 -0.804688 Z M 6.375 -0.804688 "/></g></g></g><g fill="rgb(21.958923%, 44.309998%, 75.689697%)" fill-opacity="1"><g transform="translate(119.016686, 144.946772)"><g><path d="M 5.804688 10.207031 L 5.851562 10.199219 C 7.695312 9.980469 8.996094 8.617188 8.960938 6.652344 C 8.894531 3.535156 8.945312 0.550781 9.078125 -2.136719 C 11.058594 0.0976562 13.792969 1.035156 17.429688 0.652344 C 24.996094 -0.195312 30.257812 -8.992188 29.144531 -18.34375 C 28.128906 -26.902344 23.078125 -33.3125 16.664062 -32.550781 C 12.136719 -32.011719 8.726562 -28.882812 6.347656 -23.40625 C 5.804688 -25.003906 4.1875 -25.871094 2.523438 -25.472656 C 0.703125 -25.054688 -0.269531 -23.476562 0.0507812 -21.648438 C 1.328125 -14.28125 1.878906 -4.5625 2.347656 7.035156 C 2.425781 8.941406 3.914062 10.429688 5.804688 10.207031 Z M 9.851562 -10.90625 C 11.15625 -20.292969 13.851562 -25.65625 17.429688 -26.082031 C 19.570312 -26.335938 22.066406 -22.75 22.679688 -17.578125 C 23.359375 -11.855469 20.453125 -6.164062 16.761719 -5.824219 C 14.714844 -5.632812 13.652344 -6.113281 12.832031 -8.335938 C 12.25 -9.828125 11.21875 -10.867188 9.851562 -10.90625 Z M 9.851562 -10.90625 "/></g></g></g><g fill="rgb(21.958923%, 44.309998%, 75.689697%)" fill-opacity="1"><g transform="translate(150.508789, 141.168767)"><g><path d="M 11.0625 2.96875 C 16.011719 2.679688 19.636719 -1.445312 22.996094 -9.21875 C 23.234375 -7.726562 23.515625 -6.335938 23.839844 -5.101562 C 24.519531 -2.882812 27.007812 -2.375 28.933594 -3.742188 C 30.089844 -4.5625 30.320312 -5.832031 29.988281 -7.167969 C 29.070312 -10.925781 28.800781 -18.136719 29.609375 -24.90625 C 29.945312 -27.734375 29.011719 -29.988281 27.136719 -30.332031 C 25.871094 -30.507812 24.644531 -30.035156 23.949219 -29.042969 C 23.675781 -29.429688 23.347656 -29.859375 22.878906 -30.183594 C 21.042969 -31.53125 18.957031 -32.011719 16.707031 -31.882812 C 8.457031 -31.402344 0.429688 -18.488281 1.074219 -7.386719 C 1.4375 -1.136719 5.460938 3.292969 11.0625 2.96875 Z M 7.574219 -7.765625 C 7.152344 -15.066406 12.785156 -25.132812 17.085938 -25.382812 C 18.085938 -25.441406 18.765625 -24.976562 19.59375 -24.574219 C 20.417969 -24.171875 21.484375 -23.980469 22.464844 -24.339844 C 19.070312 -12.902344 13.832031 -3.714844 10.683594 -3.53125 C 8.984375 -3.433594 7.738281 -4.964844 7.574219 -7.765625 Z M 7.574219 -7.765625 "/></g></g></g><g fill="rgb(21.958923%, 44.309998%, 75.689697%)" fill-opacity="1"><g transform="translate(182.888943, 139.421194)"><g><path d="M 5.964844 0.246094 C 7.613281 -0.0195312 8.652344 -1.382812 8.636719 -3.136719 C 8.527344 -14.957031 12.796875 -19.105469 17.285156 -21.5 C 18.980469 -22.417969 19.515625 -24.027344 18.898438 -25.722656 C 18.28125 -27.46875 16.523438 -28.003906 14.523438 -27.386719 C 12.375 -26.714844 10.4375 -25.242188 8.753906 -23.175781 L 8.796875 -23.625 C 8.984375 -25.332031 7.964844 -26.972656 5.960938 -27.257812 C 4.152344 -27.539062 2.511719 -26.324219 2.328125 -24.316406 C 1.789062 -17.75 1.878906 -8.183594 2.078125 -2.824219 C 2.148438 -0.722656 3.914062 0.566406 5.964844 0.246094 Z M 5.964844 0.246094 "/></g></g></g><g fill="rgb(21.958923%, 44.309998%, 75.689697%)" fill-opacity="1"><g transform="translate(202.676785, 139.195038)"><g><path d="M 12.675781 1.792969 C 13.726562 1.828125 14.984375 1.613281 16.199219 1.203125 C 18.074219 0.609375 19.535156 -1.300781 18.847656 -3.378906 C 18.292969 -4.898438 17.015625 -5.738281 15.191406 -5.09375 C 14.535156 -4.863281 14.125 -4.675781 13.324219 -4.699219 C 11.921875 -4.742188 11.425781 -6.511719 11.5 -8.816406 C 11.59375 -11.972656 11.910156 -15.71875 12.492188 -19.910156 C 15.550781 -19.917969 18.65625 -19.871094 20.5625 -19.964844 C 22.46875 -20.054688 23.816406 -21.515625 23.726562 -23.375 C 23.632812 -25.230469 22.21875 -26.578125 20.3125 -26.484375 C 18.65625 -26.386719 16.152344 -26.414062 13.492188 -26.394531 L 14.101562 -29.835938 C 14.460938 -31.726562 13.410156 -33.363281 11.566406 -33.722656 C 9.722656 -34.078125 8.082031 -32.925781 7.722656 -31.035156 C 7.421875 -29.390625 7.121094 -27.796875 6.875 -26.25 C 6.070312 -26.222656 5.367188 -26.144531 4.714844 -26.066406 C 2.550781 -25.78125 1.34375 -24.015625 1.78125 -22.046875 C 2.179688 -20.28125 3.707031 -19.382812 5.515625 -19.625 L 5.871094 -19.664062 C 5.398438 -15.71875 5.085938 -12.121094 4.988281 -9.015625 C 4.808594 -3.160156 6.917969 1.617188 12.675781 1.792969 Z M 12.675781 1.792969 "/></g></g></g><g fill="rgb(21.958923%, 44.309998%, 75.689697%)" fill-opacity="1"><g transform="translate(225.666349, 139.988821)"><g><path d="M 5.972656 2.386719 C 7.84375 2.15625 8.949219 0.570312 8.765625 -1.300781 C 8.105469 -8.269531 8.589844 -13.507812 10.375 -19.519531 C 10.886719 -21.242188 10.039062 -22.902344 8.320312 -23.515625 C 6.550781 -24.128906 4.738281 -23.238281 4.164062 -21.320312 C 2.128906 -14.570312 1.636719 -8.378906 2.296875 -0.605469 C 2.46875 1.410156 4.101562 2.621094 5.972656 2.386719 Z M 6.960938 -31.378906 C 4.894531 -30.40625 6.128906 -26.964844 9.25 -27.070312 C 11.710938 -27.113281 13.542969 -29.105469 14.019531 -31.03125 C 14.558594 -33.207031 11.851562 -34.835938 10.023438 -33.746094 C 8.5625 -32.886719 8.464844 -32.089844 6.960938 -31.378906 Z M 6.960938 -31.378906 "/></g></g></g><g fill="rgb(21.958923%, 44.309998%, 75.689697%)" fill-opacity="1"><g transform="translate(237.24363, 140.527127)"><g><path d="M 12.574219 4.066406 C 16.660156 4.488281 19.757812 3.75 23.710938 1.039062 C 25.390625 -0.0976562 25.652344 -2.136719 24.5 -3.664062 C 23.394531 -5.140625 21.5 -5.335938 19.875 -4.242188 C 17.277344 -2.496094 15.632812 -2.164062 13.242188 -2.410156 C 10.601562 -2.683594 8.585938 -5.105469 8.894531 -8.097656 C 8.929688 -8.445312 8.960938 -8.742188 9.046875 -9.085938 L 9.191406 -9.023438 C 19.097656 -5.480469 31.109375 -9.628906 31.945312 -17.753906 C 32.535156 -23.433594 28.46875 -28.433594 22.636719 -29.035156 C 13.269531 -30.003906 3.605469 -20.273438 2.414062 -8.765625 C 1.742188 -2.238281 6.09375 3.398438 12.574219 4.066406 Z M 11.234375 -15.15625 C 13.824219 -19.773438 18.132812 -22.957031 21.96875 -22.558594 C 24.210938 -22.328125 25.683594 -20.511719 25.46875 -18.421875 C 25.113281 -14.984375 17.523438 -13.148438 11.625 -15.066406 C 11.484375 -15.132812 11.332031 -15.144531 11.234375 -15.15625 Z M 11.234375 -15.15625 "/></g></g></g><g fill="rgb(21.958923%, 44.309998%, 75.689697%)" fill-opacity="1"><g transform="translate(267.215133, 143.613114)"><g><path d="M 5.636719 2.828125 C 7.464844 3.121094 9.113281 2.015625 9.421875 0.0859375 C 11.160156 -10.796875 16.671875 -19.25 20.628906 -18.617188 C 23.792969 -18.113281 24.285156 -10.070312 20.914062 -0.414062 C 20.269531 1.414062 20.949219 3.195312 22.65625 3.925781 L 22.707031 3.933594 C 24.417969 4.660156 26.28125 3.792969 26.984375 1.925781 C 32.042969 -12.28125 30.015625 -23.714844 21.65625 -25.050781 C 18.09375 -25.617188 14.171875 -23.605469 12.050781 -20.496094 L 12.289062 -23.25 C 12.417969 -24.699219 11.140625 -25.917969 9.296875 -26.109375 C 7.449219 -26.304688 5.933594 -25.074219 5.734375 -23.179688 C 5.265625 -18.03125 4.496094 -11.304688 3.097656 -2.246094 C 2.5625 1.425781 3.753906 2.527344 5.636719 2.828125 Z M 5.636719 2.828125 "/></g></g></g><g fill="rgb(21.958923%, 44.309998%, 75.689697%)" fill-opacity="1"><g transform="translate(295.872192, 148.130774)"><g><path d="M 13.082031 6.296875 C 16.265625 6.992188 19.9375 5.898438 22.949219 3.378906 C 23.351562 4.132812 24.097656 4.707031 25.035156 4.859375 C 26.859375 5.207031 28.539062 4.085938 28.859375 2.15625 L 28.878906 2.058594 C 31.386719 -11.289062 34.488281 -20.300781 37.554688 -28.707031 C 38.195312 -30.464844 37.402344 -32.226562 35.65625 -32.917969 C 33.910156 -33.605469 32.085938 -32.773438 31.4375 -30.96875 C 30.226562 -27.539062 29.03125 -23.957031 27.871094 -20.054688 C 26.429688 -23.089844 24.246094 -25.054688 21.261719 -25.707031 C 13.285156 -27.449219 6.207031 -21.359375 3.960938 -11.082031 C 2.195312 -3.007812 5.839844 4.710938 13.082031 6.296875 Z M 10.324219 -9.691406 C 11.8125 -16.492188 15.710938 -20.253906 19.871094 -19.34375 C 22.5625 -18.757812 24.628906 -14.148438 23.570312 -4.84375 C 22.503906 -4.667969 21.488281 -3.761719 20.8125 -2.78125 C 19.238281 -0.511719 16.675781 0.417969 14.472656 -0.0664062 C 11 -0.824219 9.316406 -5.089844 10.324219 -9.691406 Z M 10.324219 -9.691406 "/></g></g></g><g fill="rgb(21.958923%, 44.309998%, 75.689697%)" fill-opacity="1"><g transform="translate(326.623746, 154.815594)"><g><path d="M 15.859375 8.175781 C 23.859375 10.433594 31.921875 5.113281 34.019531 -3.613281 C 35.898438 -11.359375 32.160156 -18.765625 25.21875 -20.726562 C 25.023438 -20.78125 24.832031 -20.835938 24.625 -20.839844 C 24.503906 -22.074219 23.605469 -23.316406 21.964844 -23.777344 C 14.6875 -25.832031 7.492188 -20.996094 5.121094 -12.605469 C 2.496094 -3.304688 7.035156 5.683594 15.859375 8.175781 Z M 11.390625 -10.835938 C 12.804688 -15.851562 16.53125 -18.546875 20.195312 -17.511719 C 20.484375 -17.429688 20.726562 -17.363281 20.980469 -17.339844 C 21.007812 -16.136719 21.757812 -14.9375 23.445312 -14.460938 C 26.917969 -13.480469 28.765625 -9.519531 27.699219 -5.191406 C 26.4375 0.0234375 22.015625 3.144531 17.628906 1.90625 C 12.324219 0.410156 9.726562 -4.957031 11.390625 -10.835938 Z M 11.390625 -10.835938 "/></g></g></g><g fill="rgb(21.958923%, 44.309998%, 75.689697%)" fill-opacity="1"><g transform="translate(357.842626, 163.72243)"><g/></g></g><g fill="rgb(25.489807%, 75.689697%, 72.938538%)" fill-opacity="1"><g transform="translate(188.464198, 280.83733)"><g/></g></g><g fill="rgb(83.918762%, 11.369324%, 11.369324%)" fill-opacity="1"><g transform="translate(131.540334, 252.127505)"><g><path d="M 9.421875 3.367188 C 10.871094 2.707031 11.570312 1.261719 11.25 -0.523438 C 10.789062 -3.300781 10.691406 -6.605469 10.878906 -9.867188 C 16.9375 -9.945312 23.699219 -10.210938 27.449219 -10.046875 C 29.324219 -9.964844 30.761719 -11.203125 30.980469 -13.011719 C 31.238281 -15.101562 29.871094 -16.65625 27.761719 -16.773438 C 24.003906 -16.890625 17.539062 -16.675781 11.488281 -16.644531 C 11.644531 -18.027344 11.832031 -19.304688 12.039062 -20.386719 C 12.9375 -25.527344 16.910156 -28.523438 26.519531 -27.113281 C 28.652344 -26.800781 30.9375 -26.222656 33.289062 -25.441406 C 35.230469 -24.820312 36.992188 -25.625 37.6875 -27.40625 C 38.394531 -29.238281 37.5 -31.0625 35.574219 -31.78125 C 32.824219 -32.8125 30.199219 -33.394531 27.640625 -33.769531 C 14.761719 -35.660156 6.667969 -32.25 5.230469 -22.449219 C 4.257812 -15.820312 3.429688 -6.21875 4.808594 1.1875 C 5.183594 3.226562 7.402344 4.277344 9.421875 3.367188 Z M 9.421875 3.367188 "/></g></g></g><g fill="rgb(83.918762%, 11.369324%, 11.369324%)" fill-opacity="1"><g transform="translate(166.838589, 257.063147)"><g><path d="M 12.285156 2.902344 C 16.210938 2.988281 19.101562 2.046875 22.660156 -0.839844 C 24.171875 -2.054688 24.261719 -4.011719 23.046875 -5.378906 C 21.878906 -6.699219 20.0625 -6.738281 18.601562 -5.574219 C 16.261719 -3.710938 14.71875 -3.265625 12.421875 -3.316406 C 9.886719 -3.371094 7.78125 -5.523438 7.84375 -8.394531 C 7.851562 -8.730469 7.859375 -9.019531 7.914062 -9.351562 L 8.054688 -9.300781 C 17.761719 -6.695312 28.878906 -11.570312 29.050781 -19.371094 C 29.171875 -24.824219 24.914062 -29.273438 19.316406 -29.398438 C 10.320312 -29.59375 1.867188 -19.585938 1.625 -8.53125 C 1.484375 -2.265625 6.066406 2.765625 12.285156 2.902344 Z M 9.527344 -15.300781 C 11.640625 -19.898438 15.496094 -23.257812 19.179688 -23.175781 C 21.332031 -23.128906 22.875 -21.515625 22.832031 -19.507812 C 22.757812 -16.207031 15.671875 -13.871094 9.910156 -15.242188 C 9.765625 -15.292969 9.625 -15.296875 9.527344 -15.300781 Z M 9.527344 -15.300781 "/></g></g></g><g fill="rgb(83.918762%, 11.369324%, 11.369324%)" fill-opacity="1"><g transform="translate(197.540017, 257.335937)"><g><path d="M 6.78125 1.183594 C 8.472656 0.605469 9.199219 -0.878906 8.8125 -2.582031 C 6.953125 -10.523438 6.582031 -23.398438 7.941406 -32.875 C 8.175781 -34.566406 7.40625 -36.246094 5.417969 -36.65625 C 3.667969 -37.035156 2.054688 -35.933594 1.78125 -34.046875 C 0.332031 -23.703125 0.714844 -9.871094 2.769531 -1.027344 C 3.214844 0.867188 5.042969 1.765625 6.78125 1.183594 Z M 6.78125 1.183594 "/></g></g></g><g fill="rgb(83.918762%, 11.369324%, 11.369324%)" fill-opacity="1"><g transform="translate(210.028511, 256.582923)"><g><path d="M 6.007812 1.292969 C 7.734375 0.777344 8.519531 -0.894531 8.050781 -2.625 C 6.3125 -9.082031 5.929688 -14.097656 6.652344 -20.042969 C 6.859375 -21.75 5.792969 -23.175781 4.078125 -23.476562 C 2.316406 -23.773438 0.75 -22.648438 0.515625 -20.746094 C -0.320312 -14.066406 0.203125 -8.152344 2.066406 -0.9375 C 2.550781 0.933594 4.28125 1.8125 6.007812 1.292969 Z M 1.542969 -30.671875 C -0.25 -29.421875 1.464844 -26.378906 4.386719 -26.976562 C 6.699219 -27.410156 8.105469 -29.578125 8.246094 -31.46875 C 8.40625 -33.605469 5.59375 -34.703125 4.050781 -33.386719 C 2.8125 -32.34375 2.84375 -31.578125 1.542969 -30.671875 Z M 1.542969 -30.671875 "/></g></g></g><g fill="rgb(83.918762%, 11.369324%, 11.369324%)" fill-opacity="1"><g transform="translate(222.658092, 255.484303)"><g><path d="M 12.234375 1.25 C 16.003906 0.570312 18.65625 -1.703125 20.460938 -5.726562 C 21.296875 -7.578125 20.234375 -9.429688 18.394531 -9.921875 C 16.808594 -10.367188 15.402344 -9.53125 14.667969 -7.941406 C 13.792969 -6.03125 12.6875 -5.152344 11.132812 -4.871094 C 9.015625 -4.492188 6.417969 -7.574219 5.652344 -11.8125 C 4.570312 -17.839844 7.984375 -24 11.515625 -24.636719 C 12.644531 -24.839844 13.667969 -24.292969 14.527344 -23.039062 C 15.714844 -21.304688 16.703125 -20.949219 18.550781 -21.476562 C 20.214844 -21.96875 21.179688 -23.894531 20.171875 -25.707031 C 18.078125 -29.511719 14.511719 -31.496094 10.414062 -30.757812 C 3.300781 -29.476562 -2.148438 -20.035156 -0.46875 -10.710938 C 0.878906 -3.222656 6.253906 2.328125 12.234375 1.25 Z M 12.234375 1.25 "/></g></g></g><g fill="rgb(83.918762%, 11.369324%, 11.369324%)" fill-opacity="1"><g transform="translate(249.234757, 250.394443)"><g><path d="M 6.132812 0.402344 C 7.761719 -0.363281 8.296875 -2.132812 7.578125 -3.777344 C 4.914062 -9.910156 3.804688 -14.8125 3.648438 -20.800781 C 3.601562 -22.519531 2.339844 -23.777344 0.597656 -23.824219 C -1.1875 -23.855469 -2.574219 -22.511719 -2.527344 -20.597656 C -2.378906 -13.867188 -0.992188 -8.09375 1.90625 -1.230469 C 2.660156 0.550781 4.5 1.167969 6.132812 0.402344 Z M -2.960938 -30.566406 C -4.554688 -29.070312 -2.410156 -26.308594 0.390625 -27.328125 C 2.613281 -28.09375 3.691406 -30.445312 3.550781 -32.339844 C 3.394531 -34.472656 0.457031 -35.148438 -0.882812 -33.621094 C -1.953125 -32.40625 -1.808594 -31.652344 -2.960938 -30.566406 Z M -2.960938 -30.566406 "/></g></g></g><g fill="rgb(83.918762%, 11.369324%, 11.369324%)" fill-opacity="1"><g transform="translate(261.737818, 247.544085)"><g><path d="M 13.800781 -1.402344 C 16.738281 -2.421875 19.1875 -5.148438 20.382812 -8.703125 C 21.082031 -8.289062 21.976562 -8.195312 22.820312 -8.539062 C 24.476562 -9.164062 25.289062 -10.917969 24.585938 -12.648438 L 24.554688 -12.738281 C 19.933594 -24.863281 17.960938 -33.753906 16.265625 -42.132812 C 15.910156 -43.882812 14.382812 -44.921875 12.617188 -44.613281 C 10.847656 -44.300781 9.777344 -42.714844 10.148438 -40.917969 C 10.875 -37.523438 11.691406 -34.007812 12.691406 -30.25 C 10.007812 -32 7.246094 -32.511719 4.488281 -31.554688 C -2.882812 -28.992188 -5.601562 -20.496094 -2.304688 -11.003906 C 0.289062 -3.546875 7.109375 0.921875 13.800781 -1.402344 Z M 3.574219 -13.046875 C 1.390625 -19.328125 2.6875 -24.339844 6.53125 -25.675781 C 9.015625 -26.539062 13 -23.820312 16.78125 -15.710938 C 16.003906 -15.035156 15.625 -13.789062 15.5625 -12.652344 C 15.417969 -10.019531 13.792969 -7.984375 11.757812 -7.277344 C 8.546875 -6.164062 5.050781 -8.796875 3.574219 -13.046875 Z M 3.574219 -13.046875 "/></g></g></g><g fill="rgb(83.918762%, 11.369324%, 11.369324%)" fill-opacity="1"><g transform="translate(292.559685, 236.744282)"><g><path d="M 10.839844 -1.484375 C 15.09375 -3.574219 16.753906 -8.550781 16.835938 -16.640625 C 17.597656 -15.414062 18.359375 -14.296875 19.101562 -13.328125 C 20.523438 -11.625 22.902344 -12.101562 24.09375 -14.019531 C 24.808594 -15.167969 24.539062 -16.371094 23.753906 -17.425781 C 21.546875 -20.394531 18.640625 -26.640625 16.84375 -32.90625 C 16.089844 -35.523438 14.433594 -37.160156 12.652344 -36.765625 C 11.476562 -36.453125 10.570312 -35.582031 10.324219 -34.449219 C 9.941406 -34.6875 9.496094 -34.949219 8.960938 -35.058594 C 6.84375 -35.566406 4.832031 -35.214844 2.898438 -34.265625 C -4.191406 -30.785156 -6.476562 -16.441406 -1.792969 -6.90625 C 0.84375 -1.535156 6.03125 0.878906 10.839844 -1.484375 Z M 3.792969 -9.648438 C 0.710938 -15.917969 1.945312 -26.867188 5.640625 -28.683594 C 6.5 -29.105469 7.269531 -28.949219 8.144531 -28.898438 C 9.023438 -28.851562 10.03125 -29.078125 10.761719 -29.757812 C 12.011719 -18.429688 10.804688 -8.398438 8.097656 -7.070312 C 6.636719 -6.351562 4.972656 -7.242188 3.792969 -9.648438 Z M 3.792969 -9.648438 "/></g></g></g><g fill="rgb(83.918762%, 11.369324%, 11.369324%)" fill-opacity="1"><g transform="translate(322.501624, 221.894668)"><g><path d="M 13.050781 -4.695312 C 15.65625 -6.398438 17.375 -9.632812 17.675781 -13.371094 C 18.453125 -13.140625 19.34375 -13.265625 20.082031 -13.800781 C 21.535156 -14.808594 21.898438 -16.703125 20.800781 -18.214844 L 20.746094 -18.296875 C 13.335938 -28.945312 9.269531 -37.09375 5.597656 -44.8125 C 4.832031 -46.425781 3.097656 -47.066406 1.457031 -46.339844 C -0.179688 -45.609375 -0.835938 -43.8125 -0.0429688 -42.15625 C 1.484375 -39.039062 3.125 -35.824219 5.003906 -32.421875 C 1.972656 -33.472656 -0.828125 -33.296875 -3.273438 -31.703125 C -9.804688 -27.4375 -10.390625 -18.535156 -4.894531 -10.121094 C -0.578125 -3.507812 7.121094 -0.824219 13.050781 -4.695312 Z M 0.3125 -13.523438 C -3.324219 -19.09375 -3.277344 -24.269531 0.128906 -26.492188 C 2.332031 -27.933594 6.859375 -26.257812 12.488281 -19.300781 C 11.894531 -18.457031 11.828125 -17.15625 12.042969 -16.039062 C 12.539062 -13.449219 11.453125 -11.082031 9.652344 -9.90625 C 6.804688 -8.046875 2.773438 -9.757812 0.3125 -13.523438 Z M 0.3125 -13.523438 "/></g></g></g><g fill="rgb(83.918762%, 11.369324%, 11.369324%)" fill-opacity="1"><g transform="translate(349.502026, 203.939848)"><g/></g></g><g clip-path="url(#id24)"><g clip-path="url(#id25)"><g clip-path="url(#id26)"><path fill="rgb(83.918762%, 100%, 65.489197%)" d="M 204.28125 179.773438 C 195.019531 174.214844 194.015625 172.121094 202.09375 158.285156 C 202.296875 157.9375 202.183594 157.488281 201.835938 157.28125 C 201.492188 157.078125 201.042969 157.195312 200.835938 157.542969 C 192.617188 171.296875 190.296875 171.429688 180.960938 165.996094 C 180.542969 165.753906 180 165.894531 179.753906 166.308594 C 179.507812 166.726562 179.644531 167.269531 180.0625 167.519531 C 189.324219 173.074219 190.328125 175.167969 182.25 189.003906 C 182.046875 189.355469 182.160156 189.804688 182.503906 190.007812 C 182.851562 190.210938 183.300781 190.09375 183.507812 189.75 C 191.726562 175.996094 194.046875 175.863281 203.382812 181.292969 C 203.800781 181.539062 204.34375 181.398438 204.589844 180.980469 C 204.835938 180.566406 204.699219 180.023438 204.28125 179.773438 Z M 204.28125 179.773438 " fill-opacity="1" fill-rule="nonzero"/></g></g></g><g clip-path="url(#id27)"><g clip-path="url(#id28)"><g clip-path="url(#id29)"><path fill="rgb(83.918762%, 100%, 65.489197%)" d="M 238.824219 184.761719 C 232.082031 180.714844 231.273438 179.042969 237.183594 168.921875 C 237.292969 168.734375 237.230469 168.488281 237.042969 168.378906 C 236.859375 168.269531 236.613281 168.332031 236.5 168.519531 C 230.488281 178.578125 228.632812 178.679688 221.839844 174.726562 C 221.597656 174.585938 221.285156 174.667969 221.144531 174.90625 C 221.003906 175.144531 221.082031 175.457031 221.324219 175.601562 C 228.066406 179.644531 228.871094 181.320312 222.964844 191.4375 C 222.851562 191.628906 222.914062 191.871094 223.101562 191.980469 C 223.289062 192.09375 223.53125 192.027344 223.644531 191.839844 C 229.65625 181.78125 231.511719 181.679688 238.308594 185.632812 C 238.550781 185.773438 238.859375 185.695312 239.003906 185.453125 C 239.144531 185.214844 239.0625 184.902344 238.824219 184.761719 Z M 238.824219 184.761719 " fill-opacity="1" fill-rule="nonzero"/></g></g></g><g clip-path="url(#id30)"><g clip-path="url(#id31)"><g clip-path="url(#id32)"><path fill="rgb(83.918762%, 100%, 65.489197%)" d="M 210.488281 192.570312 C 209.320312 193.578125 208.039062 194.085938 206.792969 194.039062 C 207.4375 195.105469 207.609375 196.476562 207.292969 197.984375 C 208.460938 196.980469 209.742188 196.46875 210.988281 196.515625 C 210.34375 195.449219 210.171875 194.082031 210.488281 192.570312 Z M 210.488281 192.570312 " fill-opacity="1" fill-rule="nonzero"/></g></g></g><g clip-path="url(#id33)"><g clip-path="url(#id34)"><g clip-path="url(#id35)"><path fill="rgb(83.918762%, 100%, 65.489197%)" d="M 209.984375 165.164062 C 211.15625 164.160156 212.4375 163.652344 213.683594 163.699219 C 213.039062 162.632812 212.867188 161.261719 213.183594 159.753906 C 212.015625 160.757812 210.730469 161.269531 209.488281 161.21875 C 210.132812 162.289062 210.300781 163.65625 209.984375 165.164062 Z M 209.984375 165.164062 " fill-opacity="1" fill-rule="nonzero"/></g></g></g><g clip-path="url(#id36)"><path fill="rgb(61.959839%, 77.648926%, 100%)" d="M 269.097656 180.757812 C 260.160156 180.699219 258.566406 179.632812 258.496094 166.453125 C 258.496094 166.121094 258.226562 165.851562 257.894531 165.851562 C 257.5625 165.851562 257.292969 166.121094 257.289062 166.453125 C 257.222656 179.632812 255.628906 180.699219 246.691406 180.757812 C 246.289062 180.761719 245.964844 181.085938 245.964844 181.484375 C 245.964844 181.882812 246.289062 182.207031 246.691406 182.210938 C 255.625 182.269531 257.222656 183.335938 257.289062 196.511719 C 257.292969 196.847656 257.5625 197.117188 257.894531 197.117188 C 258.226562 197.117188 258.496094 196.847656 258.496094 196.515625 C 258.566406 183.335938 260.160156 182.269531 269.097656 182.210938 C 269.496094 182.210938 269.824219 181.882812 269.824219 181.484375 C 269.824219 181.085938 269.496094 180.761719 269.097656 180.757812 Z M 269.097656 180.757812 " fill-opacity="1" fill-rule="nonzero"/></g><g clip-path="url(#id37)"><path fill="rgb(61.959839%, 77.648926%, 100%)" d="M 295.796875 169.839844 C 289.292969 169.796875 288.011719 168.945312 287.964844 159.308594 C 287.964844 159.128906 287.816406 158.980469 287.636719 158.980469 C 287.457031 158.980469 287.308594 159.128906 287.308594 159.308594 C 287.257812 168.945312 285.980469 169.796875 279.476562 169.839844 C 279.246094 169.839844 279.058594 170.027344 279.058594 170.253906 C 279.058594 170.484375 279.246094 170.671875 279.476562 170.671875 C 285.980469 170.714844 287.257812 171.566406 287.308594 181.203125 C 287.308594 181.382812 287.457031 181.53125 287.636719 181.53125 C 287.816406 181.53125 287.964844 181.382812 287.964844 181.203125 C 288.011719 171.5625 289.292969 170.714844 295.796875 170.671875 C 296.027344 170.671875 296.214844 170.484375 296.214844 170.253906 C 296.214844 170.027344 296.027344 169.839844 295.796875 169.839844 Z M 295.796875 169.839844 " fill-opacity="1" fill-rule="nonzero"/></g><path fill="rgb(61.959839%, 77.648926%, 100%)" d="M 278.902344 187.226562 C 278.492188 188.425781 277.792969 189.324219 276.886719 189.808594 C 277.792969 190.296875 278.492188 191.195312 278.902344 192.394531 C 279.3125 191.195312 280.011719 190.296875 280.917969 189.808594 C 280.007812 189.324219 279.3125 188.425781 278.902344 187.226562 Z M 278.902344 187.226562 " fill-opacity="1" fill-rule="nonzero"/><path fill="rgb(61.959839%, 77.648926%, 100%)" d="M 267.015625 168.027344 C 267.421875 166.824219 268.121094 165.925781 269.03125 165.441406 C 268.121094 164.953125 267.421875 164.054688 267.015625 162.855469 C 266.605469 164.054688 265.90625 164.953125 265 165.441406 C 265.90625 165.925781 266.605469 166.824219 267.015625 168.027344 Z M 267.015625 168.027344 " fill-opacity="1" fill-rule="nonzero"/><g clip-path="url(#id38)"><path fill="rgb(94.119263%, 72.938538%, 100%)" d="M 229.421875 213.316406 C 224.089844 213.28125 223.136719 212.632812 223.09375 204.625 C 223.09375 204.421875 222.933594 204.257812 222.734375 204.257812 C 222.539062 204.257812 222.375 204.421875 222.375 204.625 C 222.335938 212.632812 221.382812 213.28125 216.046875 213.316406 C 215.808594 213.320312 215.613281 213.515625 215.613281 213.757812 C 215.613281 214 215.808594 214.199219 216.046875 214.199219 C 221.382812 214.238281 222.335938 214.882812 222.375 222.894531 C 222.375 223.097656 222.539062 223.261719 222.734375 223.261719 C 222.933594 223.261719 223.09375 223.097656 223.09375 222.894531 C 223.136719 214.882812 224.089844 214.238281 229.421875 214.199219 C 229.664062 214.199219 229.855469 214 229.855469 213.757812 C 229.855469 213.515625 229.664062 213.320312 229.421875 213.316406 Z M 229.421875 213.316406 " fill-opacity="1" fill-rule="nonzero"/></g><g clip-path="url(#id39)"><path fill="rgb(94.119263%, 72.938538%, 100%)" d="M 245.363281 206.679688 C 241.480469 206.652344 240.714844 206.136719 240.6875 200.28125 C 240.6875 200.167969 240.597656 200.082031 240.492188 200.082031 C 240.382812 200.082031 240.296875 200.167969 240.296875 200.28125 C 240.265625 206.136719 239.503906 206.652344 235.621094 206.679688 C 235.480469 206.679688 235.371094 206.792969 235.371094 206.933594 C 235.371094 207.074219 235.480469 207.1875 235.621094 207.1875 C 239.503906 207.214844 240.265625 207.730469 240.296875 213.585938 C 240.296875 213.699219 240.382812 213.785156 240.492188 213.785156 C 240.597656 213.785156 240.6875 213.699219 240.6875 213.585938 C 240.714844 207.730469 241.480469 207.214844 245.363281 207.1875 C 245.5 207.1875 245.613281 207.074219 245.613281 206.933594 C 245.613281 206.792969 245.5 206.679688 245.363281 206.679688 Z M 245.363281 206.679688 " fill-opacity="1" fill-rule="nonzero"/></g><path fill="rgb(94.119263%, 72.938538%, 100%)" d="M 235.277344 217.25 C 235.03125 217.976562 234.617188 218.523438 234.074219 218.820312 C 234.617188 219.117188 235.03125 219.660156 235.277344 220.390625 C 235.523438 219.660156 235.9375 219.117188 236.480469 218.820312 C 235.9375 218.523438 235.523438 217.976562 235.277344 217.25 Z M 235.277344 217.25 " fill-opacity="1" fill-rule="nonzero"/><path fill="rgb(94.119263%, 72.938538%, 100%)" d="M 228.179688 205.578125 C 228.425781 204.847656 228.839844 204.300781 229.382812 204.007812 C 228.839844 203.710938 228.425781 203.164062 228.179688 202.433594 C 227.933594 203.164062 227.519531 203.710938 226.976562 204.007812 C 227.519531 204.300781 227.933594 204.847656 228.179688 205.578125 Z M 228.179688 205.578125 " fill-opacity="1" fill-rule="nonzero"/></svg>