<svg xmlns="http://www.w3.org/2000/svg" xmlns:xlink="http://www.w3.org/1999/xlink" width="100" zoomAndPan="magnify" viewBox="0 0 75 30.000001" height="40" preserveAspectRatio="xMidYMid meet" version="1.0"><defs><g/><clipPath id="id1"><path d="M 24 12.023438 L 31.5 12.023438 L 31.5 24.363281 L 24 24.363281 Z M 24 12.023438 " clip-rule="nonzero"/></clipPath><clipPath id="id2"><path d="M 16.257812 12.023438 L 23 12.023438 L 23 24.363281 L 16.257812 24.363281 Z M 16.257812 12.023438 " clip-rule="nonzero"/></clipPath><clipPath id="id3"><path d="M 20 12.023438 L 28 12.023438 L 28 18 L 20 18 Z M 20 12.023438 " clip-rule="nonzero"/></clipPath></defs><g fill="rgb(100%, 100%, 100%)" fill-opacity="1"><g transform="translate(11.379388, 12.658911)"><g><path d="M 2.378906 -0.246094 C 3.25 -0.53125 4.042969 -1.3125 4.347656 -2.398438 C 4.4375 -2.730469 4.230469 -3.015625 3.910156 -3.066406 C 3.617188 -3.113281 3.394531 -2.9375 3.308594 -2.648438 C 3.097656 -1.925781 2.539062 -1.417969 2.050781 -1.257812 C 1.414062 -1.046875 0.8125 -1.460938 0.546875 -2.253906 C -0.0390625 -4.023438 1.039062 -5.667969 2.34375 -6.101562 C 2.539062 -6.164062 2.757812 -6.183594 2.980469 -6.164062 C 3.296875 -6.140625 3.523438 -6.34375 3.585938 -6.597656 C 3.65625 -6.878906 3.480469 -7.183594 3.140625 -7.21875 C 2.730469 -7.253906 2.347656 -7.214844 1.988281 -7.097656 C 0.125 -6.476562 -1.242188 -4.265625 -0.460938 -1.917969 C -0.015625 -0.574219 1.125 0.171875 2.378906 -0.246094 Z M 2.378906 -0.246094 "/></g></g></g><g fill="rgb(100%, 100%, 100%)" fill-opacity="1"><g transform="translate(16.59319, 10.93017)"><g><path d="M 2.914062 -0.167969 C 4.226562 -0.515625 4.917969 -1.933594 4.492188 -3.335938 C 4.109375 -4.582031 2.96875 -5.316406 1.828125 -5.015625 C 1.796875 -5.007812 1.765625 -4.996094 1.734375 -4.980469 C 1.617188 -5.144531 1.386719 -5.246094 1.117188 -5.175781 C -0.078125 -4.859375 -0.691406 -3.578125 -0.328125 -2.199219 C 0.078125 -0.671875 1.464844 0.214844 2.914062 -0.167969 Z M 0.703125 -2.472656 C 0.484375 -3.296875 0.785156 -3.984375 1.386719 -4.144531 C 1.4375 -4.15625 1.476562 -4.167969 1.511719 -4.1875 C 1.617188 -4.019531 1.824219 -3.910156 2.101562 -3.984375 C 2.671875 -4.136719 3.257812 -3.730469 3.46875 -3.03125 C 3.722656 -2.195312 3.363281 -1.386719 2.640625 -1.195312 C 1.769531 -0.964844 0.957031 -1.507812 0.703125 -2.472656 Z M 0.703125 -2.472656 "/></g></g></g><g fill="rgb(100%, 100%, 100%)" fill-opacity="1"><g transform="translate(21.679968, 9.551752)"><g><path d="M 1.042969 -0.132812 C 1.324219 -0.21875 1.5 -0.527344 1.445312 -0.824219 C 1.089844 -2.683594 1.523438 -4.042969 2.0625 -4.144531 C 2.523438 -4.230469 2.605469 -2.921875 2.800781 -1.105469 C 2.828125 -0.871094 2.988281 -0.644531 3.316406 -0.664062 C 3.621094 -0.679688 3.867188 -0.917969 3.835938 -1.222656 C 3.675781 -2.683594 3.898438 -4.484375 4.671875 -4.632812 C 4.847656 -4.664062 4.96875 -4.613281 5.023438 -4.363281 C 5.144531 -3.804688 5.039062 -2.535156 5.214844 -1.609375 C 5.277344 -1.269531 5.519531 -1.050781 5.851562 -1.113281 C 6.125 -1.164062 6.335938 -1.40625 6.269531 -1.675781 C 6.070312 -2.453125 6.183594 -3.660156 6.074219 -4.363281 C 5.910156 -5.390625 5.457031 -5.863281 4.570312 -5.695312 C 4 -5.585938 3.601562 -5.171875 3.300781 -4.5625 C 3.054688 -4.890625 2.605469 -5.332031 1.863281 -5.191406 C 1.207031 -5.066406 0.84375 -4.253906 0.722656 -3.570312 C 0.675781 -3.730469 0.59375 -4.207031 0.550781 -4.429688 C 0.507812 -4.65625 0.261719 -4.816406 0.0117188 -4.769531 C -0.296875 -4.710938 -0.5 -4.472656 -0.445312 -4.140625 C -0.207031 -2.71875 0.160156 -1.398438 0.425781 -0.480469 C 0.472656 -0.316406 0.65625 -0.015625 1.042969 -0.132812 Z M 1.042969 -0.132812 "/></g></g></g><g fill="rgb(100%, 100%, 100%)" fill-opacity="1"><g transform="translate(28.502661, 8.280554)"><g><path d="M 0.949219 1.667969 L 0.957031 1.667969 C 1.257812 1.632812 1.46875 1.410156 1.464844 1.085938 C 1.453125 0.578125 1.460938 0.0898438 1.484375 -0.351562 C 1.808594 0.015625 2.253906 0.167969 2.851562 0.105469 C 4.085938 -0.03125 4.949219 -1.46875 4.765625 -3 C 4.597656 -4.398438 3.773438 -5.445312 2.722656 -5.320312 C 1.984375 -5.234375 1.425781 -4.722656 1.039062 -3.828125 C 0.949219 -4.089844 0.683594 -4.230469 0.414062 -4.164062 C 0.117188 -4.097656 -0.0429688 -3.839844 0.0078125 -3.539062 C 0.21875 -2.335938 0.308594 -0.746094 0.382812 1.148438 C 0.398438 1.460938 0.640625 1.707031 0.949219 1.667969 Z M 1.609375 -1.785156 C 1.824219 -3.316406 2.265625 -4.195312 2.851562 -4.265625 C 3.199219 -4.304688 3.609375 -3.71875 3.707031 -2.875 C 3.820312 -1.9375 3.34375 -1.007812 2.742188 -0.953125 C 2.40625 -0.921875 2.230469 -1 2.097656 -1.363281 C 2.003906 -1.605469 1.835938 -1.777344 1.609375 -1.785156 Z M 1.609375 -1.785156 "/></g></g></g><g fill="rgb(100%, 100%, 100%)" fill-opacity="1"><g transform="translate(33.651918, 7.662812)"><g><path d="M 1.808594 0.484375 C 2.617188 0.4375 3.210938 -0.234375 3.761719 -1.507812 C 3.800781 -1.261719 3.84375 -1.035156 3.898438 -0.835938 C 4.007812 -0.472656 4.414062 -0.386719 4.730469 -0.613281 C 4.921875 -0.746094 4.957031 -0.953125 4.902344 -1.171875 C 4.753906 -1.785156 4.707031 -2.964844 4.839844 -4.074219 C 4.894531 -4.535156 4.742188 -4.902344 4.4375 -4.960938 C 4.230469 -4.988281 4.03125 -4.910156 3.914062 -4.75 C 3.871094 -4.8125 3.816406 -4.882812 3.742188 -4.933594 C 3.441406 -5.15625 3.101562 -5.234375 2.730469 -5.214844 C 1.382812 -5.132812 0.0703125 -3.023438 0.175781 -1.207031 C 0.234375 -0.1875 0.894531 0.539062 1.808594 0.484375 Z M 1.238281 -1.269531 C 1.167969 -2.464844 2.089844 -4.109375 2.792969 -4.148438 C 2.957031 -4.160156 3.070312 -4.085938 3.203125 -4.019531 C 3.339844 -3.953125 3.511719 -3.921875 3.671875 -3.980469 C 3.117188 -2.109375 2.261719 -0.609375 1.746094 -0.578125 C 1.46875 -0.5625 1.265625 -0.8125 1.238281 -1.269531 Z M 1.238281 -1.269531 "/></g></g></g><g fill="rgb(100%, 100%, 100%)" fill-opacity="1"><g transform="translate(38.94638, 7.377062)"><g><path d="M 0.976562 0.0390625 C 1.246094 -0.00390625 1.414062 -0.226562 1.414062 -0.511719 C 1.394531 -2.445312 2.09375 -3.125 2.824219 -3.515625 C 3.101562 -3.664062 3.191406 -3.929688 3.089844 -4.207031 C 2.988281 -4.492188 2.703125 -4.578125 2.375 -4.476562 C 2.023438 -4.367188 1.707031 -4.128906 1.429688 -3.789062 L 1.4375 -3.863281 C 1.46875 -4.140625 1.300781 -4.410156 0.972656 -4.457031 C 0.679688 -4.503906 0.410156 -4.304688 0.382812 -3.976562 C 0.292969 -2.902344 0.308594 -1.339844 0.339844 -0.460938 C 0.351562 -0.117188 0.640625 0.09375 0.976562 0.0390625 Z M 0.976562 0.0390625 "/></g></g></g><g fill="rgb(100%, 100%, 100%)" fill-opacity="1"><g transform="translate(42.181879, 7.340079)"><g><path d="M 2.074219 0.292969 C 2.246094 0.296875 2.449219 0.265625 2.648438 0.195312 C 2.957031 0.0976562 3.195312 -0.210938 3.082031 -0.550781 C 2.992188 -0.800781 2.78125 -0.9375 2.484375 -0.832031 C 2.375 -0.796875 2.308594 -0.765625 2.179688 -0.769531 C 1.949219 -0.777344 1.867188 -1.066406 1.878906 -1.441406 C 1.894531 -1.957031 1.949219 -2.570312 2.042969 -3.253906 C 2.542969 -3.257812 3.050781 -3.25 3.363281 -3.265625 C 3.675781 -3.277344 3.894531 -3.519531 3.878906 -3.820312 C 3.863281 -4.125 3.632812 -4.34375 3.320312 -4.332031 C 3.050781 -4.316406 2.640625 -4.320312 2.207031 -4.316406 L 2.304688 -4.878906 C 2.363281 -5.1875 2.191406 -5.457031 1.890625 -5.515625 C 1.589844 -5.574219 1.320312 -5.382812 1.261719 -5.074219 C 1.214844 -4.804688 1.164062 -4.542969 1.125 -4.292969 C 0.992188 -4.289062 0.878906 -4.273438 0.769531 -4.261719 C 0.417969 -4.214844 0.21875 -3.925781 0.292969 -3.605469 C 0.355469 -3.316406 0.605469 -3.167969 0.902344 -3.210938 L 0.960938 -3.214844 C 0.882812 -2.570312 0.832031 -1.980469 0.816406 -1.472656 C 0.785156 -0.515625 1.132812 0.265625 2.074219 0.292969 Z M 2.074219 0.292969 "/></g></g></g><g fill="rgb(100%, 100%, 100%)" fill-opacity="1"><g transform="translate(45.94089, 7.469873)"><g><path d="M 0.976562 0.390625 C 1.28125 0.351562 1.464844 0.09375 1.433594 -0.210938 C 1.324219 -1.351562 1.402344 -2.207031 1.695312 -3.191406 C 1.78125 -3.472656 1.640625 -3.746094 1.359375 -3.84375 C 1.070312 -3.945312 0.773438 -3.800781 0.679688 -3.484375 C 0.347656 -2.382812 0.269531 -1.371094 0.375 -0.0976562 C 0.402344 0.230469 0.671875 0.429688 0.976562 0.390625 Z M 1.136719 -5.132812 C 0.800781 -4.972656 1.003906 -4.410156 1.511719 -4.425781 C 1.914062 -4.433594 2.214844 -4.757812 2.292969 -5.074219 C 2.378906 -5.429688 1.9375 -5.695312 1.640625 -5.519531 C 1.398438 -5.378906 1.382812 -5.246094 1.136719 -5.132812 Z M 1.136719 -5.132812 "/></g></g></g><g fill="rgb(100%, 100%, 100%)" fill-opacity="1"><g transform="translate(47.833886, 7.557891)"><g><path d="M 2.054688 0.664062 C 2.722656 0.734375 3.230469 0.613281 3.878906 0.167969 C 4.152344 -0.015625 4.195312 -0.347656 4.007812 -0.597656 C 3.824219 -0.839844 3.515625 -0.871094 3.25 -0.695312 C 2.824219 -0.410156 2.554688 -0.355469 2.164062 -0.394531 C 1.734375 -0.4375 1.402344 -0.835938 1.453125 -1.324219 C 1.460938 -1.378906 1.464844 -1.429688 1.480469 -1.484375 L 1.503906 -1.476562 C 3.121094 -0.894531 5.085938 -1.574219 5.222656 -2.902344 C 5.320312 -3.832031 4.65625 -4.648438 3.703125 -4.746094 C 2.167969 -4.90625 0.589844 -3.316406 0.394531 -1.433594 C 0.285156 -0.367188 0.996094 0.554688 2.054688 0.664062 Z M 1.835938 -2.476562 C 2.261719 -3.234375 2.964844 -3.753906 3.59375 -3.6875 C 3.957031 -3.652344 4.199219 -3.355469 4.164062 -3.011719 C 4.105469 -2.449219 2.863281 -2.148438 1.902344 -2.464844 C 1.878906 -2.472656 1.851562 -2.476562 1.835938 -2.476562 Z M 1.835938 -2.476562 "/></g></g></g><g fill="rgb(100%, 100%, 100%)" fill-opacity="1"><g transform="translate(52.734511, 8.062472)"><g><path d="M 0.921875 0.460938 C 1.222656 0.511719 1.488281 0.328125 1.539062 0.015625 C 1.824219 -1.765625 2.726562 -3.148438 3.371094 -3.042969 C 3.890625 -2.960938 3.972656 -1.648438 3.417969 -0.0664062 C 3.3125 0.230469 3.425781 0.523438 3.703125 0.640625 L 3.710938 0.644531 C 3.992188 0.761719 4.296875 0.621094 4.410156 0.316406 C 5.238281 -2.007812 4.90625 -3.878906 3.539062 -4.097656 C 2.957031 -4.1875 2.316406 -3.859375 1.96875 -3.351562 L 2.007812 -3.800781 C 2.03125 -4.039062 1.820312 -4.238281 1.519531 -4.269531 C 1.21875 -4.300781 0.96875 -4.101562 0.9375 -3.789062 C 0.859375 -2.949219 0.734375 -1.847656 0.507812 -0.367188 C 0.417969 0.234375 0.613281 0.414062 0.921875 0.460938 Z M 0.921875 0.460938 "/></g></g></g><g fill="rgb(100%, 100%, 100%)" fill-opacity="1"><g transform="translate(57.42021, 8.801163)"><g><path d="M 2.140625 1.03125 C 2.660156 1.144531 3.261719 0.964844 3.753906 0.550781 C 3.816406 0.675781 3.941406 0.769531 4.09375 0.792969 C 4.390625 0.851562 4.667969 0.667969 4.71875 0.351562 L 4.722656 0.335938 C 5.132812 -1.84375 5.640625 -3.320312 6.140625 -4.695312 C 6.246094 -4.980469 6.117188 -5.269531 5.832031 -5.382812 C 5.542969 -5.496094 5.246094 -5.359375 5.140625 -5.0625 C 4.941406 -4.503906 4.746094 -3.917969 4.558594 -3.28125 C 4.320312 -3.773438 3.964844 -4.097656 3.476562 -4.203125 C 2.171875 -4.488281 1.015625 -3.492188 0.648438 -1.8125 C 0.359375 -0.492188 0.953125 0.769531 2.140625 1.03125 Z M 1.6875 -1.585938 C 1.929688 -2.695312 2.570312 -3.3125 3.25 -3.164062 C 3.6875 -3.066406 4.027344 -2.3125 3.855469 -0.792969 C 3.679688 -0.761719 3.511719 -0.613281 3.402344 -0.453125 C 3.144531 -0.0820312 2.726562 0.0664062 2.367188 -0.0117188 C 1.796875 -0.136719 1.523438 -0.832031 1.6875 -1.585938 Z M 1.6875 -1.585938 "/></g></g></g><g fill="rgb(100%, 100%, 100%)" fill-opacity="1"><g transform="translate(62.448379, 9.894188)"><g><path d="M 2.59375 1.335938 C 3.902344 1.707031 5.21875 0.835938 5.5625 -0.589844 C 5.871094 -1.855469 5.257812 -3.066406 4.125 -3.390625 C 4.089844 -3.398438 4.058594 -3.40625 4.027344 -3.40625 C 4.007812 -3.609375 3.859375 -3.8125 3.589844 -3.886719 C 2.402344 -4.222656 1.226562 -3.433594 0.835938 -2.0625 C 0.40625 -0.539062 1.152344 0.929688 2.59375 1.335938 Z M 1.863281 -1.773438 C 2.09375 -2.589844 2.703125 -3.03125 3.300781 -2.863281 C 3.351562 -2.851562 3.390625 -2.839844 3.429688 -2.835938 C 3.433594 -2.636719 3.558594 -2.441406 3.832031 -2.363281 C 4.402344 -2.203125 4.703125 -1.558594 4.527344 -0.847656 C 4.324219 0.00390625 3.597656 0.515625 2.882812 0.3125 C 2.015625 0.0664062 1.589844 -0.808594 1.863281 -1.773438 Z M 1.863281 -1.773438 "/></g></g></g><g fill="rgb(100%, 100%, 100%)" fill-opacity="1"><g transform="translate(67.552955, 11.350546)"><g/></g></g><g fill="rgb(100%, 100%, 100%)" fill-opacity="1"><g transform="translate(30.550394, 25.805622)"><g><path d="M 1.539062 0.550781 C 1.777344 0.441406 1.890625 0.207031 1.839844 -0.0859375 C 1.765625 -0.539062 1.75 -1.078125 1.777344 -1.613281 C 2.769531 -1.625 3.875 -1.667969 4.488281 -1.644531 C 4.792969 -1.628906 5.03125 -1.832031 5.066406 -2.128906 C 5.109375 -2.46875 4.882812 -2.722656 4.539062 -2.742188 C 3.925781 -2.761719 2.867188 -2.726562 1.878906 -2.722656 C 1.902344 -2.949219 1.933594 -3.15625 1.96875 -3.332031 C 2.117188 -4.175781 2.765625 -4.664062 4.335938 -4.433594 C 4.683594 -4.382812 5.058594 -4.289062 5.441406 -4.160156 C 5.761719 -4.058594 6.046875 -4.191406 6.164062 -4.480469 C 6.277344 -4.78125 6.132812 -5.078125 5.816406 -5.195312 C 5.367188 -5.367188 4.9375 -5.460938 4.519531 -5.519531 C 2.414062 -5.832031 1.089844 -5.273438 0.855469 -3.671875 C 0.695312 -2.585938 0.5625 -1.015625 0.785156 0.195312 C 0.847656 0.527344 1.210938 0.699219 1.539062 0.550781 Z M 1.539062 0.550781 "/></g></g></g><g fill="rgb(100%, 100%, 100%)" fill-opacity="1"><g transform="translate(36.321993, 26.612625)"><g><path d="M 2.007812 0.476562 C 2.652344 0.488281 3.125 0.335938 3.707031 -0.136719 C 3.953125 -0.335938 3.96875 -0.65625 3.769531 -0.878906 C 3.578125 -1.09375 3.28125 -1.101562 3.042969 -0.910156 C 2.660156 -0.605469 2.40625 -0.535156 2.03125 -0.542969 C 1.617188 -0.550781 1.273438 -0.902344 1.28125 -1.371094 C 1.285156 -1.425781 1.285156 -1.472656 1.292969 -1.527344 L 1.316406 -1.519531 C 2.90625 -1.09375 4.722656 -1.890625 4.75 -3.167969 C 4.769531 -4.058594 4.074219 -4.785156 3.160156 -4.808594 C 1.6875 -4.839844 0.304688 -3.203125 0.265625 -1.394531 C 0.242188 -0.371094 0.992188 0.453125 2.007812 0.476562 Z M 1.558594 -2.5 C 1.902344 -3.253906 2.535156 -3.804688 3.136719 -3.789062 C 3.488281 -3.78125 3.742188 -3.519531 3.734375 -3.191406 C 3.722656 -2.648438 2.5625 -2.269531 1.621094 -2.492188 C 1.597656 -2.5 1.574219 -2.5 1.558594 -2.5 Z M 1.558594 -2.5 "/></g></g></g><g fill="rgb(100%, 100%, 100%)" fill-opacity="1"><g transform="translate(41.341964, 26.657238)"><g><path d="M 1.109375 0.195312 C 1.386719 0.0976562 1.503906 -0.144531 1.441406 -0.421875 C 1.136719 -1.722656 1.074219 -3.824219 1.296875 -5.375 C 1.335938 -5.652344 1.210938 -5.925781 0.886719 -5.992188 C 0.601562 -6.054688 0.335938 -5.875 0.292969 -5.566406 C 0.0546875 -3.875 0.117188 -1.613281 0.453125 -0.167969 C 0.527344 0.140625 0.824219 0.289062 1.109375 0.195312 Z M 1.109375 0.195312 "/></g></g></g><g fill="rgb(100%, 100%, 100%)" fill-opacity="1"><g transform="translate(43.383957, 26.534108)"><g><path d="M 0.980469 0.210938 C 1.265625 0.125 1.394531 -0.144531 1.316406 -0.429688 C 1.03125 -1.484375 0.96875 -2.304688 1.085938 -3.277344 C 1.121094 -3.554688 0.949219 -3.789062 0.667969 -3.839844 C 0.378906 -3.886719 0.121094 -3.703125 0.0859375 -3.390625 C -0.0507812 -2.300781 0.03125 -1.332031 0.339844 -0.152344 C 0.417969 0.152344 0.699219 0.296875 0.980469 0.210938 Z M 0.253906 -5.015625 C -0.0390625 -4.8125 0.238281 -4.3125 0.71875 -4.410156 C 1.09375 -4.480469 1.324219 -4.835938 1.347656 -5.144531 C 1.375 -5.496094 0.914062 -5.675781 0.660156 -5.460938 C 0.460938 -5.289062 0.464844 -5.164062 0.253906 -5.015625 Z M 0.253906 -5.015625 "/></g></g></g><g fill="rgb(100%, 100%, 100%)" fill-opacity="1"><g transform="translate(45.449016, 26.354483)"><g><path d="M 2 0.203125 C 2.617188 0.09375 3.050781 -0.277344 3.347656 -0.9375 C 3.480469 -1.238281 3.308594 -1.542969 3.007812 -1.621094 C 2.75 -1.695312 2.519531 -1.558594 2.398438 -1.296875 C 2.253906 -0.988281 2.074219 -0.84375 1.820312 -0.796875 C 1.472656 -0.734375 1.050781 -1.238281 0.925781 -1.929688 C 0.746094 -2.917969 1.304688 -3.925781 1.882812 -4.027344 C 2.066406 -4.0625 2.234375 -3.972656 2.375 -3.765625 C 2.570312 -3.484375 2.730469 -3.425781 3.035156 -3.511719 C 3.304688 -3.59375 3.464844 -3.90625 3.296875 -4.203125 C 2.957031 -4.824219 2.371094 -5.148438 1.703125 -5.027344 C 0.539062 -4.820312 -0.351562 -3.277344 -0.078125 -1.75 C 0.144531 -0.527344 1.023438 0.378906 2 0.203125 Z M 2 0.203125 "/></g></g></g><g fill="rgb(100%, 100%, 100%)" fill-opacity="1"><g transform="translate(49.794547, 25.522243)"><g><path d="M 1.003906 0.0664062 C 1.269531 -0.0585938 1.355469 -0.347656 1.238281 -0.617188 C 0.804688 -1.621094 0.621094 -2.421875 0.597656 -3.402344 C 0.589844 -3.683594 0.382812 -3.886719 0.0976562 -3.894531 C -0.195312 -3.902344 -0.421875 -3.679688 -0.414062 -3.367188 C -0.390625 -2.265625 -0.164062 -1.324219 0.3125 -0.203125 C 0.433594 0.0898438 0.734375 0.191406 1.003906 0.0664062 Z M -0.484375 -4.996094 C -0.746094 -4.753906 -0.394531 -4.300781 0.0625 -4.46875 C 0.425781 -4.59375 0.601562 -4.976562 0.582031 -5.289062 C 0.554688 -5.636719 0.0742188 -5.746094 -0.144531 -5.496094 C -0.320312 -5.296875 -0.296875 -5.175781 -0.484375 -4.996094 Z M -0.484375 -4.996094 "/></g></g></g><g fill="rgb(100%, 100%, 100%)" fill-opacity="1"><g transform="translate(51.838921, 25.056182)"><g><path d="M 2.257812 -0.230469 C 2.738281 -0.394531 3.136719 -0.839844 3.332031 -1.421875 C 3.449219 -1.355469 3.59375 -1.339844 3.730469 -1.394531 C 4.003906 -1.5 4.136719 -1.785156 4.019531 -2.066406 L 4.015625 -2.082031 C 3.257812 -4.066406 2.9375 -5.519531 2.660156 -6.890625 C 2.601562 -7.175781 2.351562 -7.34375 2.0625 -7.292969 C 1.773438 -7.242188 1.597656 -6.984375 1.660156 -6.691406 C 1.777344 -6.136719 1.910156 -5.558594 2.074219 -4.945312 C 1.636719 -5.234375 1.183594 -5.316406 0.734375 -5.160156 C -0.472656 -4.742188 -0.917969 -3.351562 -0.375 -1.800781 C 0.046875 -0.578125 1.164062 0.152344 2.257812 -0.230469 Z M 0.585938 -2.132812 C 0.226562 -3.160156 0.4375 -3.980469 1.066406 -4.199219 C 1.472656 -4.339844 2.125 -3.894531 2.742188 -2.570312 C 2.617188 -2.457031 2.554688 -2.253906 2.546875 -2.070312 C 2.519531 -1.636719 2.253906 -1.304688 1.921875 -1.191406 C 1.398438 -1.007812 0.824219 -1.4375 0.585938 -2.132812 Z M 0.585938 -2.132812 "/></g></g></g><g fill="rgb(100%, 100%, 100%)" fill-opacity="1"><g transform="translate(56.878581, 23.290309)"><g><path d="M 1.773438 -0.242188 C 2.46875 -0.585938 2.738281 -1.398438 2.753906 -2.71875 C 2.878906 -2.519531 3 -2.335938 3.125 -2.179688 C 3.355469 -1.902344 3.746094 -1.980469 3.9375 -2.292969 C 4.054688 -2.480469 4.011719 -2.675781 3.882812 -2.847656 C 3.523438 -3.335938 3.046875 -4.355469 2.753906 -5.378906 C 2.632812 -5.808594 2.359375 -6.074219 2.070312 -6.011719 C 1.875 -5.960938 1.726562 -5.816406 1.6875 -5.632812 C 1.625 -5.671875 1.550781 -5.714844 1.464844 -5.730469 C 1.121094 -5.816406 0.789062 -5.757812 0.472656 -5.601562 C -0.683594 -5.035156 -1.058594 -2.6875 -0.292969 -1.128906 C 0.136719 -0.25 0.984375 0.144531 1.773438 -0.242188 Z M 0.621094 -1.578125 C 0.117188 -2.601562 0.316406 -4.394531 0.921875 -4.691406 C 1.0625 -4.757812 1.1875 -4.734375 1.332031 -4.726562 C 1.476562 -4.71875 1.640625 -4.753906 1.761719 -4.867188 C 1.964844 -3.011719 1.765625 -1.375 1.324219 -1.15625 C 1.085938 -1.039062 0.8125 -1.183594 0.621094 -1.578125 Z M 0.621094 -1.578125 "/></g></g></g><g fill="rgb(100%, 100%, 100%)" fill-opacity="1"><g transform="translate(61.774379, 20.862253)"><g><path d="M 2.132812 -0.769531 C 2.558594 -1.046875 2.839844 -1.574219 2.890625 -2.1875 C 3.015625 -2.148438 3.164062 -2.167969 3.285156 -2.257812 C 3.523438 -2.421875 3.582031 -2.730469 3.402344 -2.976562 L 3.390625 -2.992188 C 2.179688 -4.734375 1.515625 -6.066406 0.914062 -7.328125 C 0.789062 -7.589844 0.507812 -7.695312 0.238281 -7.578125 C -0.03125 -7.457031 -0.136719 -7.164062 -0.0078125 -6.894531 C 0.242188 -6.382812 0.511719 -5.859375 0.816406 -5.300781 C 0.324219 -5.472656 -0.136719 -5.445312 -0.535156 -5.183594 C -1.601562 -4.484375 -1.699219 -3.03125 -0.800781 -1.65625 C -0.09375 -0.574219 1.164062 -0.132812 2.132812 -0.769531 Z M 0.0507812 -2.210938 C -0.542969 -3.121094 -0.535156 -3.96875 0.0195312 -4.332031 C 0.382812 -4.566406 1.121094 -4.292969 2.042969 -3.15625 C 1.945312 -3.019531 1.933594 -2.804688 1.96875 -2.621094 C 2.050781 -2.199219 1.871094 -1.8125 1.578125 -1.621094 C 1.113281 -1.316406 0.453125 -1.59375 0.0507812 -2.210938 Z M 0.0507812 -2.210938 "/></g></g></g><g fill="rgb(100%, 100%, 100%)" fill-opacity="1"><g transform="translate(66.18919, 17.926471)"><g/></g></g><g clip-path="url(#id1)"><path fill="rgb(100%, 100%, 100%)" d="M 30.472656 12.894531 C 30.015625 12.945312 29.800781 13.304688 29.8125 13.765625 C 29.839844 15.011719 29.667969 16.425781 28.980469 17.449219 C 28.714844 17.851562 28.390625 18.117188 28 18.433594 L 28.53125 17.425781 C 28.699219 17.109375 28.574219 16.71875 28.253906 16.550781 C 27.933594 16.386719 27.542969 16.507812 27.375 16.828125 L 25.773438 19.878906 C 24.285156 21.929688 25.214844 24.351562 25.214844 24.351562 L 27.511719 24.363281 C 27.523438 23.191406 28.25 22.195312 28.25 22.195312 C 31.488281 18.414062 31.25 14.742188 31.226562 13.804688 C 31.214844 13.253906 30.925781 12.839844 30.472656 12.894531 " fill-opacity="1" fill-rule="nonzero"/></g><g clip-path="url(#id2)"><path fill="rgb(100%, 100%, 100%)" d="M 17.289062 12.894531 C 17.742188 12.945312 17.957031 13.304688 17.949219 13.765625 C 17.921875 15.011719 18.089844 16.425781 18.777344 17.449219 C 19.046875 17.851562 19.367188 18.117188 19.757812 18.433594 L 19.226562 17.425781 C 19.0625 17.109375 19.183594 16.71875 19.503906 16.550781 C 19.824219 16.386719 20.21875 16.507812 20.382812 16.828125 L 21.984375 19.878906 C 23.476562 21.929688 22.546875 24.351562 22.546875 24.351562 L 20.246094 24.363281 C 20.234375 23.191406 19.511719 22.195312 19.511719 22.195312 C 16.273438 18.414062 16.511719 14.742188 16.53125 13.804688 C 16.542969 13.253906 16.832031 12.839844 17.289062 12.894531 " fill-opacity="1" fill-rule="nonzero"/></g><g clip-path="url(#id3)"><path fill="rgb(100%, 100%, 100%)" d="M 27.015625 13.835938 C 27.015625 12.832031 26.199219 12.023438 25.191406 12.023438 C 24.589844 12.023438 24.054688 12.3125 23.722656 12.761719 C 23.390625 12.3125 22.855469 12.023438 22.25 12.023438 C 21.242188 12.023438 20.425781 12.832031 20.425781 13.835938 C 20.425781 14.320312 20.617188 14.757812 20.929688 15.085938 L 23.636719 17.816406 L 26.632812 14.945312 C 26.871094 14.640625 27.015625 14.253906 27.015625 13.835938 " fill-opacity="1" fill-rule="nonzero"/></g></svg>