<svg xmlns="http://www.w3.org/2000/svg" xmlns:xlink="http://www.w3.org/1999/xlink" width="500" zoomAndPan="magnify" viewBox="0 0 375 374.999991" height="500" preserveAspectRatio="xMidYMid meet" version="1.0"><defs><g/><clipPath id="id1"><path d="M 88 193 L 133 193 L 133 273.75 L 88 273.75 Z M 88 193 " clip-rule="nonzero"/></clipPath><clipPath id="id2"><path d="M 29 193 L 74 193 L 74 273.75 L 29 273.75 Z M 29 193 " clip-rule="nonzero"/></clipPath><clipPath id="id3"><path d="M 56 187.5 L 103 187.5 L 103 228 L 56 228 Z M 56 187.5 " clip-rule="nonzero"/></clipPath></defs><g fill="rgb(100%, 100%, 100%)" fill-opacity="1"><g transform="translate(14.291912, 177.951522)"><g><path d="M 14.542969 -1.492188 C 19.871094 -3.257812 24.726562 -8.03125 26.59375 -14.667969 C 27.132812 -16.691406 25.871094 -18.4375 23.921875 -18.742188 C 22.132812 -19.046875 20.753906 -17.957031 20.226562 -16.199219 C 18.953125 -11.765625 15.539062 -8.683594 12.542969 -7.691406 C 8.644531 -6.398438 4.957031 -8.925781 3.351562 -13.773438 C -0.238281 -24.617188 6.351562 -34.664062 14.34375 -37.308594 C 15.53125 -37.703125 16.863281 -37.828125 18.222656 -37.699219 C 20.171875 -37.550781 21.550781 -38.800781 21.933594 -40.351562 C 22.367188 -42.078125 21.277344 -43.933594 19.203125 -44.144531 C 16.699219 -44.371094 14.355469 -44.121094 12.167969 -43.398438 C 0.753906 -39.617188 -7.585938 -26.085938 -2.828125 -11.726562 C -0.105469 -3.5 6.890625 1.042969 14.542969 -1.492188 Z M 14.542969 -1.492188 "/></g></g></g><g fill="rgb(100%, 100%, 100%)" fill-opacity="1"><g transform="translate(46.178757, 167.378786)"><g><path d="M 17.8125 -1.019531 C 25.851562 -3.140625 30.089844 -11.824219 27.460938 -20.402344 C 25.140625 -28.027344 18.15625 -32.507812 11.179688 -30.667969 C 10.988281 -30.617188 10.792969 -30.5625 10.613281 -30.464844 C 9.882812 -31.464844 8.476562 -32.078125 6.832031 -31.644531 C -0.484375 -29.714844 -4.21875 -21.886719 -1.996094 -13.460938 C 0.46875 -4.113281 8.949219 1.316406 17.8125 -1.019531 Z M 4.300781 -15.121094 C 2.96875 -20.160156 4.8125 -24.375 8.492188 -25.347656 C 8.78125 -25.421875 9.023438 -25.488281 9.253906 -25.597656 C 9.886719 -24.574219 11.148438 -23.921875 12.84375 -24.371094 C 16.328125 -25.289062 19.933594 -22.820312 21.214844 -18.550781 C 22.777344 -13.417969 20.558594 -8.480469 16.148438 -7.316406 C 10.820312 -5.910156 5.859375 -9.214844 4.300781 -15.121094 Z M 4.300781 -15.121094 "/></g></g></g><g fill="rgb(100%, 100%, 100%)" fill-opacity="1"><g transform="translate(77.288755, 158.948599)"><g><path d="M 6.375 -0.804688 C 8.109375 -1.335938 9.175781 -3.222656 8.832031 -5.042969 C 6.671875 -16.410156 9.324219 -24.71875 12.621094 -25.34375 C 15.425781 -25.878906 15.929688 -17.867188 17.121094 -6.773438 C 17.292969 -5.328125 18.273438 -3.933594 20.285156 -4.058594 C 22.15625 -4.160156 23.660156 -5.617188 23.464844 -7.46875 C 22.476562 -16.40625 23.851562 -27.425781 28.574219 -28.324219 C 29.65625 -28.53125 30.382812 -28.210938 30.722656 -26.695312 C 31.472656 -23.265625 30.808594 -15.492188 31.886719 -9.832031 C 32.277344 -7.765625 33.757812 -6.417969 35.777344 -6.800781 C 37.449219 -7.117188 38.75 -8.589844 38.335938 -10.242188 C 37.121094 -15.011719 37.8125 -22.382812 37.144531 -26.691406 C 36.15625 -32.976562 33.363281 -35.863281 27.949219 -34.835938 C 24.457031 -34.171875 22.035156 -31.621094 20.191406 -27.90625 C 18.6875 -29.914062 15.933594 -32.601562 11.40625 -31.742188 C 7.371094 -30.972656 5.152344 -26.015625 4.414062 -21.847656 C 4.128906 -22.8125 3.625 -25.726562 3.363281 -27.101562 C 3.101562 -28.480469 1.589844 -29.46875 0.0625 -29.179688 C -1.808594 -28.824219 -3.058594 -27.359375 -2.722656 -25.332031 C -1.273438 -16.636719 0.976562 -8.546875 2.601562 -2.941406 C 2.898438 -1.925781 4.007812 -0.0976562 6.375 -0.804688 Z M 6.375 -0.804688 "/></g></g></g><g fill="rgb(100%, 100%, 100%)" fill-opacity="1"><g transform="translate(119.015337, 151.174143)"><g><path d="M 5.804688 10.207031 L 5.851562 10.199219 C 7.695312 9.980469 8.996094 8.617188 8.960938 6.652344 C 8.894531 3.535156 8.945312 0.550781 9.078125 -2.136719 C 11.058594 0.0976562 13.792969 1.035156 17.429688 0.652344 C 24.996094 -0.195312 30.257812 -8.992188 29.144531 -18.34375 C 28.128906 -26.902344 23.078125 -33.3125 16.664062 -32.550781 C 12.136719 -32.011719 8.726562 -28.882812 6.347656 -23.40625 C 5.804688 -25.003906 4.1875 -25.871094 2.523438 -25.472656 C 0.703125 -25.054688 -0.269531 -23.476562 0.0507812 -21.648438 C 1.328125 -14.28125 1.878906 -4.5625 2.347656 7.035156 C 2.425781 8.941406 3.914062 10.429688 5.804688 10.207031 Z M 9.851562 -10.90625 C 11.15625 -20.292969 13.851562 -25.65625 17.429688 -26.082031 C 19.570312 -26.335938 22.066406 -22.75 22.679688 -17.578125 C 23.359375 -11.855469 20.453125 -6.164062 16.761719 -5.824219 C 14.714844 -5.632812 13.652344 -6.113281 12.832031 -8.335938 C 12.25 -9.828125 11.21875 -10.867188 9.851562 -10.90625 Z M 9.851562 -10.90625 "/></g></g></g><g fill="rgb(100%, 100%, 100%)" fill-opacity="1"><g transform="translate(150.50744, 147.396109)"><g><path d="M 11.0625 2.96875 C 16.011719 2.679688 19.636719 -1.445312 22.996094 -9.21875 C 23.234375 -7.726562 23.515625 -6.335938 23.839844 -5.101562 C 24.519531 -2.882812 27.007812 -2.375 28.933594 -3.742188 C 30.089844 -4.5625 30.320312 -5.832031 29.988281 -7.167969 C 29.070312 -10.925781 28.800781 -18.136719 29.609375 -24.90625 C 29.945312 -27.734375 29.011719 -29.988281 27.136719 -30.332031 C 25.871094 -30.507812 24.644531 -30.035156 23.949219 -29.042969 C 23.675781 -29.429688 23.347656 -29.859375 22.878906 -30.183594 C 21.042969 -31.53125 18.957031 -32.011719 16.707031 -31.882812 C 8.457031 -31.402344 0.429688 -18.488281 1.074219 -7.386719 C 1.4375 -1.136719 5.460938 3.292969 11.0625 2.96875 Z M 7.574219 -7.765625 C 7.152344 -15.066406 12.785156 -25.132812 17.085938 -25.382812 C 18.085938 -25.441406 18.765625 -24.976562 19.59375 -24.574219 C 20.417969 -24.171875 21.484375 -23.980469 22.464844 -24.339844 C 19.070312 -12.902344 13.832031 -3.714844 10.683594 -3.53125 C 8.984375 -3.433594 7.738281 -4.964844 7.574219 -7.765625 Z M 7.574219 -7.765625 "/></g></g></g><g fill="rgb(100%, 100%, 100%)" fill-opacity="1"><g transform="translate(182.887595, 145.648514)"><g><path d="M 5.964844 0.246094 C 7.613281 -0.0195312 8.652344 -1.382812 8.636719 -3.136719 C 8.527344 -14.957031 12.796875 -19.105469 17.285156 -21.5 C 18.980469 -22.417969 19.515625 -24.027344 18.898438 -25.722656 C 18.28125 -27.46875 16.523438 -28.003906 14.523438 -27.386719 C 12.375 -26.714844 10.4375 -25.242188 8.753906 -23.175781 L 8.796875 -23.625 C 8.984375 -25.332031 7.964844 -26.972656 5.960938 -27.257812 C 4.152344 -27.539062 2.511719 -26.324219 2.328125 -24.316406 C 1.789062 -17.75 1.878906 -8.183594 2.078125 -2.824219 C 2.148438 -0.722656 3.914062 0.566406 5.964844 0.246094 Z M 5.964844 0.246094 "/></g></g></g><g fill="rgb(100%, 100%, 100%)" fill-opacity="1"><g transform="translate(202.675438, 145.422325)"><g><path d="M 12.675781 1.792969 C 13.726562 1.828125 14.984375 1.613281 16.199219 1.203125 C 18.074219 0.609375 19.535156 -1.300781 18.847656 -3.378906 C 18.292969 -4.898438 17.015625 -5.738281 15.191406 -5.09375 C 14.535156 -4.863281 14.125 -4.675781 13.324219 -4.699219 C 11.921875 -4.742188 11.425781 -6.511719 11.5 -8.816406 C 11.59375 -11.972656 11.910156 -15.71875 12.492188 -19.910156 C 15.550781 -19.917969 18.65625 -19.871094 20.5625 -19.964844 C 22.46875 -20.054688 23.816406 -21.515625 23.726562 -23.375 C 23.632812 -25.230469 22.21875 -26.578125 20.3125 -26.484375 C 18.65625 -26.386719 16.152344 -26.414062 13.492188 -26.394531 L 14.101562 -29.835938 C 14.460938 -31.726562 13.410156 -33.363281 11.566406 -33.722656 C 9.722656 -34.078125 8.082031 -32.925781 7.722656 -31.035156 C 7.421875 -29.390625 7.121094 -27.796875 6.875 -26.25 C 6.070312 -26.222656 5.367188 -26.144531 4.714844 -26.066406 C 2.550781 -25.78125 1.34375 -24.015625 1.78125 -22.046875 C 2.179688 -20.28125 3.707031 -19.382812 5.515625 -19.625 L 5.871094 -19.664062 C 5.398438 -15.71875 5.085938 -12.121094 4.988281 -9.015625 C 4.808594 -3.160156 6.917969 1.617188 12.675781 1.792969 Z M 12.675781 1.792969 "/></g></g></g><g fill="rgb(100%, 100%, 100%)" fill-opacity="1"><g transform="translate(225.665003, 146.216129)"><g><path d="M 5.972656 2.386719 C 7.84375 2.15625 8.949219 0.570312 8.765625 -1.300781 C 8.105469 -8.269531 8.589844 -13.507812 10.375 -19.519531 C 10.886719 -21.242188 10.039062 -22.902344 8.320312 -23.515625 C 6.550781 -24.128906 4.738281 -23.238281 4.164062 -21.320312 C 2.128906 -14.570312 1.636719 -8.378906 2.296875 -0.605469 C 2.46875 1.410156 4.101562 2.621094 5.972656 2.386719 Z M 6.960938 -31.378906 C 4.894531 -30.40625 6.128906 -26.964844 9.25 -27.070312 C 11.710938 -27.113281 13.542969 -29.105469 14.019531 -31.03125 C 14.558594 -33.207031 11.851562 -34.835938 10.023438 -33.746094 C 8.5625 -32.886719 8.464844 -32.089844 6.960938 -31.378906 Z M 6.960938 -31.378906 "/></g></g></g><g fill="rgb(100%, 100%, 100%)" fill-opacity="1"><g transform="translate(237.242281, 146.754433)"><g><path d="M 12.574219 4.066406 C 16.660156 4.488281 19.757812 3.75 23.710938 1.039062 C 25.390625 -0.0976562 25.652344 -2.136719 24.5 -3.664062 C 23.394531 -5.140625 21.5 -5.335938 19.875 -4.242188 C 17.277344 -2.496094 15.632812 -2.164062 13.242188 -2.410156 C 10.601562 -2.683594 8.585938 -5.105469 8.894531 -8.097656 C 8.929688 -8.445312 8.960938 -8.742188 9.046875 -9.085938 L 9.191406 -9.023438 C 19.097656 -5.480469 31.109375 -9.628906 31.945312 -17.753906 C 32.535156 -23.433594 28.46875 -28.433594 22.636719 -29.035156 C 13.269531 -30.003906 3.605469 -20.273438 2.414062 -8.765625 C 1.742188 -2.238281 6.09375 3.398438 12.574219 4.066406 Z M 11.234375 -15.15625 C 13.824219 -19.773438 18.132812 -22.957031 21.96875 -22.558594 C 24.210938 -22.328125 25.683594 -20.511719 25.46875 -18.421875 C 25.113281 -14.984375 17.523438 -13.148438 11.625 -15.066406 C 11.484375 -15.132812 11.332031 -15.144531 11.234375 -15.15625 Z M 11.234375 -15.15625 "/></g></g></g><g fill="rgb(100%, 100%, 100%)" fill-opacity="1"><g transform="translate(267.213784, 149.84037)"><g><path d="M 5.636719 2.828125 C 7.464844 3.121094 9.113281 2.015625 9.421875 0.0859375 C 11.160156 -10.796875 16.671875 -19.25 20.628906 -18.617188 C 23.792969 -18.113281 24.285156 -10.070312 20.914062 -0.414062 C 20.269531 1.414062 20.949219 3.195312 22.65625 3.925781 L 22.707031 3.933594 C 24.417969 4.660156 26.28125 3.792969 26.984375 1.925781 C 32.042969 -12.28125 30.015625 -23.714844 21.65625 -25.050781 C 18.09375 -25.617188 14.171875 -23.605469 12.050781 -20.496094 L 12.289062 -23.25 C 12.417969 -24.699219 11.140625 -25.917969 9.296875 -26.109375 C 7.449219 -26.304688 5.933594 -25.074219 5.734375 -23.179688 C 5.265625 -18.03125 4.496094 -11.304688 3.097656 -2.246094 C 2.5625 1.425781 3.753906 2.527344 5.636719 2.828125 Z M 5.636719 2.828125 "/></g></g></g><g fill="rgb(100%, 100%, 100%)" fill-opacity="1"><g transform="translate(295.870846, 154.358101)"><g><path d="M 13.082031 6.296875 C 16.265625 6.992188 19.9375 5.898438 22.949219 3.378906 C 23.351562 4.132812 24.097656 4.707031 25.035156 4.859375 C 26.859375 5.207031 28.539062 4.085938 28.859375 2.15625 L 28.878906 2.058594 C 31.386719 -11.289062 34.488281 -20.300781 37.554688 -28.707031 C 38.195312 -30.464844 37.402344 -32.226562 35.65625 -32.917969 C 33.910156 -33.605469 32.085938 -32.773438 31.4375 -30.96875 C 30.226562 -27.539062 29.03125 -23.957031 27.871094 -20.054688 C 26.429688 -23.089844 24.246094 -25.054688 21.261719 -25.707031 C 13.285156 -27.449219 6.207031 -21.359375 3.960938 -11.082031 C 2.195312 -3.007812 5.839844 4.710938 13.082031 6.296875 Z M 10.324219 -9.691406 C 11.8125 -16.492188 15.710938 -20.253906 19.871094 -19.34375 C 22.5625 -18.757812 24.628906 -14.148438 23.570312 -4.84375 C 22.503906 -4.667969 21.488281 -3.761719 20.8125 -2.78125 C 19.238281 -0.511719 16.675781 0.417969 14.472656 -0.0664062 C 11 -0.824219 9.316406 -5.089844 10.324219 -9.691406 Z M 10.324219 -9.691406 "/></g></g></g><g fill="rgb(100%, 100%, 100%)" fill-opacity="1"><g transform="translate(326.6224, 161.042885)"><g><path d="M 15.859375 8.175781 C 23.859375 10.433594 31.921875 5.113281 34.019531 -3.613281 C 35.898438 -11.359375 32.160156 -18.765625 25.21875 -20.726562 C 25.023438 -20.78125 24.832031 -20.835938 24.625 -20.839844 C 24.503906 -22.074219 23.605469 -23.316406 21.964844 -23.777344 C 14.6875 -25.832031 7.492188 -20.996094 5.121094 -12.605469 C 2.496094 -3.304688 7.035156 5.683594 15.859375 8.175781 Z M 11.390625 -10.835938 C 12.804688 -15.851562 16.53125 -18.546875 20.195312 -17.511719 C 20.484375 -17.429688 20.726562 -17.363281 20.980469 -17.339844 C 21.007812 -16.136719 21.757812 -14.9375 23.445312 -14.460938 C 26.917969 -13.480469 28.765625 -9.519531 27.699219 -5.191406 C 26.4375 0.0234375 22.015625 3.144531 17.628906 1.90625 C 12.324219 0.410156 9.726562 -4.957031 11.390625 -10.835938 Z M 11.390625 -10.835938 "/></g></g></g><g fill="rgb(100%, 100%, 100%)" fill-opacity="1"><g transform="translate(357.841277, 169.94976)"><g/></g></g><g fill="rgb(25.489807%, 75.689697%, 72.938538%)" fill-opacity="1"><g transform="translate(188.462835, 287.064615)"><g/></g></g><g fill="rgb(100%, 100%, 100%)" fill-opacity="1"><g transform="translate(131.538971, 258.354878)"><g><path d="M 9.421875 3.367188 C 10.871094 2.707031 11.570312 1.261719 11.25 -0.523438 C 10.789062 -3.300781 10.691406 -6.605469 10.878906 -9.867188 C 16.9375 -9.945312 23.699219 -10.210938 27.449219 -10.046875 C 29.324219 -9.964844 30.761719 -11.203125 30.980469 -13.011719 C 31.238281 -15.101562 29.871094 -16.65625 27.761719 -16.773438 C 24.003906 -16.890625 17.539062 -16.675781 11.488281 -16.644531 C 11.644531 -18.027344 11.832031 -19.304688 12.039062 -20.386719 C 12.9375 -25.527344 16.910156 -28.523438 26.519531 -27.113281 C 28.652344 -26.800781 30.9375 -26.222656 33.289062 -25.441406 C 35.230469 -24.820312 36.992188 -25.625 37.6875 -27.40625 C 38.394531 -29.238281 37.5 -31.0625 35.574219 -31.78125 C 32.824219 -32.8125 30.199219 -33.394531 27.640625 -33.769531 C 14.761719 -35.660156 6.667969 -32.25 5.230469 -22.449219 C 4.257812 -15.820312 3.429688 -6.21875 4.808594 1.1875 C 5.183594 3.226562 7.402344 4.277344 9.421875 3.367188 Z M 9.421875 3.367188 "/></g></g></g><g fill="rgb(100%, 100%, 100%)" fill-opacity="1"><g transform="translate(166.837229, 263.290417)"><g><path d="M 12.285156 2.902344 C 16.210938 2.988281 19.101562 2.046875 22.660156 -0.839844 C 24.171875 -2.054688 24.261719 -4.011719 23.046875 -5.378906 C 21.878906 -6.699219 20.0625 -6.738281 18.601562 -5.574219 C 16.261719 -3.710938 14.71875 -3.265625 12.421875 -3.316406 C 9.886719 -3.371094 7.78125 -5.523438 7.84375 -8.394531 C 7.851562 -8.730469 7.859375 -9.019531 7.914062 -9.351562 L 8.054688 -9.300781 C 17.761719 -6.695312 28.878906 -11.570312 29.050781 -19.371094 C 29.171875 -24.824219 24.914062 -29.273438 19.316406 -29.398438 C 10.320312 -29.59375 1.867188 -19.585938 1.625 -8.53125 C 1.484375 -2.265625 6.066406 2.765625 12.285156 2.902344 Z M 9.527344 -15.300781 C 11.640625 -19.898438 15.496094 -23.257812 19.179688 -23.175781 C 21.332031 -23.128906 22.875 -21.515625 22.832031 -19.507812 C 22.757812 -16.207031 15.671875 -13.871094 9.910156 -15.242188 C 9.765625 -15.292969 9.625 -15.296875 9.527344 -15.300781 Z M 9.527344 -15.300781 "/></g></g></g><g fill="rgb(100%, 100%, 100%)" fill-opacity="1"><g transform="translate(197.538668, 263.56325)"><g><path d="M 6.78125 1.183594 C 8.472656 0.605469 9.199219 -0.878906 8.8125 -2.582031 C 6.953125 -10.523438 6.582031 -23.398438 7.941406 -32.875 C 8.175781 -34.566406 7.40625 -36.246094 5.417969 -36.65625 C 3.667969 -37.035156 2.054688 -35.933594 1.78125 -34.046875 C 0.332031 -23.703125 0.714844 -9.871094 2.769531 -1.027344 C 3.214844 0.867188 5.042969 1.765625 6.78125 1.183594 Z M 6.78125 1.183594 "/></g></g></g><g fill="rgb(100%, 100%, 100%)" fill-opacity="1"><g transform="translate(210.027165, 262.810207)"><g><path d="M 6.007812 1.292969 C 7.734375 0.777344 8.519531 -0.894531 8.050781 -2.625 C 6.3125 -9.082031 5.929688 -14.097656 6.652344 -20.042969 C 6.859375 -21.75 5.792969 -23.175781 4.078125 -23.476562 C 2.316406 -23.773438 0.75 -22.648438 0.515625 -20.746094 C -0.320312 -14.066406 0.203125 -8.152344 2.066406 -0.9375 C 2.550781 0.933594 4.28125 1.8125 6.007812 1.292969 Z M 1.542969 -30.671875 C -0.25 -29.421875 1.464844 -26.378906 4.386719 -26.976562 C 6.699219 -27.410156 8.105469 -29.578125 8.246094 -31.46875 C 8.40625 -33.605469 5.59375 -34.703125 4.050781 -33.386719 C 2.8125 -32.34375 2.84375 -31.578125 1.542969 -30.671875 Z M 1.542969 -30.671875 "/></g></g></g><g fill="rgb(100%, 100%, 100%)" fill-opacity="1"><g transform="translate(222.656743, 261.711647)"><g><path d="M 12.234375 1.25 C 16.003906 0.570312 18.65625 -1.703125 20.460938 -5.726562 C 21.296875 -7.578125 20.234375 -9.429688 18.394531 -9.921875 C 16.808594 -10.367188 15.402344 -9.53125 14.667969 -7.941406 C 13.792969 -6.03125 12.6875 -5.152344 11.132812 -4.871094 C 9.015625 -4.492188 6.417969 -7.574219 5.652344 -11.8125 C 4.570312 -17.839844 7.984375 -24 11.515625 -24.636719 C 12.644531 -24.839844 13.667969 -24.292969 14.527344 -23.039062 C 15.714844 -21.304688 16.703125 -20.949219 18.550781 -21.476562 C 20.214844 -21.96875 21.179688 -23.894531 20.171875 -25.707031 C 18.078125 -29.511719 14.511719 -31.496094 10.414062 -30.757812 C 3.300781 -29.476562 -2.148438 -20.035156 -0.46875 -10.710938 C 0.878906 -3.222656 6.253906 2.328125 12.234375 1.25 Z M 12.234375 1.25 "/></g></g></g><g fill="rgb(100%, 100%, 100%)" fill-opacity="1"><g transform="translate(249.23341, 256.62177)"><g><path d="M 6.132812 0.402344 C 7.761719 -0.363281 8.296875 -2.132812 7.578125 -3.777344 C 4.914062 -9.910156 3.804688 -14.8125 3.648438 -20.800781 C 3.601562 -22.519531 2.339844 -23.777344 0.597656 -23.824219 C -1.1875 -23.855469 -2.574219 -22.511719 -2.527344 -20.597656 C -2.378906 -13.867188 -0.992188 -8.09375 1.90625 -1.230469 C 2.660156 0.550781 4.5 1.167969 6.132812 0.402344 Z M -2.960938 -30.566406 C -4.554688 -29.070312 -2.410156 -26.308594 0.390625 -27.328125 C 2.613281 -28.09375 3.691406 -30.445312 3.550781 -32.339844 C 3.394531 -34.472656 0.457031 -35.148438 -0.882812 -33.621094 C -1.953125 -32.40625 -1.808594 -31.652344 -2.960938 -30.566406 Z M -2.960938 -30.566406 "/></g></g></g><g fill="rgb(100%, 100%, 100%)" fill-opacity="1"><g transform="translate(261.736471, 253.77143)"><g><path d="M 13.800781 -1.402344 C 16.738281 -2.421875 19.1875 -5.148438 20.382812 -8.703125 C 21.082031 -8.289062 21.976562 -8.195312 22.820312 -8.539062 C 24.476562 -9.164062 25.289062 -10.917969 24.585938 -12.648438 L 24.554688 -12.738281 C 19.933594 -24.863281 17.960938 -33.753906 16.265625 -42.132812 C 15.910156 -43.882812 14.382812 -44.921875 12.617188 -44.613281 C 10.847656 -44.300781 9.777344 -42.714844 10.148438 -40.917969 C 10.875 -37.523438 11.691406 -34.007812 12.691406 -30.25 C 10.007812 -32 7.246094 -32.511719 4.488281 -31.554688 C -2.882812 -28.992188 -5.601562 -20.496094 -2.304688 -11.003906 C 0.289062 -3.546875 7.109375 0.921875 13.800781 -1.402344 Z M 3.574219 -13.046875 C 1.390625 -19.328125 2.6875 -24.339844 6.53125 -25.675781 C 9.015625 -26.539062 13 -23.820312 16.78125 -15.710938 C 16.003906 -15.035156 15.625 -13.789062 15.5625 -12.652344 C 15.417969 -10.019531 13.792969 -7.984375 11.757812 -7.277344 C 8.546875 -6.164062 5.050781 -8.796875 3.574219 -13.046875 Z M 3.574219 -13.046875 "/></g></g></g><g fill="rgb(100%, 100%, 100%)" fill-opacity="1"><g transform="translate(292.558338, 242.971597)"><g><path d="M 10.839844 -1.484375 C 15.09375 -3.574219 16.753906 -8.550781 16.835938 -16.640625 C 17.597656 -15.414062 18.359375 -14.296875 19.101562 -13.328125 C 20.523438 -11.625 22.902344 -12.101562 24.09375 -14.019531 C 24.808594 -15.167969 24.539062 -16.371094 23.753906 -17.425781 C 21.546875 -20.394531 18.640625 -26.640625 16.84375 -32.90625 C 16.089844 -35.523438 14.433594 -37.160156 12.652344 -36.765625 C 11.476562 -36.453125 10.570312 -35.582031 10.324219 -34.449219 C 9.941406 -34.6875 9.496094 -34.949219 8.960938 -35.058594 C 6.84375 -35.566406 4.832031 -35.214844 2.898438 -34.265625 C -4.191406 -30.785156 -6.476562 -16.441406 -1.792969 -6.90625 C 0.84375 -1.535156 6.03125 0.878906 10.839844 -1.484375 Z M 3.792969 -9.648438 C 0.710938 -15.917969 1.945312 -26.867188 5.640625 -28.683594 C 6.5 -29.105469 7.269531 -28.949219 8.144531 -28.898438 C 9.023438 -28.851562 10.03125 -29.078125 10.761719 -29.757812 C 12.011719 -18.429688 10.804688 -8.398438 8.097656 -7.070312 C 6.636719 -6.351562 4.972656 -7.242188 3.792969 -9.648438 Z M 3.792969 -9.648438 "/></g></g></g><g fill="rgb(100%, 100%, 100%)" fill-opacity="1"><g transform="translate(322.500275, 228.121953)"><g><path d="M 13.050781 -4.695312 C 15.65625 -6.398438 17.375 -9.632812 17.675781 -13.371094 C 18.453125 -13.140625 19.34375 -13.265625 20.082031 -13.800781 C 21.535156 -14.808594 21.898438 -16.703125 20.800781 -18.214844 L 20.746094 -18.296875 C 13.335938 -28.945312 9.269531 -37.09375 5.597656 -44.8125 C 4.832031 -46.425781 3.097656 -47.066406 1.457031 -46.339844 C -0.179688 -45.609375 -0.835938 -43.8125 -0.0429688 -42.15625 C 1.484375 -39.039062 3.125 -35.824219 5.003906 -32.421875 C 1.972656 -33.472656 -0.828125 -33.296875 -3.273438 -31.703125 C -9.804688 -27.4375 -10.390625 -18.535156 -4.894531 -10.121094 C -0.578125 -3.507812 7.121094 -0.824219 13.050781 -4.695312 Z M 0.3125 -13.523438 C -3.324219 -19.09375 -3.277344 -24.269531 0.128906 -26.492188 C 2.332031 -27.933594 6.859375 -26.257812 12.488281 -19.300781 C 11.894531 -18.457031 11.828125 -17.15625 12.042969 -16.039062 C 12.539062 -13.449219 11.453125 -11.082031 9.652344 -9.90625 C 6.804688 -8.046875 2.773438 -9.757812 0.3125 -13.523438 Z M 0.3125 -13.523438 "/></g></g></g><g fill="rgb(100%, 100%, 100%)" fill-opacity="1"><g transform="translate(349.500679, 210.167163)"><g/></g></g><g clip-path="url(#id1)"><path fill="rgb(100%, 100%, 100%)" d="M 126.699219 193.585938 C 123.539062 193.953125 122.050781 196.449219 122.113281 199.683594 C 122.304688 208.382812 121.121094 218.285156 116.359375 225.4375 C 114.496094 228.234375 112.253906 230.089844 109.554688 232.320312 L 113.226562 225.269531 C 114.382812 223.050781 113.523438 220.3125 111.308594 219.160156 C 109.09375 218 106.363281 218.859375 105.207031 221.078125 L 94.09375 242.421875 C 83.753906 256.742188 90.207031 273.683594 90.207031 273.683594 L 106.164062 273.757812 C 106.246094 265.578125 111.273438 258.605469 111.273438 258.605469 C 133.746094 232.167969 132.089844 206.519531 131.949219 199.953125 C 131.867188 196.117188 129.851562 193.214844 126.699219 193.585938 " fill-opacity="1" fill-rule="nonzero"/></g><g clip-path="url(#id2)"><path fill="rgb(100%, 100%, 100%)" d="M 35.191406 193.585938 C 38.355469 193.953125 39.835938 196.449219 39.777344 199.683594 C 39.585938 208.382812 40.769531 218.285156 45.53125 225.4375 C 47.394531 228.234375 49.636719 230.089844 52.335938 232.320312 L 48.664062 225.269531 C 47.507812 223.050781 48.363281 220.3125 50.582031 219.160156 C 52.796875 218 55.527344 218.859375 56.683594 221.078125 L 67.800781 242.421875 C 78.136719 256.742188 71.6875 273.683594 71.6875 273.683594 L 55.726562 273.757812 C 55.644531 265.578125 50.617188 258.605469 50.617188 258.605469 C 28.144531 232.167969 29.800781 206.519531 29.941406 199.953125 C 30.023438 196.117188 32.042969 193.214844 35.191406 193.585938 " fill-opacity="1" fill-rule="nonzero"/></g><g clip-path="url(#id3)"><path fill="rgb(100%, 100%, 100%)" d="M 102.714844 200.171875 C 102.714844 193.167969 97.050781 187.492188 90.054688 187.492188 C 85.867188 187.492188 82.152344 189.53125 79.851562 192.671875 C 77.542969 189.53125 73.828125 187.492188 69.640625 187.492188 C 62.648438 187.492188 56.980469 193.167969 56.980469 200.171875 C 56.980469 203.554688 58.3125 206.632812 60.472656 208.90625 L 79.261719 227.988281 L 100.058594 207.9375 C 101.722656 205.789062 102.714844 203.09375 102.714844 200.171875 " fill-opacity="1" fill-rule="nonzero"/></g></svg>