<svg xmlns="http://www.w3.org/2000/svg" xmlns:xlink="http://www.w3.org/1999/xlink" width="100" zoomAndPan="magnify" viewBox="0 0 75 30.000001" height="40" preserveAspectRatio="xMidYMid meet" version="1.0"><defs><g/><clipPath id="id1"><path d="M 23.519531 5 L 35 5 L 35 20.3125 L 23.519531 20.3125 Z M 23.519531 5 " clip-rule="nonzero"/></clipPath><clipPath id="id2"><path d="M 38 2 L 49.414062 2 L 49.414062 17 L 38 17 Z M 38 2 " clip-rule="nonzero"/></clipPath><clipPath id="id3"><path d="M 33 12 L 41 12 L 41 20.3125 L 33 20.3125 Z M 33 12 " clip-rule="nonzero"/></clipPath></defs><g clip-path="url(#id1)"><path fill="rgb(36.079407%, 47.839355%, 48.239136%)" d="M 31.773438 20.21875 C 28.605469 16.535156 34.222656 12.035156 34.222656 12.035156 C 34.640625 11.96875 34.503906 10.75 33.660156 10.585938 C 32.863281 10.4375 31.570312 12.089844 31.199219 11.671875 C 30.664062 11.074219 31.199219 9.425781 31.242188 7.800781 C 31.285156 6.179688 29.953125 6.398438 29.867188 7.589844 C 29.78125 8.78125 29.636719 11.554688 29.296875 11.597656 C 28.960938 11.644531 28.8125 8.609375 28.757812 7.078125 C 28.703125 5.550781 27.285156 5.226562 27.316406 7.164062 C 27.347656 9.132812 27.722656 11.605469 27.394531 11.71875 C 27.066406 11.832031 26.660156 8.800781 26.542969 7.636719 C 26.429688 6.476562 25.015625 6.664062 25.15625 7.933594 C 25.300781 9.203125 26.125 12.148438 25.882812 12.292969 C 25.644531 12.433594 25.226562 11.632812 25.003906 10.355469 C 24.78125 9.074219 23.546875 9.320312 23.980469 10.710938 C 23.980469 10.710938 24.609375 19.234375 31.875 20.289062 " fill-opacity="1" fill-rule="nonzero"/></g><g clip-path="url(#id2)"><path fill="rgb(26.669312%, 74.899292%, 65.489197%)" d="M 41.34375 16.574219 C 44.449219 12.839844 38.753906 8.429688 38.753906 8.429688 C 38.339844 8.371094 38.453125 7.152344 39.296875 6.976562 C 40.089844 6.8125 41.410156 8.441406 41.773438 8.019531 C 42.300781 7.410156 41.734375 5.769531 41.667969 4.148438 C 41.597656 2.527344 42.929688 2.722656 43.035156 3.914062 C 43.144531 5.101562 43.335938 7.875 43.671875 7.914062 C 44.011719 7.953125 44.109375 4.914062 44.136719 3.386719 C 44.167969 1.859375 45.582031 1.507812 45.582031 3.445312 C 45.582031 5.417969 45.25 7.894531 45.578125 8 C 45.90625 8.109375 46.265625 5.074219 46.363281 3.90625 C 46.457031 2.742188 47.875 2.910156 47.753906 4.179688 C 47.628906 5.453125 46.855469 8.410156 47.101562 8.550781 C 47.34375 8.6875 47.746094 7.878906 47.945312 6.597656 C 48.144531 5.3125 49.386719 5.539062 48.976562 6.9375 C 48.976562 6.9375 48.488281 15.472656 41.242188 16.644531 " fill-opacity="1" fill-rule="nonzero"/></g><g clip-path="url(#id3)"><path fill="rgb(92.158508%, 32.939148%, 69.018555%)" d="M 39.027344 12.976562 C 37.605469 12.984375 37.195312 14.351562 37.183594 14.386719 C 37.171875 14.351562 36.757812 12.988281 35.339844 12.996094 C 33.902344 13.003906 33.136719 14.203125 33.570312 15.773438 C 34.109375 17.738281 37.164062 20.292969 37.183594 20.3125 C 37.207031 20.292969 40.257812 17.703125 40.796875 15.730469 C 41.226562 14.160156 40.460938 12.96875 39.027344 12.976562 " fill-opacity="1" fill-rule="nonzero"/></g><g fill="rgb(47.059631%, 69.018555%, 69.799805%)" fill-opacity="1"><g transform="translate(23.254317, 18.978658)"><g><path d="M 0.371094 0.558594 C 0.542969 0.8125 0.890625 0.882812 1.144531 0.714844 C 1.234375 0.652344 1.257812 0.539062 1.195312 0.449219 C 1.136719 0.359375 1.019531 0.335938 0.933594 0.394531 C 0.851562 0.449219 0.742188 0.425781 0.6875 0.347656 C 0.636719 0.269531 0.660156 0.15625 0.738281 0.105469 L 1.988281 -0.730469 C 2.074219 -0.785156 2.179688 -0.761719 2.230469 -0.679688 C 2.285156 -0.601562 2.269531 -0.496094 2.183594 -0.4375 C 2.097656 -0.378906 2.070312 -0.261719 2.128906 -0.171875 C 2.1875 -0.0859375 2.308594 -0.0625 2.394531 -0.121094 C 2.652344 -0.292969 2.71875 -0.636719 2.546875 -0.890625 C 2.378906 -1.148438 2.035156 -1.21875 1.777344 -1.046875 L 0.527344 -0.214844 C 0.273438 -0.0429688 0.199219 0.300781 0.371094 0.558594 Z M 0.371094 0.558594 "/></g></g></g><g fill="rgb(47.059631%, 69.018555%, 69.799805%)" fill-opacity="1"><g transform="translate(24.323051, 20.522035)"><g><path d="M 0.4375 0.507812 C 0.625 0.722656 0.960938 0.765625 1.195312 0.589844 L 2.390625 -0.445312 C 2.585938 -0.640625 2.605469 -0.984375 2.417969 -1.203125 C 2.238281 -1.410156 1.894531 -1.464844 1.664062 -1.289062 L 0.46875 -0.253906 C 0.261719 -0.0507812 0.253906 0.273438 0.4375 0.507812 Z M 1.886719 -0.976562 C 1.960938 -1.035156 2.066406 -1.027344 2.128906 -0.953125 C 2.191406 -0.882812 2.1875 -0.777344 2.117188 -0.710938 L 0.96875 0.28125 C 0.898438 0.335938 0.789062 0.328125 0.726562 0.257812 C 0.664062 0.1875 0.671875 0.078125 0.738281 0.015625 Z M 1.886719 -0.976562 "/></g></g></g><g fill="rgb(47.059631%, 69.018555%, 69.799805%)" fill-opacity="1"><g transform="translate(25.580764, 21.952128)"><g><path d="M 1.339844 1.144531 C 1.417969 1.210938 1.542969 1.199219 1.609375 1.121094 L 3.058594 -0.578125 C 3.117188 -0.648438 3.117188 -0.753906 3.054688 -0.828125 C 2.996094 -0.898438 2.894531 -0.914062 2.8125 -0.863281 L 1.3125 0.0546875 L 1.980469 -1.574219 C 2.019531 -1.660156 1.984375 -1.757812 1.902344 -1.808594 C 1.824219 -1.855469 1.71875 -1.839844 1.660156 -1.769531 L 0.210938 -0.0703125 C 0.144531 0.0078125 0.152344 0.132812 0.230469 0.199219 C 0.3125 0.265625 0.433594 0.253906 0.5 0.175781 L 1.171875 -0.609375 L 0.734375 0.449219 C 0.703125 0.527344 0.71875 0.613281 0.785156 0.671875 C 0.851562 0.726562 0.9375 0.730469 1.007812 0.683594 L 1.988281 0.0859375 L 1.320312 0.875 C 1.253906 0.953125 1.257812 1.074219 1.339844 1.144531 Z M 1.339844 1.144531 "/></g></g></g><g fill="rgb(47.059631%, 69.018555%, 69.799805%)" fill-opacity="1"><g transform="translate(27.623651, 23.602655)"><g><path d="M 1.632812 -2.066406 C 1.542969 -2.121094 1.425781 -2.089844 1.371094 -2.003906 L 0.199219 -0.101562 C 0.144531 -0.015625 0.167969 0.105469 0.257812 0.160156 C 0.351562 0.214844 0.46875 0.1875 0.523438 0.0976562 L 0.921875 -0.546875 L 1.09375 -0.441406 C 1.351562 -0.28125 1.695312 -0.367188 1.855469 -0.625 L 2.144531 -1.09375 C 2.304688 -1.355469 2.226562 -1.699219 1.964844 -1.859375 Z M 1.53125 -0.824219 C 1.480469 -0.742188 1.378906 -0.714844 1.289062 -0.765625 L 1.121094 -0.871094 L 1.597656 -1.640625 L 1.765625 -1.535156 C 1.851562 -1.480469 1.871094 -1.375 1.820312 -1.292969 Z M 1.53125 -0.824219 "/></g></g></g><g fill="rgb(47.059631%, 69.018555%, 69.799805%)" fill-opacity="1"><g transform="translate(29.262881, 24.580446)"><g><path d="M 1.777344 -2.070312 C 1.695312 -2.109375 1.597656 -2.082031 1.542969 -2.007812 C 1.386719 -1.8125 0.234375 -0.246094 0.183594 -0.132812 C 0.140625 -0.0351562 0.179688 0.0820312 0.277344 0.125 C 0.472656 0.210938 0.585938 -0.0429688 0.671875 -0.160156 L 1.089844 0.0273438 C 1.058594 0.167969 0.945312 0.421875 1.140625 0.507812 C 1.234375 0.550781 1.351562 0.503906 1.390625 0.40625 C 1.449219 0.277344 1.832031 -1.589844 1.882812 -1.855469 C 1.902344 -1.945312 1.855469 -2.035156 1.777344 -2.070312 Z M 0.902344 -0.476562 L 1.324219 -1.054688 L 1.171875 -0.355469 Z M 0.902344 -0.476562 "/></g></g></g><g fill="rgb(47.059631%, 69.018555%, 69.799805%)" fill-opacity="1"><g transform="translate(31.192881, 25.394489)"><g><path d="M 1.03125 -2.421875 C 0.925781 -2.453125 0.820312 -2.394531 0.792969 -2.292969 L 0.164062 -0.152344 C 0.132812 -0.0507812 0.191406 0.0546875 0.292969 0.0859375 C 0.394531 0.117188 0.5 0.0546875 0.53125 -0.0429688 L 0.742188 -0.769531 L 0.820312 -0.75 L 0.828125 0.101562 C 0.828125 0.191406 0.890625 0.261719 0.964844 0.285156 C 1.089844 0.320312 1.210938 0.210938 1.210938 0.0976562 L 1.199219 -0.703125 C 1.398438 -0.746094 1.5625 -0.886719 1.625 -1.09375 L 1.78125 -1.625 C 1.867188 -1.914062 1.699219 -2.226562 1.402344 -2.3125 Z M 1.105469 -2.003906 L 1.296875 -1.949219 C 1.394531 -1.917969 1.441406 -1.820312 1.414062 -1.730469 L 1.257812 -1.199219 C 1.230469 -1.109375 1.140625 -1.050781 1.039062 -1.082031 L 0.851562 -1.136719 Z M 1.105469 -2.003906 "/></g></g></g><g fill="rgb(47.059631%, 69.018555%, 69.799805%)" fill-opacity="1"><g transform="translate(33.030057, 25.900631)"><g><path d="M 0.703125 -2.539062 C 0.601562 -2.554688 0.503906 -2.480469 0.488281 -2.378906 C 0.46875 -2.273438 0.542969 -2.175781 0.644531 -2.160156 L 0.882812 -2.125 L 0.566406 -0.105469 C 0.550781 -0.00390625 0.621094 0.0976562 0.726562 0.113281 C 0.832031 0.128906 0.929688 0.0546875 0.945312 -0.046875 L 1.257812 -2.066406 L 1.496094 -2.027344 C 1.597656 -2.011719 1.699219 -2.082031 1.714844 -2.1875 C 1.730469 -2.289062 1.65625 -2.390625 1.554688 -2.40625 Z M 0.703125 -2.539062 "/></g></g></g><g fill="rgb(47.059631%, 69.018555%, 69.799805%)" fill-opacity="1"><g transform="translate(34.998556, 26.157689)"><g><path d="M 0.304688 0.015625 C 0.410156 0.0195312 0.5 -0.0625 0.503906 -0.164062 L 0.617188 -2.398438 C 0.621094 -2.5 0.542969 -2.589844 0.4375 -2.597656 C 0.328125 -2.601562 0.242188 -2.519531 0.238281 -2.417969 L 0.125 -0.183594 C 0.117188 -0.0820312 0.199219 0.0117188 0.304688 0.015625 Z M 0.304688 0.015625 "/></g></g></g><g fill="rgb(47.059631%, 69.018555%, 69.799805%)" fill-opacity="1"><g transform="translate(36.115162, 26.205193)"><g><path d="M 0.84375 -2.273438 C 0.949219 -2.28125 1.027344 -2.367188 1.023438 -2.472656 C 1.019531 -2.578125 0.929688 -2.660156 0.824219 -2.65625 L 0.183594 -2.625 C 0.078125 -2.621094 0 -2.53125 0.00390625 -2.425781 L 0.105469 -0.195312 C 0.109375 -0.09375 0.199219 -0.0078125 0.304688 -0.015625 L 0.945312 -0.0429688 C 1.050781 -0.046875 1.132812 -0.140625 1.125 -0.242188 C 1.121094 -0.347656 1.035156 -0.429688 0.925781 -0.425781 L 0.476562 -0.402344 L 0.445312 -1.140625 L 0.746094 -1.152344 C 0.851562 -1.15625 0.929688 -1.246094 0.925781 -1.351562 C 0.921875 -1.457031 0.835938 -1.539062 0.726562 -1.535156 L 0.425781 -1.519531 L 0.394531 -2.253906 Z M 0.84375 -2.273438 "/></g></g></g><g fill="rgb(47.059631%, 69.018555%, 69.799805%)" fill-opacity="1"><g transform="translate(37.894562, 26.093867)"><g><path d="M 0.589844 -2.753906 C 0.484375 -2.734375 0.414062 -2.632812 0.433594 -2.53125 L 0.605469 -1.503906 L 0.0664062 -2.527344 C 0.0195312 -2.613281 -0.0742188 -2.652344 -0.167969 -2.621094 C -0.253906 -2.589844 -0.308594 -2.5 -0.292969 -2.410156 L 0.0820312 -0.207031 C 0.0976562 -0.105469 0.199219 -0.0351562 0.300781 -0.0507812 C 0.40625 -0.0703125 0.472656 -0.167969 0.457031 -0.269531 L 0.28125 -1.300781 L 0.824219 -0.273438 C 0.863281 -0.199219 0.949219 -0.160156 1.027344 -0.175781 C 1.128906 -0.191406 1.199219 -0.292969 1.183594 -0.394531 L 0.808594 -2.597656 C 0.789062 -2.699219 0.695312 -2.769531 0.589844 -2.753906 Z M 0.589844 -2.753906 "/></g></g></g><g fill="rgb(47.059631%, 69.018555%, 69.799805%)" fill-opacity="1"><g transform="translate(39.743274, 25.74563)"><g><path d="M -0.464844 -2.589844 C -0.566406 -2.558594 -0.625 -2.453125 -0.59375 -2.355469 L 0.0546875 -0.214844 C 0.0859375 -0.117188 0.191406 -0.0585938 0.292969 -0.0898438 L 0.640625 -0.195312 C 0.933594 -0.28125 1.101562 -0.597656 1.015625 -0.886719 L 0.578125 -2.324219 C 0.488281 -2.617188 0.179688 -2.785156 -0.113281 -2.695312 Z M 0.648438 -0.777344 C 0.675781 -0.6875 0.621094 -0.585938 0.53125 -0.558594 L 0.363281 -0.507812 L -0.171875 -2.277344 L -0.00390625 -2.328125 C 0.0859375 -2.355469 0.183594 -2.3125 0.214844 -2.210938 Z M 0.648438 -0.777344 "/></g></g></g><g fill="rgb(47.059631%, 69.018555%, 69.799805%)" fill-opacity="1"><g transform="translate(41.529981, 25.16953)"><g><path d="M 0.613281 -0.273438 C 0.871094 -0.386719 1.011719 -0.699219 0.910156 -0.972656 L 0.265625 -2.417969 C 0.136719 -2.660156 -0.1875 -2.78125 -0.453125 -2.660156 C -0.703125 -2.550781 -0.851562 -2.238281 -0.75 -1.964844 L -0.105469 -0.519531 C 0.0273438 -0.265625 0.335938 -0.164062 0.613281 -0.273438 Z M -0.390625 -2.089844 C -0.425781 -2.179688 -0.382812 -2.273438 -0.296875 -2.3125 C -0.210938 -2.351562 -0.113281 -2.316406 -0.0703125 -2.230469 L 0.550781 -0.847656 C 0.582031 -0.761719 0.542969 -0.660156 0.457031 -0.621094 C 0.371094 -0.582031 0.269531 -0.621094 0.230469 -0.703125 Z M -0.390625 -2.089844 "/></g></g></g><g fill="rgb(47.059631%, 69.018555%, 69.799805%)" fill-opacity="1"><g transform="translate(44.133991, 23.835285)"><g><path d="M -1.253906 -2.316406 C -1.34375 -2.253906 -1.359375 -2.132812 -1.300781 -2.050781 L -0.015625 -0.222656 C 0.0429688 -0.136719 0.164062 -0.113281 0.25 -0.175781 C 0.335938 -0.238281 0.355469 -0.355469 0.296875 -0.441406 L -0.238281 -1.199219 L 0.0078125 -1.371094 C 0.0976562 -1.433594 0.117188 -1.550781 0.0546875 -1.636719 C -0.00390625 -1.726562 -0.121094 -1.746094 -0.210938 -1.683594 L -0.457031 -1.511719 L -0.878906 -2.113281 L -0.511719 -2.371094 C -0.421875 -2.433594 -0.402344 -2.550781 -0.464844 -2.636719 C -0.523438 -2.722656 -0.644531 -2.746094 -0.730469 -2.683594 Z M -1.253906 -2.316406 "/></g></g></g><g fill="rgb(47.059631%, 69.018555%, 69.799805%)" fill-opacity="1"><g transform="translate(45.571472, 22.786444)"><g><path d="M -0.789062 -2.292969 C -0.710938 -2.367188 -0.703125 -2.484375 -0.773438 -2.5625 C -0.84375 -2.640625 -0.964844 -2.648438 -1.042969 -2.578125 L -1.519531 -2.148438 C -1.601562 -2.078125 -1.605469 -1.957031 -1.535156 -1.878906 L -0.0429688 -0.21875 C 0.0273438 -0.140625 0.148438 -0.132812 0.226562 -0.203125 L 0.703125 -0.632812 C 0.78125 -0.703125 0.785156 -0.824219 0.71875 -0.902344 C 0.648438 -0.980469 0.527344 -0.988281 0.449219 -0.914062 L 0.113281 -0.613281 L -0.378906 -1.164062 L -0.152344 -1.363281 C -0.0742188 -1.433594 -0.0664062 -1.554688 -0.140625 -1.632812 C -0.210938 -1.710938 -0.328125 -1.71875 -0.410156 -1.648438 L -0.632812 -1.445312 L -1.125 -1.992188 Z M -0.789062 -2.292969 "/></g></g></g><g fill="rgb(47.059631%, 69.018555%, 69.799805%)" fill-opacity="1"><g transform="translate(46.877847, 21.573663)"><g><path d="M 0.679688 -0.777344 C 0.75 -0.859375 0.738281 -0.980469 0.660156 -1.046875 C 0.578125 -1.117188 0.460938 -1.109375 0.390625 -1.03125 L 0.0390625 -0.625 L -1.503906 -1.96875 C -1.582031 -2.035156 -1.703125 -2.027344 -1.769531 -1.949219 C -1.839844 -1.871094 -1.832031 -1.746094 -1.753906 -1.679688 L -0.0703125 -0.210938 C 0.0078125 -0.144531 0.132812 -0.152344 0.199219 -0.230469 Z M 0.679688 -0.777344 "/></g></g></g><g fill="rgb(47.059631%, 69.018555%, 69.799805%)" fill-opacity="1"><g transform="translate(48.058554, 20.152789)"><g><path d="M 0.175781 -0.25 C 0.238281 -0.335938 0.214844 -0.453125 0.132812 -0.515625 L -1.691406 -1.808594 C -1.773438 -1.867188 -1.894531 -1.851562 -1.957031 -1.761719 C -2.019531 -1.675781 -1.996094 -1.558594 -1.910156 -1.496094 L -0.0898438 -0.203125 C -0.00390625 -0.144531 0.113281 -0.160156 0.175781 -0.25 Z M 0.175781 -0.25 "/></g></g></g><g fill="rgb(47.059631%, 69.018555%, 69.799805%)" fill-opacity="1"><g transform="translate(48.701827, 19.234944)"><g><path d="M 0.332031 -0.582031 C 0.484375 -0.847656 0.390625 -1.191406 0.125 -1.34375 C 0.03125 -1.394531 -0.0820312 -1.363281 -0.136719 -1.269531 C -0.1875 -1.179688 -0.15625 -1.0625 -0.0664062 -1.011719 C 0.0195312 -0.964844 0.046875 -0.855469 0 -0.773438 C -0.046875 -0.6875 -0.15625 -0.660156 -0.238281 -0.707031 L -1.542969 -1.449219 C -1.632812 -1.5 -1.65625 -1.605469 -1.609375 -1.6875 C -1.5625 -1.773438 -1.460938 -1.804688 -1.371094 -1.753906 C -1.28125 -1.703125 -1.164062 -1.734375 -1.109375 -1.824219 C -1.058594 -1.917969 -1.089844 -2.035156 -1.179688 -2.085938 C -1.449219 -2.238281 -1.789062 -2.144531 -1.941406 -1.878906 C -2.09375 -1.609375 -2 -1.273438 -1.730469 -1.117188 L -0.425781 -0.375 C -0.160156 -0.222656 0.179688 -0.316406 0.332031 -0.582031 Z M 0.332031 -0.582031 "/></g></g></g><g fill="rgb(47.059631%, 69.018555%, 69.799805%)" fill-opacity="1"><g transform="translate(49.580385, 17.605264)"><g><path d="M 0.125 -0.277344 C 0.167969 -0.375 0.121094 -0.488281 0.0273438 -0.53125 L -2.015625 -1.4375 C -2.109375 -1.480469 -2.222656 -1.4375 -2.265625 -1.34375 C -2.308594 -1.246094 -2.261719 -1.132812 -2.167969 -1.089844 L -0.128906 -0.183594 C -0.0351562 -0.140625 0.0820312 -0.179688 0.125 -0.277344 Z M 0.125 -0.277344 "/></g></g></g><g fill="rgb(47.059631%, 69.018555%, 69.799805%)" fill-opacity="1"><g transform="translate(50.029586, 16.578436)"><g><path d="M -2.386719 -1.109375 C -2.417969 -1.007812 -2.363281 -0.902344 -2.265625 -0.871094 L -0.144531 -0.167969 C -0.046875 -0.136719 0.0625 -0.1875 0.09375 -0.289062 L 0.210938 -0.636719 C 0.304688 -0.925781 0.144531 -1.246094 -0.144531 -1.339844 L -1.566406 -1.808594 C -1.859375 -1.90625 -2.171875 -1.75 -2.269531 -1.457031 Z M -0.261719 -0.976562 C -0.171875 -0.949219 -0.121094 -0.847656 -0.152344 -0.757812 L -0.207031 -0.589844 L -1.960938 -1.171875 L -1.90625 -1.335938 C -1.878906 -1.425781 -1.785156 -1.480469 -1.6875 -1.449219 Z M -0.261719 -0.976562 "/></g></g></g><g fill="rgb(47.059631%, 69.018555%, 69.799805%)" fill-opacity="1"><g transform="translate(50.592707, 14.779241)"><g><path d="M -2.425781 -1.246094 C -2.441406 -1.160156 -2.394531 -1.070312 -2.3125 -1.035156 C -2.082031 -0.929688 -0.292969 -0.171875 -0.171875 -0.148438 C -0.0703125 -0.128906 0.0351562 -0.195312 0.0546875 -0.300781 C 0.0976562 -0.507812 -0.175781 -0.5625 -0.3125 -0.617188 L -0.226562 -1.066406 C -0.0820312 -1.070312 0.191406 -1.019531 0.230469 -1.230469 C 0.25 -1.332031 0.175781 -1.429688 0.0742188 -1.449219 C -0.0625 -1.476562 -1.972656 -1.414062 -2.242188 -1.402344 C -2.332031 -1.402344 -2.410156 -1.335938 -2.425781 -1.246094 Z M -0.671875 -0.765625 L -1.332031 -1.042969 L -0.617188 -1.058594 Z M -0.671875 -0.765625 "/></g></g></g><g fill="rgb(47.059631%, 69.018555%, 69.799805%)" fill-opacity="1"><g transform="translate(50.937977, 12.714386)"><g><path d="M -2.597656 -0.441406 C -2.597656 -0.335938 -2.519531 -0.246094 -2.414062 -0.242188 L -0.183594 -0.125 C -0.0820312 -0.117188 0.0117188 -0.199219 0.015625 -0.304688 L 0.0351562 -0.671875 C 0.0507812 -0.976562 -0.1875 -1.238281 -0.492188 -1.253906 L -1.988281 -1.335938 C -2.296875 -1.351562 -2.554688 -1.117188 -2.574219 -0.808594 Z M -0.511719 -0.875 C -0.414062 -0.871094 -0.339844 -0.785156 -0.34375 -0.691406 L -0.355469 -0.515625 L -2.203125 -0.613281 L -2.191406 -0.789062 C -2.1875 -0.882812 -2.109375 -0.960938 -2.007812 -0.953125 Z M -0.511719 -0.875 "/></g></g></g></svg>